<?xml version="1.0" encoding="utf-8"?>
<!-- Generator: Adobe Illustrator 16.0.0, SVG Export Plug-In . SVG Version: 6.00 Build 0)  -->
<!DOCTYPE svg PUBLIC "-//W3C//DTD SVG 1.1//EN" "http://www.w3.org/Graphics/SVG/1.1/DTD/svg11.dtd">
<svg version="1.1" id="Calque_1" xmlns="http://www.w3.org/2000/svg" xmlns:xlink="http://www.w3.org/1999/xlink" x="0px" y="0px"
	 width="150px" height="50px" viewBox="0 0 150 50" enable-background="new 0 0 150 50" xml:space="preserve">
<pattern  width="28.801" height="28.8" patternUnits="userSpaceOnUse" id="_x36_0_xA0__x25__10_ppp" viewBox="33.12 -36 28.801 28.8" overflow="visible">
	<g>
		<polygon fill="none" points="33.12,-7.2 33.12,-36 61.92,-36 61.92,-7.2 		"/>
		<path d="M61.92-2.88c2.385,0,4.319-1.935,4.319-4.32c0-2.386-1.935-4.32-4.319-4.32c-2.387,0-4.32,1.934-4.32,4.32
			C57.6-4.815,59.534-2.88,61.92-2.88z"/>
		<path d="M47.52-2.88c2.385,0,4.32-1.935,4.32-4.32c0-2.386-1.936-4.32-4.32-4.32c-2.386,0-4.32,1.934-4.32,4.32
			C43.2-4.815,45.134-2.88,47.52-2.88z"/>
		<path d="M33.12-2.88c2.386,0,4.32-1.935,4.32-4.32c0-2.386-1.935-4.32-4.32-4.32S28.8-9.586,28.8-7.2
			C28.8-4.815,30.734-2.88,33.12-2.88z"/>
		<path d="M61.92-17.28c2.385,0,4.319-1.935,4.319-4.32c0-2.386-1.935-4.32-4.319-4.32c-2.387,0-4.32,1.934-4.32,4.32
			C57.6-19.215,59.534-17.28,61.92-17.28z"/>
		<path d="M47.52-17.28c2.385,0,4.32-1.935,4.32-4.32c0-2.386-1.936-4.32-4.32-4.32c-2.386,0-4.32,1.934-4.32,4.32
			C43.2-19.215,45.134-17.28,47.52-17.28z"/>
		<path d="M33.12-17.28c2.386,0,4.32-1.935,4.32-4.32c0-2.386-1.935-4.32-4.32-4.32S28.8-23.986,28.8-21.6
			C28.8-19.215,30.734-17.28,33.12-17.28z"/>
		<path d="M61.92-31.68c2.385,0,4.319-1.935,4.319-4.32c0-2.386-1.935-4.32-4.319-4.32c-2.387,0-4.32,1.934-4.32,4.32
			C57.6-33.615,59.534-31.68,61.92-31.68z"/>
		<path d="M47.52-31.68c2.385,0,4.32-1.935,4.32-4.32c0-2.386-1.936-4.32-4.32-4.32c-2.386,0-4.32,1.934-4.32,4.32
			C43.2-33.615,45.134-31.68,47.52-31.68z"/>
		<path d="M33.12-31.68c2.386,0,4.32-1.935,4.32-4.32c0-2.386-1.935-4.32-4.32-4.32S28.8-38.386,28.8-36
			C28.8-33.615,30.734-31.68,33.12-31.68z"/>
		<path d="M4.32-31.68c2.385,0,4.32-1.935,4.32-4.32c0-2.386-1.935-4.32-4.32-4.32C1.934-40.32,0-38.386,0-36
			C0-33.615,1.934-31.68,4.32-31.68z"/>
		<path d="M4.32-36"/>
		<path d="M40.32-10.08c2.385,0,4.32-1.935,4.32-4.32c0-2.386-1.936-4.32-4.32-4.32c-2.386,0-4.32,1.934-4.32,4.32
			C36-12.015,37.934-10.08,40.32-10.08z"/>
		<path d="M54.72-10.08c2.385,0,4.319-1.935,4.319-4.32c0-2.386-1.935-4.32-4.319-4.32c-2.386,0-4.32,1.934-4.32,4.32
			C50.4-12.015,52.334-10.08,54.72-10.08z"/>
		<path d="M69.12-18.72c-2.386,0-4.319,1.934-4.319,4.32c0,2.385,1.934,4.32,4.319,4.32V-18.72z"/>
		<path d="M40.32-24.48c2.385,0,4.32-1.935,4.32-4.32c0-2.386-1.936-4.32-4.32-4.32c-2.386,0-4.32,1.934-4.32,4.32
			C36-26.415,37.934-24.48,40.32-24.48z"/>
		<path d="M54.72-24.48c2.385,0,4.319-1.935,4.319-4.32c0-2.386-1.935-4.32-4.319-4.32c-2.386,0-4.32,1.934-4.32,4.32
			C50.4-26.415,52.334-24.48,54.72-24.48z"/>
		<path d="M69.12-33.12c-2.386,0-4.319,1.934-4.319,4.32c0,2.385,1.934,4.32,4.319,4.32V-33.12z"/>
		<path d="M36-43.2c0,2.385,1.935,4.32,4.32,4.32c2.385,0,4.32-1.935,4.32-4.32H36z"/>
		<path d="M50.4-43.2c0,2.385,1.935,4.32,4.32,4.32c2.385,0,4.319-1.935,4.319-4.32H50.4z"/>
		<path d="M44.64,0c0-2.386-1.936-4.32-4.32-4.32C37.934-4.32,36-2.386,36,0H44.64z"/>
		<path d="M59.04,0c0-2.386-1.935-4.32-4.319-4.32c-2.386,0-4.32,1.934-4.32,4.32H59.04z"/>
		<path d="M25.92-10.08c2.385,0,4.319-1.935,4.319-4.32c0-2.386-1.935-4.32-4.319-4.32V-10.08z"/>
		<path d="M25.92-24.48c2.385,0,4.319-1.935,4.319-4.32c0-2.386-1.935-4.32-4.319-4.32V-24.48z"/>
		<path d="M11.52-24.48c2.385,0,4.32-1.935,4.32-4.32c0-2.386-1.936-4.32-4.32-4.32c-2.386,0-4.32,1.934-4.32,4.32
			C7.2-26.415,9.134-24.48,11.52-24.48z"/>
		<path d="M11.52-28.8"/>
	</g>
</pattern>
<path fill="#1A1A1A" d="M7.25,0C3.246,0,0,3.246,0,7.25V50h150V0H7.25z"/>
<linearGradient id="SVGID_1_" gradientUnits="userSpaceOnUse" x1="75.0005" y1="50" x2="75.0005" y2="4.882813e-004">
	<stop  offset="0" style="stop-color:#000000"/>
	<stop  offset="0.5911" style="stop-color:#686868"/>
	<stop  offset="1" style="stop-color:#000000"/>
</linearGradient>
<path fill="url(#SVGID_1_)" d="M7.25,0C3.246,0,0,3.246,0,7.25V50h150V0H7.25z"/>
<pattern  id="SVGID_2_" xlink:href="#_x36_0_xA0__x25__10_ppp" patternTransform="matrix(0.1398 0 0 0.1329 -6950.1978 -7068.8838)">
</pattern>
<path fill="url(#SVGID_2_)" stroke="#333333" stroke-linecap="round" stroke-linejoin="round" stroke-miterlimit="10" d="M9.032,1.5
	C5.125,1.5,1.5,4.307,1.5,8.021V48.5h147v-47H9.032z"/>
</svg>
