<?xml version="1.0" encoding="utf-8"?>
<!-- Generator: Adobe Illustrator 16.0.0, SVG Export Plug-In . SVG Version: 6.00 Build 0)  -->
<!DOCTYPE svg PUBLIC "-//W3C//DTD SVG 1.1//EN" "http://www.w3.org/Graphics/SVG/1.1/DTD/svg11.dtd">
<svg version="1.1" id="Calque_1" xmlns="http://www.w3.org/2000/svg" xmlns:xlink="http://www.w3.org/1999/xlink" x="0px" y="0px"
	 width="1920px" height="525px" viewBox="0 0 1920 525" enable-background="new 0 0 1920 525" xml:space="preserve">
<pattern  x="710.5" y="513" width="71.998" height="72" patternUnits="userSpaceOnUse" id="Toile" viewBox="11.666 -83 71.998 72" overflow="visible">
	<g>
		<polygon fill="none" points="83.664,-11 11.666,-11 11.666,-83.001 83.664,-83.001 		"/>
		<line fill="none" stroke="#000000" stroke-width="0.5" x1="21.332" y1="-77.334" x2="21.332" y2="-62.667"/>
		<line fill="none" stroke="#000000" stroke-width="0.5" x1="23.832" y1="-74.334" x2="23.832" y2="-59.666"/>
		<line fill="none" stroke="#000000" stroke-width="0.5" x1="20.166" y1="-64.667" x2="20.166" y2="-50.001"/>
		<line fill="none" stroke="#000000" stroke-width="0.5" x1="27.5" y1="-64.333" x2="27.5" y2="-49.666"/>
		<line fill="none" stroke="#000000" stroke-width="0.5" x1="17.832" y1="-71.334" x2="17.832" y2="-56.666"/>
		<line fill="none" stroke="#000000" stroke-width="0.5" x1="29.832" y1="-74.334" x2="29.832" y2="-59.666"/>
		<line fill="none" stroke="#000000" stroke-width="0.5" x1="35.332" y1="-74.334" x2="35.332" y2="-59.666"/>
		<line fill="none" stroke="#000000" stroke-width="0.5" x1="36.666" y1="-70.667" x2="36.666" y2="-56.001"/>
		<line fill="none" stroke="#000000" stroke-width="0.5" x1="32.832" y1="-79.834" x2="32.832" y2="-65.167"/>
		<line fill="none" stroke="#000000" stroke-width="0.5" x1="26.332" y1="-77.834" x2="26.332" y2="-63.167"/>
		<line fill="none" stroke="#000000" stroke-width="0.5" x1="24.666" y1="-90.166" x2="24.666" y2="-75.5"/>
		<line fill="none" stroke="#000000" stroke-width="0.5" x1="22" y1="-92.5" x2="22" y2="-77.834"/>
		<line fill="none" stroke="#000000" stroke-width="0.5" x1="12.832" y1="-72.001" x2="27.5" y2="-72.001"/>
		<line fill="none" stroke="#000000" stroke-width="0.5" x1="8.166" y1="-76" x2="22.832" y2="-76"/>
		<line fill="none" stroke="#000000" stroke-width="0.5" x1="6.498" y1="-69.334" x2="21.166" y2="-69.334"/>
		<line fill="none" stroke="#000000" stroke-width="0.5" x1="24.832" y1="-75.668" x2="39.5" y2="-75.668"/>
		<line fill="none" stroke="#000000" stroke-width="0.5" x1="19.666" y1="-73.834" x2="34.332" y2="-73.834"/>
		<line fill="none" stroke="#000000" stroke-width="0.5" x1="23.332" y1="-65.659" x2="38" y2="-65.659"/>
		<line fill="none" stroke="#000000" stroke-width="0.5" x1="16.666" y1="-68.167" x2="31.334" y2="-68.167"/>
		<line fill="none" stroke="#000000" stroke-width="0.5" x1="50.166" y1="-73" x2="50.166" y2="-58.335"/>
		<line fill="none" stroke="#000000" stroke-width="0.5" x1="47.666" y1="-70" x2="47.666" y2="-55.335"/>
		<line fill="none" stroke="#000000" stroke-width="0.5" x1="53.666" y1="-67.001" x2="53.666" y2="-52.335"/>
		<line fill="none" stroke="#000000" stroke-width="0.5" x1="55" y1="-59.666" x2="55" y2="-45.001"/>
		<line fill="none" stroke="#000000" stroke-width="0.5" x1="56.334" y1="-67.001" x2="56.334" y2="-52.335"/>
		<line fill="none" stroke="#000000" stroke-width="0.5" x1="41.666" y1="-70" x2="41.666" y2="-55.335"/>
		<line fill="none" stroke="#000000" stroke-width="0.5" x1="31.5" y1="-66.667" x2="31.5" y2="-52.001"/>
		<line fill="none" stroke="#000000" stroke-width="0.5" x1="40" y1="-76.5" x2="40" y2="-61.835"/>
		<line fill="none" stroke="#000000" stroke-width="0.5" x1="38.334" y1="-79.834" x2="38.334" y2="-65.167"/>
		<line fill="none" stroke="#000000" stroke-width="0.5" x1="45.166" y1="-74.834" x2="45.166" y2="-60.166"/>
		<line fill="none" stroke="#000000" stroke-width="0.5" x1="53.666" y1="-68.335" x2="39" y2="-68.335"/>
		<line fill="none" stroke="#000000" stroke-width="0.5" x1="45.334" y1="-70.334" x2="30.666" y2="-70.334"/>
		<line fill="none" stroke="#000000" stroke-width="0.5" x1="54.166" y1="-64.835" x2="39.5" y2="-64.835"/>
		<line fill="none" stroke="#000000" stroke-width="0.5" x1="48.5" y1="-60.993" x2="33.832" y2="-60.993"/>
		<line fill="none" stroke="#000000" stroke-width="0.5" x1="57.166" y1="-62.835" x2="42.5" y2="-62.835"/>
		<line fill="none" stroke="#000000" stroke-width="0.5" x1="74.998" y1="-86.667" x2="74.998" y2="-72"/>
		<line fill="none" stroke="#000000" stroke-width="0.5" x1="82.506" y1="-81.834" x2="82.506" y2="-67.167"/>
		<line fill="none" stroke="#000000" stroke-width="0.5" x1="77.832" y1="-81.834" x2="77.832" y2="-67.167"/>
		<line fill="none" stroke="#000000" stroke-width="0.5" x1="69.998" y1="-81.834" x2="69.998" y2="-67.167"/>
		<line fill="none" stroke="#000000" stroke-width="0.5" x1="72.498" y1="-87.334" x2="72.498" y2="-72.667"/>
		<line fill="none" stroke="#000000" stroke-width="0.5" x1="49.166" y1="-86.667" x2="49.166" y2="-72"/>
		<line fill="none" stroke="#000000" stroke-width="0.5" x1="80.332" y1="-86.667" x2="80.332" y2="-72"/>
		<line fill="none" stroke="#000000" stroke-width="0.5" x1="87.498" y1="-80.168" x2="72.832" y2="-80.168"/>
		<line fill="none" stroke="#000000" stroke-width="0.5" x1="85.998" y1="-77.668" x2="71.332" y2="-77.668"/>
		<line fill="none" stroke="#000000" stroke-width="0.5" x1="81.998" y1="-73.16" x2="67.332" y2="-73.16"/>
		<line fill="none" stroke="#000000" stroke-width="0.5" x1="73.998" y1="-74.492" x2="59.332" y2="-74.492"/>
		<line fill="none" stroke="#000000" stroke-width="0.5" x1="90.998" y1="-74.668" x2="76.332" y2="-74.668"/>
		<line fill="none" stroke="#000000" stroke-width="0.5" x1="53.166" y1="-80.5" x2="53.166" y2="-65.834"/>
		<line fill="none" stroke="#000000" stroke-width="0.5" x1="54.832" y1="-88.501" x2="54.832" y2="-73.834"/>
		<line fill="none" stroke="#000000" stroke-width="0.5" x1="57.666" y1="-77.5" x2="57.666" y2="-62.834"/>
		<line fill="none" stroke="#000000" stroke-width="0.5" x1="51.666" y1="-74.5" x2="51.666" y2="-59.835"/>
		<line fill="none" stroke="#000000" stroke-width="0.5" x1="64.332" y1="-78.166" x2="64.332" y2="-63.501"/>
		<line fill="none" stroke="#000000" stroke-width="0.5" x1="73.832" y1="-74.167" x2="73.832" y2="-59.501"/>
		<line fill="none" stroke="#000000" stroke-width="0.5" x1="66.664" y1="-83.001" x2="66.664" y2="-68.334"/>
		<line fill="none" stroke="#000000" stroke-width="0.5" x1="61.83" y1="-82" x2="61.83" y2="-67.334"/>
		<line fill="none" stroke="#000000" stroke-width="0.5" x1="51.498" y1="-80.668" x2="66.164" y2="-80.668"/>
		<line fill="none" stroke="#000000" stroke-width="0.5" x1="58.666" y1="-78.834" x2="73.332" y2="-78.834"/>
		<line fill="none" stroke="#000000" stroke-width="0.5" x1="50.332" y1="-77.168" x2="64.998" y2="-77.168"/>
		<line fill="none" stroke="#000000" stroke-width="0.5" x1="51.166" y1="-72.334" x2="65.832" y2="-72.334"/>
		<line fill="none" stroke="#000000" stroke-width="0.5" x1="56.832" y1="-67.493" x2="71.498" y2="-67.493"/>
		<line fill="none" stroke="#000000" stroke-width="0.5" x1="60.498" y1="-69.493" x2="75.166" y2="-69.493"/>
		<line fill="none" stroke="#000000" stroke-width="0.5" x1="48.166" y1="-70.334" x2="62.832" y2="-70.334"/>
		<line fill="none" stroke="#000000" stroke-width="0.5" x1="43.166" y1="-81.334" x2="43.166" y2="-66.667"/>
		<line fill="none" stroke="#000000" stroke-width="0.5" x1="41.498" y1="-82.001" x2="41.498" y2="-67.335"/>
		<line fill="none" stroke="#000000" stroke-width="0.5" x1="35.498" y1="-81.334" x2="35.498" y2="-66.667"/>
		<line fill="none" stroke="#000000" stroke-width="0.5" x1="28.498" y1="-87.334" x2="28.498" y2="-72.668"/>
		<line fill="none" stroke="#000000" stroke-width="0.5" x1="13.666" y1="-44.666" x2="13.666" y2="-30.001"/>
		<line fill="none" stroke="#000000" stroke-width="0.5" x1="13.166" y1="-61.166" x2="13.166" y2="-46.501"/>
		<line fill="none" stroke="#000000" stroke-width="0.5" x1="13.498" y1="-87.501" x2="13.498" y2="-72.834"/>
		<line fill="none" stroke="#000000" stroke-width="0.5" x1="18.498" y1="-89.501" x2="18.498" y2="-74.834"/>
		<line fill="none" stroke="#000000" stroke-width="0.5" x1="15.998" y1="-84.501" x2="15.998" y2="-69.834"/>
		<line fill="none" stroke="#000000" stroke-width="0.5" x1="14.332" y1="-73.167" x2="14.332" y2="-58.501"/>
		<line fill="none" stroke="#000000" stroke-width="0.5" x1="12.332" y1="-75.667" x2="12.332" y2="-61.001"/>
		<line fill="none" stroke="#000000" stroke-width="0.5" x1="9.998" y1="-82.835" x2="24.666" y2="-82.835"/>
		<line fill="none" stroke="#000000" stroke-width="0.5" x1="18.332" y1="-81.168" x2="32.998" y2="-81.168"/>
		<line fill="none" stroke="#000000" stroke-width="0.5" x1="12.832" y1="-78.668" x2="27.498" y2="-78.668"/>
		<line fill="none" stroke="#000000" stroke-width="0.5" x1="34.832" y1="-78.001" x2="49.498" y2="-78.001"/>
		<line fill="none" stroke="#000000" stroke-width="0.5" x1="29.832" y1="-79.334" x2="44.498" y2="-79.334"/>
		<line fill="none" stroke="#000000" stroke-width="0.5" x1="31.832" y1="-82.001" x2="46.498" y2="-82.001"/>
		<line fill="none" stroke="#000000" stroke-width="0.5" x1="37.164" y1="-73.668" x2="51.832" y2="-73.668"/>
		<line fill="none" stroke="#000000" stroke-width="0.5" x1="53.332" y1="-58.827" x2="38.666" y2="-58.827"/>
		<line fill="none" stroke="#000000" stroke-width="0.5" x1="57.332" y1="-56.827" x2="42.666" y2="-56.827"/>
		<line fill="none" stroke="#000000" stroke-width="0.5" x1="51.666" y1="-54.493" x2="37" y2="-54.493"/>
		<line fill="none" stroke="#000000" stroke-width="0.5" x1="29.832" y1="-48.666" x2="29.832" y2="-34.001"/>
		<line fill="none" stroke="#000000" stroke-width="0.5" x1="33.332" y1="-42.666" x2="33.332" y2="-28.001"/>
		<line fill="none" stroke="#000000" stroke-width="0.5" x1="27.666" y1="-46.335" x2="13" y2="-46.335"/>
		<line fill="none" stroke="#000000" stroke-width="0.5" x1="38.666" y1="-42.335" x2="23.998" y2="-42.335"/>
		<line fill="none" stroke="#000000" stroke-width="0.5" x1="33.832" y1="-40.501" x2="19.166" y2="-40.501"/>
		<line fill="none" stroke="#000000" stroke-width="0.5" x1="36.832" y1="-38.501" x2="22.166" y2="-38.501"/>
		<line fill="none" stroke="#000000" stroke-width="0.5" x1="49.666" y1="-57.501" x2="49.666" y2="-42.835"/>
		<line fill="none" stroke="#000000" stroke-width="0.5" x1="51" y1="-51.666" x2="51" y2="-37.001"/>
		<line fill="none" stroke="#000000" stroke-width="0.5" x1="34.832" y1="-56.166" x2="34.832" y2="-41.501"/>
		<line fill="none" stroke="#000000" stroke-width="0.5" x1="37.998" y1="-61.501" x2="37.998" y2="-46.835"/>
		<line fill="none" stroke="#000000" stroke-width="0.5" x1="43.332" y1="-53.166" x2="43.332" y2="-38.501"/>
		<line fill="none" stroke="#000000" stroke-width="0.5" x1="46.332" y1="-58.666" x2="46.332" y2="-44.001"/>
		<line fill="none" stroke="#000000" stroke-width="0.5" x1="44.666" y1="-59.001" x2="44.666" y2="-44.335"/>
		<line fill="none" stroke="#000000" stroke-width="0.5" x1="39.832" y1="-56.666" x2="39.832" y2="-42.001"/>
		<line fill="none" stroke="#000000" stroke-width="0.5" x1="36.498" y1="-43.16" x2="51.166" y2="-43.16"/>
		<line fill="none" stroke="#000000" stroke-width="0.5" x1="39.166" y1="-41.827" x2="53.832" y2="-41.827"/>
		<line fill="none" stroke="#000000" stroke-width="0.5" x1="41.832" y1="-44.493" x2="56.498" y2="-44.493"/>
		<line fill="none" stroke="#000000" stroke-width="0.5" x1="41.832" y1="-49.827" x2="56.498" y2="-49.827"/>
		<line fill="none" stroke="#000000" stroke-width="0.5" x1="44.498" y1="-47.16" x2="59.164" y2="-47.16"/>
		<line fill="none" stroke="#000000" stroke-width="0.5" x1="57.83" y1="-49.827" x2="72.496" y2="-49.827"/>
		<line fill="none" stroke="#000000" stroke-width="0.5" x1="46.498" y1="-52.16" x2="61.164" y2="-52.16"/>
		<line fill="none" stroke="#000000" stroke-width="0.5" x1="73.162" y1="-66.493" x2="87.83" y2="-66.493"/>
		<line fill="none" stroke="#000000" stroke-width="0.5" x1="57.164" y1="-59.494" x2="71.83" y2="-59.494"/>
		<line fill="none" stroke="#000000" stroke-width="0.5" x1="55.164" y1="-61.827" x2="69.83" y2="-61.827"/>
		<line fill="none" stroke="#000000" stroke-width="0.5" x1="27.832" y1="-46.001" x2="42.498" y2="-46.001"/>
		<line fill="none" stroke="#000000" stroke-width="0.5" x1="28.164" y1="-48.001" x2="42.832" y2="-48.001"/>
		<line fill="none" stroke="#000000" stroke-width="0.5" x1="41.998" y1="-37.16" x2="27.332" y2="-37.16"/>
		<line fill="none" stroke="#000000" stroke-width="0.5" x1="33.664" y1="-62.166" x2="33.664" y2="-47.501"/>
		<line fill="none" stroke="#000000" stroke-width="0.5" x1="31.498" y1="-65.667" x2="31.498" y2="-51.001"/>
		<line fill="none" stroke="#000000" stroke-width="0.5" x1="22.498" y1="-57.001" x2="37.166" y2="-57.001"/>
		<line fill="none" stroke="#000000" stroke-width="0.5" x1="15.498" y1="-58.335" x2="30.166" y2="-58.335"/>
		<line fill="none" stroke="#000000" stroke-width="0.5" x1="17.164" y1="-60.335" x2="31.832" y2="-60.335"/>
		<line fill="none" stroke="#000000" stroke-width="0.5" x1="15.832" y1="-63.001" x2="30.5" y2="-63.001"/>
		<line fill="none" stroke="#000000" stroke-width="0.5" x1="25.166" y1="-63.001" x2="39.832" y2="-63.001"/>
		<line fill="none" stroke="#000000" stroke-width="0.5" x1="18.666" y1="-39.332" x2="18.666" y2="-24.666"/>
		<line fill="none" stroke="#000000" stroke-width="0.5" x1="21.166" y1="-36.332" x2="21.166" y2="-21.666"/>
		<line fill="none" stroke="#000000" stroke-width="0.5" x1="17.5" y1="-26.666" x2="17.5" y2="-12"/>
		<line fill="none" stroke="#000000" stroke-width="0.5" x1="14.5" y1="-29.001" x2="14.5" y2="-14.332"/>
		<line fill="none" stroke="#000000" stroke-width="0.5" x1="24.834" y1="-26.332" x2="24.834" y2="-11.666"/>
		<line fill="none" stroke="#000000" stroke-width="0.5" x1="27.166" y1="-36.332" x2="27.166" y2="-21.666"/>
		<line fill="none" stroke="#000000" stroke-width="0.5" x1="36.666" y1="-44.669" x2="36.666" y2="-30.001"/>
		<line fill="none" stroke="#000000" stroke-width="0.5" x1="70.164" y1="-23" x2="70.164" y2="-8.334"/>
		<line fill="none" stroke="#000000" stroke-width="0.5" x1="72.998" y1="-35.666" x2="72.998" y2="-21"/>
		<line fill="none" stroke="#000000" stroke-width="0.5" x1="69.664" y1="-19" x2="54.998" y2="-19"/>
		<line fill="none" stroke="#000000" stroke-width="0.5" x1="74.164" y1="-14.834" x2="59.498" y2="-14.834"/>
		<line fill="none" stroke="#000000" stroke-width="0.5" x1="71.498" y1="-12.834" x2="56.832" y2="-12.834"/>
		<line fill="none" stroke="#000000" stroke-width="0.5" x1="75.498" y1="-16.502" x2="60.832" y2="-16.502"/>
		<line fill="none" stroke="#000000" stroke-width="0.5" x1="75.164" y1="-30.501" x2="75.164" y2="-15.834"/>
		<line fill="none" stroke="#000000" stroke-width="0.5" x1="71.664" y1="-24.5" x2="71.664" y2="-9.834"/>
		<line fill="none" stroke="#000000" stroke-width="0.5" x1="60.33" y1="-35.166" x2="60.33" y2="-20.5"/>
		<line fill="none" stroke="#000000" stroke-width="0.5" x1="58.664" y1="-32.501" x2="58.664" y2="-17.834"/>
		<line fill="none" stroke="#000000" stroke-width="0.5" x1="56.664" y1="-26.666" x2="56.664" y2="-12"/>
		<line fill="none" stroke="#000000" stroke-width="0.5" x1="78.83" y1="-28.667" x2="78.83" y2="-14"/>
		<line fill="none" stroke="#000000" stroke-width="0.5" x1="80.497" y1="-34.667" x2="80.497" y2="-20"/>
		<line fill="none" stroke="#000000" stroke-width="0.5" x1="82.83" y1="-37.001" x2="82.83" y2="-22.334"/>
		<line fill="none" stroke="#000000" stroke-width="0.5" x1="76.83" y1="-17.492" x2="91.498" y2="-17.492"/>
		<line fill="none" stroke="#000000" stroke-width="0.5" x1="73.164" y1="-12.826" x2="87.83" y2="-12.826"/>
		<line fill="none" stroke="#000000" stroke-width="0.5" x1="78.498" y1="-14.826" x2="93.164" y2="-14.826"/>
		<line fill="none" stroke="#000000" stroke-width="0.5" x1="73.83" y1="-19.826" x2="88.498" y2="-19.826"/>
		<line fill="none" stroke="#000000" stroke-width="0.5" x1="70.83" y1="-26.494" x2="85.498" y2="-26.494"/>
		<line fill="none" stroke="#000000" stroke-width="0.5" x1="78.498" y1="-28.494" x2="93.164" y2="-28.494"/>
		<line fill="none" stroke="#000000" stroke-width="0.5" x1="75.164" y1="-24.16" x2="89.83" y2="-24.16"/>
		<line fill="none" stroke="#000000" stroke-width="0.5" x1="76.998" y1="-19" x2="76.998" y2="-4.334"/>
		<line fill="none" stroke="#000000" stroke-width="0.5" x1="81.332" y1="-21.668" x2="81.332" y2="-7"/>
		<line fill="none" stroke="#000000" stroke-width="0.5" x1="15.166" y1="-34.666" x2="29.834" y2="-34.666"/>
		<line fill="none" stroke="#000000" stroke-width="0.5" x1="19.834" y1="-15.334" x2="34.5" y2="-15.334"/>
		<line fill="none" stroke="#000000" stroke-width="0.5" x1="16.666" y1="-32.166" x2="31.334" y2="-32.166"/>
		<line fill="none" stroke="#000000" stroke-width="0.5" x1="20.666" y1="-27.659" x2="35.334" y2="-27.659"/>
		<line fill="none" stroke="#000000" stroke-width="0.5" x1="31.666" y1="-30.659" x2="46.334" y2="-30.659"/>
		<line fill="none" stroke="#000000" stroke-width="0.5" x1="12.5" y1="-30.501" x2="27.168" y2="-30.501"/>
		<line fill="none" stroke="#000000" stroke-width="0.5" x1="29.334" y1="-31.001" x2="29.334" y2="-16.334"/>
		<line fill="none" stroke="#000000" stroke-width="0.5" x1="44" y1="-33.335" x2="29.334" y2="-33.335"/>
		<line fill="none" stroke="#000000" stroke-width="0.5" x1="45.834" y1="-22.992" x2="31.166" y2="-22.992"/>
		<line fill="none" stroke="#000000" stroke-width="0.5" x1="47.5" y1="-21.326" x2="32.832" y2="-21.326"/>
		<line fill="none" stroke="#000000" stroke-width="0.5" x1="46.002" y1="-26.326" x2="31.334" y2="-26.326"/>
		<line fill="none" stroke="#000000" stroke-width="0.5" x1="50.668" y1="-28.993" x2="36" y2="-28.993"/>
		<line fill="none" stroke="#000000" stroke-width="0.5" x1="30.998" y1="-24.166" x2="30.998" y2="-9.5"/>
		<line fill="none" stroke="#000000" stroke-width="0.5" x1="24.166" y1="-45.001" x2="24.166" y2="-30.335"/>
		<line fill="none" stroke="#000000" stroke-width="0.5" x1="22.5" y1="-50.335" x2="22.5" y2="-35.666"/>
		<line fill="none" stroke="#000000" stroke-width="0.5" x1="25.5" y1="-53.335" x2="25.5" y2="-38.666"/>
		<line fill="none" stroke="#000000" stroke-width="0.5" x1="20.166" y1="-51.666" x2="20.166" y2="-37.001"/>
		<line fill="none" stroke="#000000" stroke-width="0.5" x1="16.5" y1="-50.666" x2="16.5" y2="-36.001"/>
		<line fill="none" stroke="#000000" stroke-width="0.5" x1="18.5" y1="-55.335" x2="18.5" y2="-40.666"/>
		<line fill="none" stroke="#000000" stroke-width="0.5" x1="19.832" y1="-19" x2="34.5" y2="-19"/>
		<line fill="none" stroke="#000000" stroke-width="0.5" x1="12.664" y1="-20.666" x2="27.332" y2="-20.666"/>
		<line fill="none" stroke="#000000" stroke-width="0.5" x1="14.498" y1="-22.334" x2="29.166" y2="-22.334"/>
		<line fill="none" stroke="#000000" stroke-width="0.5" x1="41.166" y1="-33.001" x2="41.166" y2="-18.332"/>
		<line fill="none" stroke="#000000" stroke-width="0.5" x1="38.156" y1="-40.001" x2="38.156" y2="-25.334"/>
		<line fill="none" stroke="#000000" stroke-width="0.5" x1="37.5" y1="-23.332" x2="37.5" y2="-8.666"/>
		<line fill="none" stroke="#000000" stroke-width="0.5" x1="44.834" y1="-23" x2="44.834" y2="-8.332"/>
		<line fill="none" stroke="#000000" stroke-width="0.5" x1="35.166" y1="-30.001" x2="35.166" y2="-15.332"/>
		<line fill="none" stroke="#000000" stroke-width="0.5" x1="47.166" y1="-33.001" x2="47.166" y2="-18.332"/>
		<line fill="none" stroke="#000000" stroke-width="0.5" x1="42.666" y1="-24.166" x2="42.666" y2="-9.498"/>
		<line fill="none" stroke="#000000" stroke-width="0.5" x1="39.666" y1="-28.166" x2="39.666" y2="-13.5"/>
		<line fill="none" stroke="#000000" stroke-width="0.5" x1="39.834" y1="-12" x2="54.5" y2="-12"/>
		<line fill="none" stroke="#000000" stroke-width="0.5" x1="41.834" y1="-14.334" x2="56.5" y2="-14.334"/>
		<line fill="none" stroke="#000000" stroke-width="0.5" x1="48.834" y1="-25.332" x2="48.834" y2="-10.666"/>
		<line fill="none" stroke="#000000" stroke-width="0.5" x1="44.166" y1="-37.666" x2="44.166" y2="-23"/>
		<line fill="none" stroke="#000000" stroke-width="0.5" x1="66.664" y1="-25.332" x2="66.664" y2="-10.666"/>
		<line fill="none" stroke="#000000" stroke-width="0.5" x1="59.664" y1="-17.332" x2="59.664" y2="-2.666"/>
		<line fill="none" stroke="#000000" stroke-width="0.5" x1="45.832" y1="-42.335" x2="45.832" y2="-27.666"/>
		<line fill="none" stroke="#000000" stroke-width="0.5" x1="39.832" y1="-15.666" x2="54.5" y2="-15.666"/>
		<line fill="none" stroke="#000000" stroke-width="0.5" x1="32.832" y1="-17" x2="47.5" y2="-17"/>
		<line fill="none" stroke="#000000" stroke-width="0.5" x1="24.832" y1="-13.666" x2="39.5" y2="-13.666"/>
		<line fill="none" stroke="#000000" stroke-width="0.5" x1="19.498" y1="-12.332" x2="34.166" y2="-12.332"/>
		<line fill="none" stroke="#000000" stroke-width="0.5" x1="34.498" y1="-19" x2="49.166" y2="-19"/>
		<line fill="none" stroke="#000000" stroke-width="0.5" x1="13.166" y1="-25" x2="27.834" y2="-25"/>
		<line fill="none" stroke="#000000" stroke-width="0.5" x1="22.5" y1="-25" x2="37.166" y2="-25"/>
		<line fill="none" stroke="#000000" stroke-width="0.5" x1="28.166" y1="-52.159" x2="42.832" y2="-52.159"/>
		<line fill="none" stroke="#000000" stroke-width="0.5" x1="19.498" y1="-55.001" x2="34.166" y2="-55.001"/>
		<line fill="none" stroke="#000000" stroke-width="0.5" x1="18.332" y1="-49.666" x2="33" y2="-49.666"/>
		<line fill="none" stroke="#000000" stroke-width="0.5" x1="10.998" y1="-52.001" x2="25.666" y2="-52.001"/>
		<line fill="none" stroke="#000000" stroke-width="0.5" x1="58.832" y1="-65.667" x2="58.832" y2="-51.001"/>
		<line fill="none" stroke="#000000" stroke-width="0.5" x1="62.498" y1="-55.666" x2="62.498" y2="-41.001"/>
		<line fill="none" stroke="#000000" stroke-width="0.5" x1="64.49" y1="-63" x2="64.49" y2="-48.332"/>
		<line fill="none" stroke="#000000" stroke-width="0.5" x1="70.332" y1="-65.667" x2="70.332" y2="-51.001"/>
		<line fill="none" stroke="#000000" stroke-width="0.5" x1="71.664" y1="-62.001" x2="71.664" y2="-47.335"/>
		<line fill="none" stroke="#000000" stroke-width="0.5" x1="67.832" y1="-71.167" x2="67.832" y2="-56.501"/>
		<line fill="none" stroke="#000000" stroke-width="0.5" x1="60.332" y1="-69.167" x2="60.332" y2="-54.501"/>
		<line fill="none" stroke="#000000" stroke-width="0.5" x1="58.332" y1="-56.993" x2="72.998" y2="-56.993"/>
		<line fill="none" stroke="#000000" stroke-width="0.5" x1="46.5" y1="-86.668" x2="46.5" y2="-72.001"/>
		<line fill="none" stroke="#000000" stroke-width="0.5" x1="52" y1="-34.666" x2="52" y2="-20"/>
		<line fill="none" stroke="#000000" stroke-width="0.5" x1="53.334" y1="-27.332" x2="53.334" y2="-12.666"/>
		<line fill="none" stroke="#000000" stroke-width="0.5" x1="50.002" y1="-37.666" x2="50.002" y2="-23"/>
		<line fill="none" stroke="#000000" stroke-width="0.5" x1="54.668" y1="-34.666" x2="54.668" y2="-20"/>
		<line fill="none" stroke="#000000" stroke-width="0.5" x1="76.666" y1="-61.335" x2="76.666" y2="-46.666"/>
		<line fill="none" stroke="#000000" stroke-width="0.5" x1="66.498" y1="-58.001" x2="66.498" y2="-43.335"/>
		<line fill="none" stroke="#000000" stroke-width="0.5" x1="74.998" y1="-67.834" x2="74.998" y2="-53.166"/>
		<line fill="none" stroke="#000000" stroke-width="0.5" x1="78.666" y1="-72.501" x2="78.666" y2="-57.835"/>
		<line fill="none" stroke="#000000" stroke-width="0.5" x1="80.174" y1="-70.334" x2="80.174" y2="-55.669"/>
		<line fill="none" stroke="#000000" stroke-width="0.5" x1="82.166" y1="-65.501" x2="82.166" y2="-50.835"/>
		<line fill="none" stroke="#000000" stroke-width="0.5" x1="88.666" y1="-59.669" x2="73.998" y2="-59.669"/>
		<line fill="none" stroke="#000000" stroke-width="0.5" x1="81.666" y1="-62.668" x2="66.998" y2="-62.668"/>
		<line fill="none" stroke="#000000" stroke-width="0.5" x1="76" y1="-65.001" x2="61.332" y2="-65.001"/>
		<line fill="none" stroke="#000000" stroke-width="0.5" x1="80.332" y1="-71.335" x2="65.666" y2="-71.335"/>
		<line fill="none" stroke="#000000" stroke-width="0.5" x1="89.166" y1="-56.169" x2="74.498" y2="-56.169"/>
		<line fill="none" stroke="#000000" stroke-width="0.5" x1="83.498" y1="-52.327" x2="68.832" y2="-52.327"/>
		<line fill="none" stroke="#000000" stroke-width="0.5" x1="92.166" y1="-54.169" x2="77.498" y2="-54.169"/>
		<line fill="none" stroke="#000000" stroke-width="0.5" x1="53.5" y1="-48.166" x2="53.5" y2="-33.501"/>
		<line fill="none" stroke="#000000" stroke-width="0.5" x1="56" y1="-45.166" x2="56" y2="-30.501"/>
		<line fill="none" stroke="#000000" stroke-width="0.5" x1="71.332" y1="-42.166" x2="71.332" y2="-27.501"/>
		<line fill="none" stroke="#000000" stroke-width="0.5" x1="58.5" y1="-48.666" x2="58.5" y2="-34.001"/>
		<line fill="none" stroke="#000000" stroke-width="0.5" x1="49.5" y1="-40.001" x2="64.166" y2="-40.001"/>
		<line fill="none" stroke="#000000" stroke-width="0.5" x1="55.166" y1="-35.159" x2="69.832" y2="-35.159"/>
		<line fill="none" stroke="#000000" stroke-width="0.5" x1="77.832" y1="-64.335" x2="92.498" y2="-64.335"/>
		<line fill="none" stroke="#000000" stroke-width="0.5" x1="88.332" y1="-50.159" x2="73.664" y2="-50.159"/>
		<line fill="none" stroke="#000000" stroke-width="0.5" x1="92.332" y1="-48.159" x2="77.664" y2="-48.159"/>
		<line fill="none" stroke="#000000" stroke-width="0.5" x1="86.666" y1="-45.827" x2="71.998" y2="-45.827"/>
		<line fill="none" stroke="#000000" stroke-width="0.5" x1="64.832" y1="-40.001" x2="64.832" y2="-25.334"/>
		<line fill="none" stroke="#000000" stroke-width="0.5" x1="68.332" y1="-34.001" x2="68.332" y2="-19.334"/>
		<line fill="none" stroke="#000000" stroke-width="0.5" x1="64.332" y1="-26.334" x2="64.332" y2="-11.668"/>
		<line fill="none" stroke="#000000" stroke-width="0.5" x1="61.998" y1="-28.666" x2="61.998" y2="-14"/>
		<line fill="none" stroke="#000000" stroke-width="0.5" x1="71.832" y1="-29.835" x2="57.166" y2="-29.835"/>
		<line fill="none" stroke="#000000" stroke-width="0.5" x1="63.832" y1="-32.501" x2="49.166" y2="-32.501"/>
		<line fill="none" stroke="#000000" stroke-width="0.5" x1="53.5" y1="-35.501" x2="38.832" y2="-35.501"/>
		<line fill="none" stroke="#000000" stroke-width="0.5" x1="63.664" y1="-51.166" x2="63.664" y2="-36.501"/>
		<line fill="none" stroke="#000000" stroke-width="0.5" x1="50.666" y1="-19.334" x2="50.666" y2="-4.666"/>
		<line fill="none" stroke="#000000" stroke-width="0.5" x1="76.664" y1="-36.166" x2="76.664" y2="-21.5"/>
		<line fill="none" stroke="#000000" stroke-width="0.5" x1="69.83" y1="-47.501" x2="69.83" y2="-32.835"/>
		<line fill="none" stroke="#000000" stroke-width="0.5" x1="72.996" y1="-52.835" x2="72.996" y2="-38.169"/>
		<line fill="none" stroke="#000000" stroke-width="0.5" x1="66.33" y1="-41.501" x2="66.33" y2="-26.835"/>
		<line fill="none" stroke="#000000" stroke-width="0.5" x1="78.33" y1="-44.501" x2="78.33" y2="-29.835"/>
		<line fill="none" stroke="#000000" stroke-width="0.5" x1="81.33" y1="-50.001" x2="81.33" y2="-35.335"/>
		<line fill="none" stroke="#000000" stroke-width="0.5" x1="79.664" y1="-50.335" x2="79.664" y2="-35.666"/>
		<line fill="none" stroke="#000000" stroke-width="0.5" x1="74.83" y1="-48.001" x2="74.83" y2="-33.335"/>
		<line fill="none" stroke="#000000" stroke-width="0.5" x1="71.498" y1="-34.493" x2="86.164" y2="-34.493"/>
		<line fill="none" stroke="#000000" stroke-width="0.5" x1="74.832" y1="-31.493" x2="89.498" y2="-31.493"/>
		<line fill="none" stroke="#000000" stroke-width="0.5" x1="76.83" y1="-35.827" x2="91.498" y2="-35.827"/>
		<line fill="none" stroke="#000000" stroke-width="0.5" x1="76.83" y1="-41.16" x2="91.498" y2="-41.16"/>
		<line fill="none" stroke="#000000" stroke-width="0.5" x1="79.496" y1="-38.494" x2="94.164" y2="-38.494"/>
		<line fill="none" stroke="#000000" stroke-width="0.5" x1="81.496" y1="-43.494" x2="96.164" y2="-43.494"/>
		<line fill="none" stroke="#000000" stroke-width="0.5" x1="49.832" y1="-21.16" x2="64.498" y2="-21.16"/>
		<line fill="none" stroke="#000000" stroke-width="0.5" x1="54.164" y1="-23.826" x2="68.83" y2="-23.826"/>
		<line fill="none" stroke="#000000" stroke-width="0.5" x1="53.498" y1="-28.493" x2="68.164" y2="-28.493"/>
		<line fill="none" stroke="#000000" stroke-width="0.5" x1="37.832" y1="-38.493" x2="52.5" y2="-38.493"/>
		<line fill="none" stroke="#000000" stroke-width="0.5" x1="62.83" y1="-37.335" x2="77.498" y2="-37.335"/>
		<line fill="none" stroke="#000000" stroke-width="0.5" x1="63.164" y1="-39.335" x2="77.83" y2="-39.335"/>
		<line fill="none" stroke="#000000" stroke-width="0.5" x1="68.664" y1="-53.501" x2="68.664" y2="-38.835"/>
		<line fill="none" stroke="#000000" stroke-width="0.5" x1="66.498" y1="-57.001" x2="66.498" y2="-42.335"/>
		<line fill="none" stroke="#000000" stroke-width="0.5" x1="60.164" y1="-51.332" x2="60.164" y2="-36.666"/>
		<line fill="none" stroke="#000000" stroke-width="0.5" x1="57.498" y1="-45.666" x2="72.164" y2="-45.666"/>
		<line fill="none" stroke="#000000" stroke-width="0.5" x1="60.164" y1="-54.335" x2="74.832" y2="-54.335"/>
		<line fill="none" stroke="#000000" stroke-width="0.5" x1="63.164" y1="-43.493" x2="77.832" y2="-43.493"/>
		<line fill="none" stroke="#000000" stroke-width="0.5" x1="80.164" y1="-76" x2="94.832" y2="-76"/>
		<line fill="none" stroke="#000000" stroke-width="0.5" x1="78.498" y1="-69.334" x2="93.164" y2="-69.334"/>
		<line fill="none" stroke="#000000" stroke-width="0.5" x1="15.5" y1="-80.168" x2="0.832" y2="-80.168"/>
		<line fill="none" stroke="#000000" stroke-width="0.5" x1="19" y1="-74.668" x2="4.332" y2="-74.668"/>
		<line fill="none" stroke="#000000" stroke-width="0.5" x1="1.164" y1="-66.493" x2="15.83" y2="-66.493"/>
		<line fill="none" stroke="#000000" stroke-width="0.5" x1="4.832" y1="-17.492" x2="19.498" y2="-17.492"/>
		<line fill="none" stroke="#000000" stroke-width="0.5" x1="1.164" y1="-12.826" x2="15.832" y2="-12.826"/>
		<line fill="none" stroke="#000000" stroke-width="0.5" x1="6.498" y1="-14.826" x2="21.166" y2="-14.826"/>
		<line fill="none" stroke="#000000" stroke-width="0.5" x1="1.832" y1="-19.826" x2="16.498" y2="-19.826"/>
		<line fill="none" stroke="#000000" stroke-width="0.5" x1="6.498" y1="-28.494" x2="21.166" y2="-28.494"/>
		<line fill="none" stroke="#000000" stroke-width="0.5" x1="3.164" y1="-24.16" x2="17.832" y2="-24.16"/>
		<line fill="none" stroke="#000000" stroke-width="0.5" x1="16.666" y1="-59.669" x2="2" y2="-59.669"/>
		<line fill="none" stroke="#000000" stroke-width="0.5" x1="17.166" y1="-56.169" x2="2.5" y2="-56.169"/>
		<line fill="none" stroke="#000000" stroke-width="0.5" x1="20.166" y1="-54.169" x2="5.5" y2="-54.169"/>
		<line fill="none" stroke="#000000" stroke-width="0.5" x1="5.832" y1="-64.335" x2="20.5" y2="-64.335"/>
		<line fill="none" stroke="#000000" stroke-width="0.5" x1="16.332" y1="-50.159" x2="1.666" y2="-50.159"/>
		<line fill="none" stroke="#000000" stroke-width="0.5" x1="20.332" y1="-48.159" x2="5.666" y2="-48.159"/>
		<line fill="none" stroke="#000000" stroke-width="0.5" x1="14.666" y1="-45.827" x2="0" y2="-45.827"/>
		<line fill="none" stroke="#000000" stroke-width="0.5" x1="2.832" y1="-31.493" x2="17.5" y2="-31.493"/>
		<line fill="none" stroke="#000000" stroke-width="0.5" x1="4.832" y1="-35.827" x2="19.498" y2="-35.827"/>
		<line fill="none" stroke="#000000" stroke-width="0.5" x1="4.832" y1="-41.16" x2="19.498" y2="-41.16"/>
		<line fill="none" stroke="#000000" stroke-width="0.5" x1="7.498" y1="-38.494" x2="22.164" y2="-38.494"/>
		<line fill="none" stroke="#000000" stroke-width="0.5" x1="9.498" y1="-43.494" x2="24.164" y2="-43.494"/>
		<line fill="none" stroke="#000000" stroke-width="0.5" x1="70.164" y1="-95.001" x2="70.164" y2="-80.334"/>
		<line fill="none" stroke="#000000" stroke-width="0.5" x1="76.998" y1="-91.002" x2="76.998" y2="-76.335"/>
		<line fill="none" stroke="#000000" stroke-width="0.5" x1="81.332" y1="-93.668" x2="81.332" y2="-79.002"/>
		<line fill="none" stroke="#000000" stroke-width="0.5" x1="30.998" y1="-96.167" x2="30.998" y2="-81.5"/>
		<line fill="none" stroke="#000000" stroke-width="0.5" x1="37.5" y1="-95.334" x2="37.5" y2="-80.667"/>
		<line fill="none" stroke="#000000" stroke-width="0.5" x1="44.834" y1="-95" x2="44.834" y2="-80.334"/>
		<line fill="none" stroke="#000000" stroke-width="0.5" x1="42.666" y1="-96.166" x2="42.666" y2="-81.5"/>
		<line fill="none" stroke="#000000" stroke-width="0.5" x1="59.664" y1="-89.334" x2="59.664" y2="-74.667"/>
		<line fill="none" stroke="#000000" stroke-width="0.5" x1="50.666" y1="-91.334" x2="50.666" y2="-76.668"/>
		<line fill="none" stroke="#000000" stroke-width="0.5" x1="24.666" y1="-18.166" x2="24.666" y2="-3.498"/>
		<line fill="none" stroke="#000000" stroke-width="0.5" x1="22" y1="-20.5" x2="22" y2="-5.832"/>
		<line fill="none" stroke="#000000" stroke-width="0.5" x1="74.998" y1="-14.666" x2="74.998" y2="0"/>
		<line fill="none" stroke="#000000" stroke-width="0.5" x1="72.498" y1="-15.332" x2="72.498" y2="-0.666"/>
		<line fill="none" stroke="#000000" stroke-width="0.5" x1="49.166" y1="-14.666" x2="49.166" y2="0"/>
		<line fill="none" stroke="#000000" stroke-width="0.5" x1="80.332" y1="-14.666" x2="80.332" y2="0"/>
		<line fill="none" stroke="#000000" stroke-width="0.5" x1="54.832" y1="-16.5" x2="54.832" y2="-1.832"/>
		<line fill="none" stroke="#000000" stroke-width="0.5" x1="28.498" y1="-15.334" x2="28.498" y2="-0.666"/>
		<line fill="none" stroke="#000000" stroke-width="0.5" x1="13.498" y1="-15.5" x2="13.498" y2="-0.832"/>
		<line fill="none" stroke="#000000" stroke-width="0.5" x1="18.498" y1="-17.5" x2="18.498" y2="-2.832"/>
		<line fill="none" stroke="#000000" stroke-width="0.5" x1="46.5" y1="-14.666" x2="46.5" y2="0"/>
		<line fill="none" stroke="#000000" stroke-width="0.5" x1="70.164" y1="-23" x2="70.164" y2="-8.334"/>
		<line fill="none" stroke="#000000" stroke-width="0.5" x1="44.834" y1="-23" x2="44.834" y2="-8.332"/>
	</g>
</pattern>
<g>
	<polygon fill="#141414" points="960,388.922 1920,525 1920,2.852 0,2.851 0,525 	"/>
	<polygon fill="#0D0D0D" points="960,388.922 1920,525 1920,0.017 0,0.016 0,525 	"/>
	<g>
		<polygon fill="url(#Toile)" points="960,388.922 1920,525 1920,0.001 0,0 0,525 		"/>
		<g>
			<image overflow="visible" width="1921" height="526.076" xlink:href="66CEB645.png"  transform="matrix(1 0 0 1 -0.4998 -0.5)"/>
		</g>
	</g>
</g>
</svg>
