<?xml version="1.0" encoding="utf-8"?>
<!-- Generator: Adobe Illustrator 16.0.0, SVG Export Plug-In . SVG Version: 6.00 Build 0)  -->
<!DOCTYPE svg PUBLIC "-//W3C//DTD SVG 1.1//EN" "http://www.w3.org/Graphics/SVG/1.1/DTD/svg11.dtd">
<svg version="1.1" id="Calque_1" xmlns="http://www.w3.org/2000/svg" xmlns:xlink="http://www.w3.org/1999/xlink" x="0px" y="0px"
	 width="1057px" height="490px" viewBox="0 0 1057 490" enable-background="new 0 0 1057 490" xml:space="preserve">
<g>
	<defs>
		<polygon id="SVGID_1_" points="2,0.73 2,490 4.407,490 1058.477,490 		"/>
	</defs>
	<clipPath id="SVGID_2_">
		<use xlink:href="#SVGID_1_"  overflow="visible"/>
	</clipPath>
	<g clip-path="url(#SVGID_2_)">
		<g>
			<path fill="#141414" d="M320.566,254.703c-16.403-5.753-34.443,2.947-40.212,19.391c-5.769,16.444,2.886,34.509,19.288,40.263
				c16.405,5.753,34.447-2.945,40.216-19.39C345.627,278.521,336.972,260.457,320.566,254.703 M305.468,297.747
				c-7.267-2.548-11.103-10.558-8.547-17.842c2.556-7.287,10.551-11.139,17.819-8.59c7.27,2.552,11.106,10.552,8.551,17.839
				C320.735,296.438,312.739,300.298,305.468,297.747"/>
			<path fill="#141414" d="M398.483,321.616l20.312,0.252l3.923-14.271l-17.593-10.145c0.57-4.074,0.882-8.212,0.927-12.407
				l19.165-7.46l-1.734-14.691l-20.363-2.715c-1.125-4.483-2.556-8.821-4.255-13.009l14.552-14.215l-7.296-12.847l-19.625,5.299
				c-2.502-3.313-5.204-6.449-8.09-9.4l8.155-18.672l-11.593-9.146l-16.208,12.323c-3.897-2.33-7.968-4.394-12.176-6.163
				l0.276-20.356l-14.239-3.902l-10.148,17.643c-4.064-0.563-8.197-0.873-12.384-0.912l-7.415-19.186l-14.667,1.755l-2.739,20.413
				c-4.473,1.133-8.814,2.568-12.992,4.283l-14.162-14.567l-12.842,7.337l5.27,19.656c-3.313,2.513-6.449,5.222-9.399,8.118
				l-18.624-8.145l-9.143,11.634l12.277,16.222c-2.332,3.906-4.404,7.986-6.173,12.208l-20.315-0.241l-3.918,14.268l17.59,10.143
				c-0.568,4.076-0.881,8.216-0.926,12.408l-19.164,7.457l1.73,14.692l20.37,2.719c1.124,4.481,2.548,8.822,4.252,13.007
				l-14.555,14.214l7.299,12.854l19.627-5.305c2.495,3.312,5.201,6.446,8.089,9.402l-8.16,18.67l11.595,9.142l16.21-12.321
				c3.896,2.327,7.967,4.394,12.174,6.163l-0.274,20.357l14.236,3.903l10.15-17.643c4.067,0.563,8.195,0.873,12.379,0.914
				l7.417,19.187l14.671-1.759l2.737-20.411c4.477-1.131,8.813-2.571,12.996-4.287l14.158,14.565l12.836-7.33l-5.26-19.659
				c3.313-2.509,6.447-5.223,9.391-8.12l18.627,8.145l9.146-11.628l-12.275-16.222C394.643,329.92,396.708,325.842,398.483,321.616
				 M284.21,354.705c-38.905-13.646-59.354-56.327-45.673-95.328c13.681-39.002,56.311-59.557,95.215-45.911
				c38.902,13.646,59.352,56.328,45.672,95.328C365.744,347.797,323.113,368.352,284.21,354.705"/>
		</g>
		<g>
			<path fill="#141414" d="M108.096-185.944c-16.4-5.754-34.441,2.946-40.211,19.391c-5.768,16.446,2.886,34.508,19.288,40.262
				c16.405,5.755,34.449-2.943,40.218-19.39C133.159-162.127,124.503-180.189,108.096-185.944 M92.999-142.904
				c-7.267-2.548-11.101-10.555-8.546-17.839c2.557-7.286,10.551-11.14,17.816-8.59c7.273,2.55,11.105,10.552,8.549,17.838
				C108.264-144.211,100.272-140.353,92.999-142.904"/>
			<path fill="#141414" d="M186.016-119.028l20.311,0.248l3.924-14.271l-17.593-10.146c0.568-4.07,0.881-8.209,0.924-12.403
				l19.168-7.463l-1.735-14.688l-20.363-2.721c-1.125-4.479-2.555-8.82-4.256-13.007l14.556-14.212l-7.298-12.851l-19.626,5.299
				c-2.501-3.311-5.204-6.45-8.09-9.396l8.157-18.674l-11.596-9.144l-16.207,12.324c-3.898-2.331-7.969-4.397-12.177-6.165
				l0.278-20.357l-14.24-3.901l-10.15,17.639c-4.063-0.562-8.194-0.869-12.382-0.909l-7.415-19.185l-14.664,1.754l-2.743,20.414
				c-4.473,1.134-8.813,2.566-12.991,4.281l-14.16-14.563l-12.844,7.332l5.27,19.657c-3.312,2.512-6.446,5.225-9.397,8.12
				L10.05-234.16l-9.143,11.632l12.274,16.224c-2.332,3.902-4.4,7.988-6.17,12.206l-20.313-0.241l-3.923,14.27L0.367-169.93
				c-0.567,4.074-0.881,8.213-0.926,12.41l-19.165,7.46l1.731,14.688l20.369,2.721c1.124,4.477,2.551,8.82,4.252,13.005
				L-7.924-105.43l7.299,12.85L19-97.884c2.497,3.313,5.203,6.45,8.088,9.402L18.93-69.81l11.595,9.144l16.21-12.325
				c3.896,2.331,7.966,4.394,12.174,6.163l-0.275,20.36l14.24,3.9l10.148-17.641c4.066,0.562,8.194,0.871,12.377,0.912l7.422,19.187
				l14.668-1.76l2.736-20.408c4.477-1.131,8.811-2.57,12.995-4.286l14.158,14.564l12.841-7.33l-5.261-19.658
				c3.306-2.509,6.446-5.222,9.39-8.121l18.625,8.147l9.146-11.633l-12.276-16.222C182.175-110.729,184.238-114.802,186.016-119.028
				 M71.742-85.943c-38.907-13.647-59.351-56.327-45.671-95.327c13.681-39.001,56.306-59.559,95.212-45.912
				c38.903,13.646,59.354,56.328,45.674,95.33C153.277-92.853,110.645-72.298,71.742-85.943"/>
		</g>
		<g>
			<path fill="#141414" d="M128.625,5.303c-6.861-2.408-14.408,1.229-16.82,8.107c-2.414,6.882,1.206,14.437,8.068,16.843
				c6.863,2.407,14.408-1.23,16.822-8.112C139.109,15.262,135.488,7.71,128.625,5.303 M122.311,23.304
				c-3.04-1.065-4.643-4.414-3.574-7.462c1.07-3.049,4.411-4.659,7.451-3.592c3.043,1.066,4.646,4.411,3.576,7.46
				C128.695,22.758,125.353,24.372,122.311,23.304"/>
			<path fill="#141414" d="M161.219,33.29l8.496,0.104l1.642-5.969l-7.36-4.243c0.238-1.704,0.367-3.434,0.387-5.188l8.018-3.122
				l-0.727-6.146l-8.52-1.136c-0.467-1.874-1.064-3.688-1.779-5.441l6.089-5.945l-3.052-5.375l-8.207,2.218
				c-1.049-1.386-2.178-2.697-3.386-3.933l3.414-7.811l-4.854-3.826l-6.778,5.156c-1.631-0.975-3.333-1.84-5.094-2.577l0.115-8.515
				l-5.955-1.635l-4.246,7.38c-1.699-0.235-3.428-0.365-5.177-0.382l-3.106-8.023l-6.132,0.732l-1.146,8.54
				c-1.871,0.474-3.686,1.075-5.437,1.792l-5.92-6.094l-5.375,3.067l2.206,8.225c-1.386,1.05-2.696,2.181-3.931,3.395l-7.791-3.405
				l-3.824,4.864l5.133,6.786c-0.973,1.632-1.841,3.34-2.58,5.108l-8.498-0.106l-1.638,5.972L83.561,12
				c-0.236,1.704-0.367,3.435-0.385,5.19l-8.018,3.119l0.726,6.146l8.521,1.136c0.468,1.874,1.065,3.693,1.778,5.443l-6.086,5.943
				l3.05,5.377l8.21-2.22c1.046,1.386,2.175,2.697,3.383,3.934l-3.413,7.81l4.854,3.828l6.779-5.158
				c1.63,0.975,3.332,1.838,5.092,2.581l-0.115,8.513l5.954,1.632l4.247-7.379c1.698,0.235,3.428,0.365,5.176,0.384l3.105,8.023
				l6.135-0.734l1.146-8.538c1.87-0.473,3.685-1.074,5.437-1.792l5.919,6.09l5.371-3.065l-2.199-8.221
				c1.386-1.051,2.695-2.187,3.927-3.398l7.792,3.407l3.824-4.864l-5.133-6.785C159.611,36.764,160.473,35.058,161.219,33.29
				 M113.418,47.131C97.145,41.423,88.591,23.57,94.313,7.256c5.724-16.313,23.555-24.913,39.828-19.205
				c16.273,5.709,24.827,23.563,19.105,39.876C147.522,44.241,129.691,52.839,113.418,47.131"/>
		</g>
		<g>
			<path fill="#141414" d="M-539.49,257.718c-9.87-3.463-20.726,1.772-24.196,11.667c-3.472,9.896,1.735,20.764,11.605,24.226
				c9.874,3.464,20.728-1.77,24.2-11.666C-524.41,272.049-529.616,261.18-539.49,257.718 M-548.574,283.617
				c-4.373-1.534-6.684-6.351-5.145-10.736c1.539-4.388,6.351-6.702,10.723-5.169c4.376,1.535,6.684,6.347,5.145,10.734
				C-539.391,282.832-544.198,285.152-548.574,283.617"/>
			<path fill="#141414" d="M-492.603,297.983l12.226,0.153l2.361-8.59l-10.589-6.106c0.344-2.45,0.531-4.94,0.558-7.466
				l11.532-4.489l-1.042-8.841l-12.254-1.633c-0.678-2.697-1.538-5.309-2.563-7.828l8.758-8.556l-4.39-7.729l-11.81,3.188
				c-1.507-1.991-3.133-3.88-4.869-5.655l4.91-11.236l-6.98-5.506l-9.75,7.418c-2.347-1.404-4.795-2.646-7.33-3.707l0.167-12.251
				l-8.568-2.35l-6.106,10.614c-2.444-0.337-4.932-0.523-7.451-0.548l-4.465-11.541l-8.824,1.054l-1.648,12.284
				c-2.691,0.682-5.304,1.546-7.818,2.576l-8.52-8.765l-7.729,4.413l3.168,11.828c-1.991,1.513-3.88,3.145-5.653,4.886l-11.209-4.9
				l-5.499,7.001l7.386,9.762c-1.402,2.352-2.65,4.808-3.715,7.348l-12.225-0.148l-2.356,8.586l10.583,6.106
				c-0.341,2.452-0.532,4.942-0.559,7.468l-11.531,4.486l1.04,8.842l12.261,1.635c0.677,2.697,1.533,5.307,2.557,7.826l-8.756,8.556
				l4.391,7.733l11.811-3.193c1.504,1.993,3.131,3.884,4.868,5.66l-4.91,11.233l6.979,5.506l9.753-7.418
				c2.345,1.401,4.793,2.643,7.325,3.711l-0.164,12.248l8.567,2.351l6.105-10.618c2.447,0.339,4.935,0.526,7.452,0.548l4.464,11.549
				l8.83-1.061l1.646-12.28c2.693-0.681,5.303-1.546,7.818-2.58l8.52,8.767l7.725-4.414l-3.164-11.827
				c1.99-1.511,3.879-3.144,5.648-4.891l11.212,4.903l5.503-7l-7.385-9.762C-494.912,302.98-493.67,300.525-492.603,297.983
				 M-561.365,317.894c-23.414-8.213-35.716-33.896-27.484-57.363c8.232-23.47,33.883-35.842,57.297-27.629
				c23.408,8.212,35.713,33.896,27.48,57.366C-512.305,313.734-537.957,326.105-561.365,317.894"/>
		</g>
		<g>
			<path fill="#141414" d="M1047.473,507.122c-6.86-2.406-14.406,1.229-16.82,8.108c-2.412,6.881,1.208,14.438,8.068,16.842
				c6.865,2.407,14.407-1.232,16.82-8.11C1057.954,517.08,1054.338,509.529,1047.473,507.122 M1041.157,525.123
				c-3.038-1.065-4.644-4.412-3.575-7.462c1.069-3.05,4.414-4.659,7.452-3.592c3.046,1.066,4.648,4.411,3.579,7.462
				C1047.543,524.58,1044.202,526.191,1041.157,525.123"/>
			<path fill="#141414" d="M1080.067,535.109l8.496,0.105l1.641-5.97l-7.358-4.244c0.236-1.702,0.367-3.434,0.384-5.188l8.019-3.122
				l-0.726-6.143l-8.517-1.138c-0.47-1.876-1.072-3.688-1.779-5.441l6.086-5.946l-3.051-5.372l-8.211,2.213
				c-1.048-1.384-2.178-2.695-3.381-3.929l3.412-7.811l-4.851-3.827l-6.78,5.157c-1.632-0.977-3.334-1.84-5.094-2.579l0.114-8.517
				l-5.956-1.632l-4.245,7.379c-1.698-0.235-3.428-0.365-5.177-0.381l-3.104-8.023l-6.133,0.731l-1.149,8.54
				c-1.869,0.476-3.685,1.075-5.433,1.792l-5.922-6.092l-5.374,3.067l2.203,8.223c-1.386,1.05-2.697,2.183-3.93,3.395l-7.791-3.405
				l-3.823,4.865l5.131,6.787c-0.971,1.632-1.837,3.34-2.577,5.106l-8.498-0.104l-1.638,5.97l7.354,4.242
				c-0.234,1.705-0.367,3.435-0.385,5.192l-8.017,3.119l0.724,6.144l8.52,1.138c0.47,1.873,1.066,3.691,1.778,5.441l-6.086,5.943
				l3.053,5.377l8.207-2.22c1.047,1.387,2.18,2.698,3.384,3.936l-3.412,7.808l4.85,3.826l6.782-5.156
				c1.63,0.975,3.332,1.841,5.092,2.58l-0.113,8.516l5.954,1.631l4.246-7.38c1.699,0.235,3.428,0.365,5.177,0.384l3.104,8.025
				l6.134-0.736l1.146-8.536c1.872-0.474,3.685-1.076,5.435-1.794l5.923,6.092l5.369-3.067l-2.199-8.221
				c1.386-1.052,2.697-2.185,3.929-3.396l7.79,3.407l3.825-4.866l-5.134-6.785C1078.46,538.583,1079.325,536.878,1080.067,535.109
				 M1032.266,548.952c-16.27-5.708-24.826-23.563-19.104-39.877c5.722-16.313,23.557-24.911,39.827-19.203
				c16.271,5.707,24.826,23.561,19.104,39.875C1066.371,546.061,1048.538,554.659,1032.266,548.952"/>
		</g>
		<g>
			<path fill="#141414" d="M-310.004-225.003c-29.378-10.306-61.693,5.274-72.026,34.729c-10.331,29.457,5.171,61.808,34.55,72.113
				c29.385,10.308,61.701-5.271,72.034-34.727C-265.114-182.343-280.619-214.695-310.004-225.003 M-337.047-147.907
				c-13.014-4.564-19.885-18.906-15.308-31.956c4.578-13.054,18.901-19.952,31.914-15.386c13.022,4.567,19.894,18.899,15.315,31.953
				C-309.701-150.248-324.024-143.34-337.047-147.907"/>
			<path fill="#141414" d="M-170.439-105.149l36.382,0.451l7.023-25.563l-31.511-18.175c1.024-7.293,1.582-14.708,1.66-22.219
				l34.332-13.368l-3.11-26.308l-36.47-4.868c-2.018-8.029-4.58-15.8-7.627-23.297l26.066-25.464l-13.068-23.014l-35.15,9.496
				c-4.479-5.937-9.321-11.555-14.492-16.84l14.611-33.444l-20.768-16.381l-29.029,22.075c-6.981-4.175-14.27-7.872-21.811-11.039
				l0.494-36.462l-25.506-6.991l-18.178,31.597c-7.277-1.006-14.682-1.56-22.18-1.63l-13.281-34.365l-26.269,3.144l-4.911,36.565
				c-8.008,2.026-15.785,4.598-23.27,7.668l-25.363-26.085l-23.002,13.136l9.436,35.206c-5.932,4.501-11.548,9.358-16.834,14.542
				l-33.358-14.588L-502-290.536l21.988,29.062c-4.18,6.993-7.881,14.309-11.057,21.865l-36.383-0.435l-7.021,25.56l31.508,18.167
				c-1.019,7.298-1.581,14.712-1.657,22.225l-34.331,13.358l3.105,26.317l36.482,4.868c2.013,8.023,4.567,15.8,7.619,23.294
				l-26.07,25.462l13.07,23.021l35.156-9.504c4.476,5.938,9.317,11.553,14.482,16.845l-14.611,33.442l20.773,16.379l29.031-22.077
				c6.979,4.175,14.27,7.873,21.807,11.045l-0.492,36.46l25.501,6.99l18.183-31.595c7.279,1.001,14.678,1.56,22.167,1.634
				l13.292,34.366l26.272-3.153l4.907-36.554c8.014-2.028,15.779-4.607,23.275-7.679l25.359,26.089l22.997-13.134l-9.425-35.209
				c5.93-4.492,11.549-9.356,16.82-14.545l33.365,14.591l16.375-20.835l-21.984-29.054
				C-177.318-90.278-173.623-97.581-170.439-105.149 M-375.123-45.885c-69.684-24.442-106.31-100.89-81.807-170.746
				c24.504-69.86,100.86-106.679,170.545-82.236c69.68,24.442,106.312,100.894,81.807,170.752
				C-229.08-58.26-305.443-21.442-375.123-45.885"/>
		</g>
		<g>
			<path fill="#141414" d="M782.109,371.782c-22.855-8.017-47.993,4.106-56.03,27.02c-8.037,22.915,4.02,48.083,26.874,56.1
				c22.863,8.02,48-4.104,56.037-27.017C817.028,404.972,804.972,379.802,782.109,371.782 M761.072,431.759
				c-10.122-3.551-15.469-14.709-11.908-24.86c3.562-10.152,14.704-15.521,24.826-11.971c10.134,3.554,15.477,14.704,11.914,24.858
				C782.344,429.938,771.205,435.313,761.072,431.759"/>
			<path fill="#141414" d="M890.685,465.025l28.301,0.348l5.466-19.886l-24.514-14.137c0.797-5.675,1.23-11.444,1.289-17.287
				l26.708-10.397l-2.418-20.469l-28.373-3.787c-1.565-6.243-3.561-12.292-5.933-18.124l20.279-19.809l-10.165-17.904l-27.346,7.387
				c-3.487-4.616-7.253-8.987-11.276-13.097l11.369-26.018l-16.156-12.742l-22.585,17.169c-5.433-3.247-11.102-6.124-16.964-8.589
				l0.381-28.365l-19.84-5.436l-14.143,24.577c-5.664-0.78-11.42-1.209-17.254-1.264l-10.333-26.734l-20.434,2.444l-3.824,28.447
				c-6.228,1.574-12.277,3.573-18.101,5.965l-19.73-20.293l-17.896,10.217l7.342,27.389c-4.616,3.502-8.985,7.281-13.098,11.314
				l-25.95-11.35l-12.74,16.207l17.103,22.606c-3.249,5.442-6.13,11.13-8.6,17.013l-28.306-0.34l-5.459,19.886l24.51,14.13
				c-0.791,5.681-1.229,11.446-1.29,17.292l-26.702,10.393l2.412,20.471l28.381,3.79c1.568,6.238,3.553,12.29,5.926,18.12
				l-20.279,19.81l10.167,17.905l27.351-7.392c3.479,4.619,7.251,8.984,11.27,13.104l-11.369,26.018l16.159,12.739l22.583-17.174
				c5.432,3.247,11.104,6.126,16.967,8.592l-0.385,28.367l19.84,5.438l14.145-24.583c5.662,0.782,11.418,1.216,17.246,1.272
				l10.342,26.736l20.438-2.455l3.815-28.438c6.235-1.578,12.276-3.581,18.106-5.974l19.728,20.296l17.892-10.217l-7.33-27.389
				c4.611-3.494,8.981-7.281,13.084-11.316l25.957,11.352l12.738-16.208l-17.102-22.6
				C885.33,476.589,888.208,470.912,890.685,465.025 M731.448,511.129c-54.209-19.015-82.7-78.487-63.638-132.833
				c19.063-54.348,78.463-82.989,132.672-63.977c54.209,19.017,82.708,78.49,63.645,132.836
				C845.064,501.501,785.659,530.144,731.448,511.129"/>
		</g>
		<g>
			<path fill="#141414" d="M38.02,83.759l21.557,0.268l4.157-15.15L45.066,58.113c0.601-4.324,0.938-8.712,0.979-13.173
				l20.346-7.913l-1.845-15.593l-21.609-2.887c-1.197-4.758-2.705-9.36-4.521-13.803l15.452-15.086l-7.753-13.641l-20.828,5.627
				c-2.646-3.513-5.518-6.841-8.578-9.976l8.652-19.818L13.05-57.856L-4.146-44.771c-4.134-2.477-8.453-4.666-12.919-6.54
				l0.29-21.607l-15.113-4.148L-42.66-58.338c-4.31-0.6-8.693-0.92-13.138-0.961l-7.868-20.366l-15.564,1.861l-2.919,21.67
				c-4.743,1.194-9.352,2.724-13.788,4.543l-15.021-15.459l-13.636,7.786l5.601,20.856c-3.514,2.674-6.845,5.544-9.98,8.62
				l-19.768-8.647l-9.702,12.343l13.03,17.219c-2.471,4.153-4.674,8.481-6.555,12.955l-21.557-0.258l-4.16,15.151l18.67,10.762
				c-0.611,4.32-0.941,8.717-0.982,13.174l-20.343,7.912l1.833,15.592l21.621,2.882c1.189,4.758,2.702,9.363,4.523,13.809
				l-15.451,15.081l7.738,13.641l20.826-5.627c2.656,3.518,5.535,6.844,8.588,9.982l-8.65,19.814l12.297,9.701l17.211-13.081
				c4.135,2.482,8.453,4.665,12.916,6.548l-0.293,21.604l15.11,4.144l10.774-18.725c4.318,0.594,8.701,0.923,13.141,0.965
				l7.87,20.367l15.572-1.872l2.909-21.658c4.748-1.199,9.354-2.726,13.785-4.552L-2.988,154.9l13.622-7.787l-5.583-20.86
				c3.504-2.665,6.844-5.538,9.967-8.622l19.766,8.649l9.713-12.34L31.463,96.722C33.941,92.572,36.127,88.246,38.02,83.759
				 M-69.477,79.569c-19.639-6.89-29.965-28.432-23.06-48.121C-85.632,11.767-64.11,1.392-44.472,8.281
				c19.632,6.886,29.959,28.431,23.056,48.114C-28.322,76.084-49.846,86.455-69.477,79.569"/>
		</g>
		<g>
			<path fill="#141414" d="M645.678,252.703l21.555,0.27l4.158-15.15l-18.668-10.765c0.597-4.322,0.939-8.712,0.979-13.169
				l20.348-7.915l-1.848-15.591l-21.611-2.892c-1.194-4.756-2.705-9.359-4.518-13.802l15.453-15.084l-7.756-13.643l-20.824,5.627
				c-2.65-3.512-5.521-6.837-8.581-9.974l8.655-19.815l-12.317-9.712l-17.189,13.086c-4.138-2.476-8.456-4.666-12.925-6.539
				l0.292-21.611l-15.11-4.145l-10.775,18.728c-4.308-0.599-8.691-0.922-13.135-0.96l-7.871-20.365l-15.563,1.86l-2.914,21.669
				c-4.751,1.195-9.357,2.723-13.79,4.542l-15.025-15.457l-13.633,7.786l5.596,20.854c-3.514,2.674-6.842,5.546-9.979,8.622
				l-19.77-8.648l-9.702,12.344l13.032,17.221c-2.469,4.15-4.674,8.478-6.552,12.952l-21.559-0.259l-4.16,15.153l18.672,10.76
				c-0.61,4.321-0.941,8.717-0.984,13.176l-20.342,7.91l1.834,15.594l21.619,2.881c1.188,4.755,2.704,9.364,4.52,13.809
				l-15.449,15.081l7.741,13.643l20.826-5.626c2.657,3.514,5.531,6.842,8.587,9.979l-8.65,19.813l12.3,9.702l17.211-13.083
				c4.133,2.484,8.452,4.67,12.912,6.551l-0.293,21.604l15.113,4.142l10.773-18.725c4.318,0.598,8.699,0.925,13.141,0.966
				l7.873,20.367l15.568-1.871l2.911-21.658c4.747-1.2,9.351-2.728,13.783-4.552l15.031,15.462l13.623-7.784l-5.583-20.864
				c3.505-2.663,6.844-5.537,9.963-8.622l19.77,8.649l9.713-12.338l-13.033-17.22C641.601,261.518,643.785,257.19,645.678,252.703
				 M538.18,248.517c-19.639-6.889-29.966-28.434-23.06-48.121c6.903-19.682,28.427-30.058,48.065-23.169
				c19.631,6.885,29.955,28.434,23.053,48.115C579.332,245.028,557.81,255.401,538.18,248.517"/>
		</g>
		<g>
			<path fill="#141414" d="M174.505,297.348l7.242,0.091l1.394-5.088l-6.27-3.617c0.203-1.451,0.314-2.926,0.33-4.42l6.832-2.657
				l-0.619-5.239l-7.258-0.971c-0.401-1.597-0.91-3.143-1.521-4.636l5.193-5.066l-2.606-4.58l-6.994,1.891
				c-0.887-1.18-1.854-2.298-2.879-3.351l2.904-6.655l-4.135-3.26l-5.775,4.395c-1.389-0.833-2.842-1.569-4.341-2.2l0.101-7.255
				l-5.076-1.393l-3.619,6.291c-1.447-0.204-2.92-0.31-4.412-0.325l-2.642-6.84l-5.228,0.626l-0.979,7.278
				c-1.595,0.4-3.143,0.912-4.63,1.525l-5.047-5.19l-4.58,2.613l1.879,7.006c-1.179,0.896-2.295,1.862-3.352,2.896l-6.639-2.903
				l-3.257,4.145l4.376,5.779c-0.83,1.396-1.567,2.851-2.201,4.354l-7.241-0.086l-1.396,5.088l6.271,3.612
				c-0.205,1.451-0.317,2.93-0.331,4.428l-6.83,2.656l0.614,5.237l7.261,0.968c0.4,1.595,0.908,3.143,1.52,4.638l-5.189,5.064
				l2.602,4.58l6.991-1.891c0.894,1.182,1.86,2.299,2.883,3.352l-2.901,6.655l4.129,3.258l5.78-4.392
				c1.389,0.833,2.841,1.567,4.337,2.199l-0.097,7.254l5.075,1.392l3.615-6.285c1.451,0.197,2.926,0.31,4.413,0.321l2.645,6.841
				l5.229-0.626l0.979-7.277c1.592-0.402,3.141-0.915,4.63-1.527l5.047,5.19l4.576-2.612l-1.877-7.008
				c1.179-0.896,2.298-1.859,3.349-2.896l6.641,2.906l3.262-4.146l-4.38-5.782C173.135,300.307,173.871,298.855,174.505,297.348
				 M138.4,295.939c-6.593-2.311-10.063-9.548-7.744-16.16c2.319-6.608,9.549-10.093,16.143-7.779
				c6.596,2.313,10.064,9.549,7.745,16.16C152.225,294.772,144.996,298.254,138.4,295.939"/>
		</g>
		<g>
			<path fill="#141414" d="M903.373,242.297l8.369,0.104l1.61-5.879l-7.244-4.18c0.232-1.678,0.364-3.382,0.38-5.112l7.898-3.072
				l-0.716-6.054l-8.391-1.122c-0.464-1.846-1.047-3.632-1.756-5.357l6.002-5.853l-3.011-5.296l-8.082,2.185
				c-1.028-1.364-2.146-2.656-3.332-3.871l3.358-7.694l-4.778-3.766l-6.674,5.078c-1.607-0.961-3.285-1.812-5.02-2.542l0.115-8.386
				l-5.868-1.609l-4.181,7.268c-1.672-0.231-3.375-0.355-5.1-0.37l-3.052-7.906l-6.043,0.722l-1.134,8.412
				c-1.839,0.465-3.628,1.056-5.35,1.762l-5.829-5.999l-5.298,3.021l2.176,8.099c-1.364,1.036-2.656,2.151-3.874,3.343l-7.675-3.355
				l-3.764,4.791l5.059,6.684c-0.959,1.613-1.813,3.294-2.547,5.03l-8.367-0.102l-1.612,5.881l7.246,4.179
				c-0.237,1.676-0.366,3.384-0.383,5.113l-7.894,3.071l0.712,6.053l8.393,1.119c0.46,1.846,1.047,3.632,1.755,5.358l-6,5.854
				l3.004,5.295l8.086-2.183c1.031,1.365,2.147,2.655,3.33,3.872l-3.354,7.693l4.771,3.765l6.685-5.076
				c1.603,0.961,3.276,1.811,5.011,2.54l-0.111,8.387l5.862,1.605l4.183-7.265c1.675,0.229,3.377,0.357,5.102,0.371l3.054,7.907
				l6.046-0.726l1.129-8.408c1.842-0.467,3.63-1.056,5.352-1.765l5.834,6.002l5.286-3.023l-2.167-8.1
				c1.363-1.032,2.657-2.149,3.871-3.345l7.671,3.355l3.773-4.79l-5.063-6.683C901.789,245.718,902.64,244.04,903.373,242.297
				 M861.646,240.671c-7.621-2.674-11.628-11.036-8.946-18.68c2.68-7.64,11.031-11.666,18.653-8.992
				c7.621,2.673,11.627,11.036,8.948,18.674C877.619,239.316,869.268,243.345,861.646,240.671"/>
		</g>
		<g>
			<path fill="#141414" d="M300.354,473.041l9.238,0.116l1.781-6.493l-8.001-4.613c0.262-1.852,0.404-3.734,0.422-5.643l8.719-3.394
				l-0.791-6.683l-9.262-1.238c-0.512-2.039-1.159-4.012-1.936-5.913l6.621-6.465l-3.322-5.846l-8.926,2.409
				c-1.133-1.505-2.365-2.932-3.676-4.273l3.709-8.492l-5.281-4.161l-7.365,5.607c-1.772-1.062-3.622-1.999-5.537-2.802l0.122-9.262
				l-6.476-1.776l-4.617,8.023c-1.843-0.255-3.725-0.392-5.629-0.411l-3.371-8.728l-6.67,0.797l-1.252,9.288
				c-2.034,0.512-4.007,1.17-5.909,1.945l-6.437-6.624l-5.843,3.338l2.397,8.938c-1.506,1.146-2.932,2.374-4.279,3.693l-8.471-3.704
				l-4.155,5.29l5.583,7.379c-1.059,1.78-2.003,3.635-2.809,5.552l-9.238-0.11l-1.785,6.491l8.003,4.611
				c-0.261,1.853-0.402,3.736-0.417,5.648l-8.719,3.39l0.783,6.682l9.267,1.236c0.511,2.039,1.159,4.012,1.937,5.918l-6.62,6.464
				l3.315,5.844l8.926-2.411c1.138,1.508,2.371,2.932,3.68,4.276l-3.707,8.494l5.27,4.158l7.379-5.608
				c1.771,1.064,3.619,2.001,5.531,2.808l-0.124,9.257l6.478,1.775l4.615-8.021c1.852,0.252,3.73,0.394,5.633,0.41l3.373,8.73
				l6.673-0.802l1.247-9.283c2.037-0.515,4.01-1.167,5.906-1.948l6.443,6.627l5.838-3.338l-2.393-8.942
				c1.502-1.142,2.931-2.372,4.268-3.694l8.475,3.707l4.16-5.29l-5.585-7.379C298.608,476.818,299.543,474.964,300.354,473.041
				 M254.287,471.244c-8.418-2.952-12.846-12.184-9.886-20.62c2.959-8.438,12.184-12.882,20.601-9.928
				c8.412,2.949,12.841,12.184,9.882,20.62S262.699,474.195,254.287,471.244"/>
		</g>
		<g>
			<path fill="#141414" d="M200.297,184.154l14.399,0.18l2.78-10.114l-12.471-7.188c0.402-2.887,0.627-5.816,0.664-8.793
				l13.578-5.287l-1.23-10.415l-14.432-1.923c-0.796-3.181-1.814-6.257-3.018-9.218l10.314-10.077l-5.166-9.105l-13.91,3.759
				c-1.77-2.353-3.691-4.575-5.742-6.666l5.787-13.236l-8.221-6.483l-11.484,8.738c-2.767-1.648-5.645-3.118-8.627-4.37
				l0.189-14.425l-10.092-2.766l-7.19,12.499c-2.882-0.394-5.807-0.617-8.781-0.642l-5.255-13.598l-10.393,1.244l-1.943,14.468
				c-3.173,0.796-6.246,1.822-9.203,3.035l-10.034-10.329l-9.108,5.2l3.734,13.932c-2.344,1.786-4.57,3.702-6.656,5.756
				l-13.205-5.771l-6.474,8.245l8.689,11.501c-1.652,2.763-3.116,5.657-4.366,8.649l-14.402-0.17l-2.78,10.114l12.474,7.186
				c-0.404,2.89-0.629,5.819-0.657,8.793l-13.589,5.293l1.23,10.409l14.436,1.926c0.795,3.172,1.809,6.253,3.013,9.216
				l-10.313,10.074l5.167,9.115l13.916-3.764c1.766,2.35,3.686,4.565,5.733,6.669l-5.784,13.228l8.221,6.483l11.486-8.739
				c2.764,1.659,5.645,3.117,8.627,4.374l-0.189,14.426l10.088,2.772l7.195-12.513c2.882,0.4,5.807,0.613,8.775,0.651l5.254,13.599
				l10.396-1.249l1.941-14.465c3.176-0.802,6.244-1.819,9.214-3.041l10.038,10.328l9.092-5.202l-3.729-13.93
				c2.351-1.782,4.571-3.7,6.657-5.76l13.2,5.784l6.481-8.25l-8.701-11.494C197.584,190.043,199.041,187.156,200.297,184.154
				 M115.736,217.779c-33.175-11.638-50.609-48.035-38.944-81.294c11.667-33.259,48.019-50.794,81.194-39.158
				c33.18,11.639,50.613,48.042,38.947,81.301C185.268,211.886,148.916,229.416,115.736,217.779"/>
			<path fill="#141414" d="M116.693,215.052c-31.621-11.091-48.3-45.905-37.178-77.611c11.119-31.701,45.893-48.474,77.514-37.383
				c31.626,11.095,48.301,45.913,37.182,77.615C183.09,209.378,148.32,226.146,116.693,215.052z M154.709,106.67
				c-27.982-9.815-58.759,5.023-68.601,33.083c-9.843,28.058,4.92,58.87,32.904,68.687c27.987,9.817,58.765-5.022,68.606-33.08
				C197.461,147.301,182.698,116.487,154.709,106.67z"/>
		</g>
		<g>
			<path fill="#141414" d="M-567.012-114.599l14.967,0.188l2.889-10.514l-12.962-7.472c0.419-3,0.653-6.046,0.692-9.141
				l14.111-5.495l-1.275-10.827l-15.002-1.999c-0.828-3.305-1.885-6.499-3.139-9.582l10.721-10.472l-5.368-9.463l-14.458,3.904
				c-1.842-2.444-3.837-4.755-5.969-6.926l6.013-13.76l-8.548-6.741l-11.933,9.084c-2.876-1.714-5.867-3.24-8.97-4.543l0.197-14.992
				l-10.486-2.877l-7.476,12.993c-2.995-0.41-6.036-0.639-9.127-0.669l-5.46-14.131l-10.803,1.291l-2.02,15.039
				c-3.303,0.83-6.494,1.894-9.57,3.155l-10.428-10.734l-9.471,5.401l3.885,14.482c-2.437,1.856-4.752,3.848-6.92,5.985l-13.728-6
				l-6.726,8.566l9.032,11.959c-1.718,2.869-3.237,5.88-4.538,8.99l-14.971-0.178l-2.891,10.511l12.963,7.47
				c-0.418,3.003-0.651,6.052-0.679,9.141l-14.128,5.503l1.282,10.818l15.005,2c0.824,3.301,1.88,6.504,3.133,9.585l-10.721,10.468
				l5.369,9.475l14.465-3.912c1.836,2.442,3.83,4.746,5.961,6.934l-6.013,13.75l8.544,6.737l11.939-9.084
				c2.872,1.727,5.867,3.238,8.967,4.546l-0.195,14.997l10.483,2.882l7.48-13.006c2.994,0.415,6.036,0.634,9.122,0.676l5.458,14.135
				l10.808-1.298l2.02-15.037c3.3-0.829,6.487-1.889,9.576-3.162l10.433,10.737l9.451-5.407l-3.876-14.48
				c2.441-1.85,4.752-3.845,6.922-5.985l13.719,6.014l6.736-8.573l-9.043-11.952C-569.833-108.478-568.316-111.479-567.012-114.599
				 M-654.907-79.648c-34.483-12.097-52.608-49.927-40.48-84.5c12.126-34.569,49.913-52.796,84.396-40.699
				c34.487,12.097,52.61,49.935,40.484,84.504C-582.634-85.771-620.42-67.552-654.907-79.648"/>
			<path fill="#141414" d="M-653.912-82.484c-32.867-11.528-50.205-47.717-38.645-80.671c11.557-32.949,47.703-50.385,80.57-38.856
				c32.873,11.532,50.209,47.725,38.65,80.674C-584.896-88.382-621.039-70.953-653.912-82.484z M-614.398-195.136
				c-29.088-10.203-61.078,5.221-71.307,34.384c-10.23,29.165,5.115,61.19,34.203,71.394c29.092,10.206,61.084-5.217,71.314-34.382
				C-569.959-152.903-585.307-184.932-614.398-195.136z"/>
		</g>
		<g>
			<path fill="#141414" d="M990.252,480.428l6.094,0.078l1.177-4.281l-5.277-3.041c0.173-1.222,0.267-2.462,0.28-3.725l5.747-2.234
				l-0.521-4.406l-6.106-0.814c-0.336-1.346-0.768-2.646-1.278-3.9l4.365-4.263l-2.186-3.855l-5.886,1.592
				c-0.751-0.996-1.561-1.937-2.431-2.821l2.447-5.602l-3.479-2.743l-4.859,3.7c-1.171-0.7-2.387-1.321-3.65-1.851l0.081-6.104
				l-4.27-1.168l-3.044,5.285c-1.22-0.167-2.458-0.259-3.717-0.27l-2.221-5.755l-4.397,0.528l-0.823,6.122
				c-1.344,0.336-2.644,0.771-3.895,1.283l-4.247-4.37l-3.854,2.198l1.58,5.896c-0.99,0.756-1.936,1.567-2.819,2.437l-5.585-2.442
				l-2.738,3.486l3.675,4.872c-0.696,1.166-1.316,2.391-1.845,3.658l-6.096-0.072l-1.176,4.278l5.277,3.041
				c-0.172,1.224-0.27,2.465-0.278,3.722l-5.753,2.239l0.524,4.403l6.108,0.815c0.334,1.341,0.764,2.648,1.275,3.902l-4.365,4.261
				l2.186,3.857l5.89-1.592c0.75,0.994,1.558,1.93,2.427,2.822l-2.447,5.598l3.479,2.744l4.859-3.699
				c1.168,0.7,2.388,1.319,3.652,1.852l-0.083,6.103l4.271,1.174l3.046-5.296c1.218,0.169,2.455,0.262,3.712,0.279l2.222,5.752
				l4.397-0.527l0.822-6.122c1.346-0.337,2.646-0.769,3.9-1.289l4.249,4.372l3.848-2.201l-1.577-5.895
				c0.991-0.753,1.934-1.564,2.818-2.438l5.582,2.449l2.741-3.49l-3.68-4.865C989.102,482.921,989.721,481.698,990.252,480.428
				 M954.473,494.658c-14.041-4.924-21.42-20.325-16.483-34.4c4.938-14.074,20.322-21.495,34.362-16.571
				c14.039,4.926,21.415,20.33,16.479,34.404C983.895,492.164,968.512,499.582,954.473,494.658"/>
			<path fill="#141414" d="M954.879,493.502c-13.383-4.692-20.439-19.425-15.734-32.841c4.705-13.412,19.42-20.51,32.8-15.815
				c13.378,4.692,20.438,19.427,15.733,32.839C982.973,491.101,968.256,498.195,954.879,493.502z M970.965,447.642
				c-11.844-4.153-24.869,2.125-29.033,13.998s2.084,24.91,13.928,29.064c11.842,4.154,24.865-2.124,29.029-13.996
				C989.054,464.835,982.806,451.796,970.965,447.642z"/>
		</g>
		<g>
			<path fill="#141414" d="M-156.27,259.297l-3.637-0.72c-5.774-1.139-10.145-6.187-9.986-12.076
				c0.203-7.61,7.17-12.934,14.299-11.533l3.247,0.639c4.475,0.885,8.709-2.414,8.953-6.976c0.126-2.251,0.2-4.498,0.228-6.74
				c0.059-4.464-3.754-7.984-8.186-7.575l-3.738,0.346c-5.859,0.536-11.477-3.072-12.986-8.769
				c-1.941-7.349,3.254-14.428,10.486-15.091l3.279-0.305c4.546-0.418,7.689-4.781,6.63-9.238c-0.521-2.185-1.086-4.354-1.69-6.51
				c-1.204-4.292-5.854-6.588-9.989-4.942l-3.777,1.497c-6.125,2.432-13.116-0.596-15.532-6.73
				c-5.951-2.088-6.113-10.466-0.238-12.796l10.023-3.982c4.246-1.681,6.035-6.753,3.777-10.716
				c-1.111-1.951-2.254-3.874-3.441-5.773c-2.358-3.779-7.474-4.68-10.984-1.935l-3.195,2.499
				c-5.193,4.061-12.758,3.129-16.807-2.069c-4.041-5.201-3.101-12.777,2.096-16.838l2.609-2.041
				c3.599-2.81,3.895-8.173,0.607-11.338c-1.607-1.556-3.252-3.081-4.932-4.572c-3.326-2.957-8.488-2.383-11.088,1.246l-2.387,3.326
				c-3.846,5.358-11.368,6.602-16.708,2.758l0.001-0.005c-5.346-3.847-6.572-11.377-2.729-16.737l1.92-2.675
				c2.668-3.714,1.443-8.947-2.605-11.055c-1.979-1.033-3.984-2.023-6.02-2.981c-4.025-1.894-8.813,0.118-10.289,4.327l-1.348,3.842
				c-2.185,6.228-9.051,9.54-15.266,7.362l0,0c-6.211-2.18-9.506-9.059-7.322-15.286l1.09-3.104
				c1.516-4.319-1.129-8.979-5.607-9.866c-2.201-0.438-4.41-0.833-6.615-1.173c-4.393-0.696-8.428,2.598-8.662,7.046l-0.198,3.736
				c-0.31,5.885-4.681,10.953-10.526,11.637c-7.54,0.896-13.783-5.248-13.402-12.517l0.173-3.314
				c0.241-4.571-3.614-8.296-8.167-7.878c-2.232,0.208-4.463,0.461-6.688,0.755c-4.405,0.591-7.346,4.88-6.32,9.208l0.945,3.987
				c1.521,6.415-2.476,12.923-8.885,14.452l0,0c-6.408,1.533-12.891-2.46-14.416-8.875l-0.753-3.185
				c-1.051-4.454-5.806-6.943-10.049-5.257c-2.082,0.83-4.147,1.698-6.192,2.607c-4.072,1.809-5.693,6.751-3.486,10.614l2.01,3.523
				c3.26,5.727,1.25,13.092-4.464,16.368c-5.72,3.282-13.069,1.28-16.335-4.447l-1.627-2.854c-2.266-3.966-7.516-5.014-11.119-2.205
				c-1.768,1.376-3.508,2.795-5.223,4.244c-3.4,2.881-3.57,8.078-0.368,11.177l2.932,2.822c4.745,4.567,4.892,12.197,0.322,16.959
				l0,0c-4.565,4.756-12.187,4.91-16.929,0.345l-2.384-2.295c-3.287-3.165-8.628-2.688-11.298,1.03
				c-1.307,1.821-2.574,3.669-3.811,5.555c-2.449,3.724-1.152,8.758,2.795,10.813l3.614,1.886
				c5.838,3.043,8.124,10.319,5.081,16.179c-3.053,5.854-10.317,8.151-16.155,5.112l-2.913-1.519
				c-4.024-2.104-9.018-0.17-10.523,4.123c-0.01,0.026-0.021,0.057-0.029,0.081c-0.749,2.137-1.451,4.275-2.107,6.421
				c-1.294,4.243,1.389,8.673,5.738,9.53l3.975,0.78c6.461,1.271,10.703,7.607,9.422,14.082c-1.277,6.471-7.61,10.729-14.066,9.462
				l-3.249-0.642c-4.479-0.883-8.708,2.419-8.956,6.981c-0.121,2.25-0.199,4.498-0.229,6.737c-0.059,4.462,3.756,7.984,8.187,7.578
				l4.082-0.376c6.56-0.604,12.409,4.273,13.001,10.843c0.594,6.572-4.285,12.442-10.85,13.048l-3.27,0.299
				c-4.551,0.421-7.695,4.786-6.636,9.239c0.522,2.184,1.083,4.353,1.69,6.51c1.205,4.287,5.853,6.584,9.988,4.94l3.78-1.497
				c6.122-2.428,13.108,0.6,15.531,6.733c5.952,2.088,6.108,10.468,0.24,12.801l-10.022,3.979c-4.246,1.684-6.039,6.75-3.777,10.717
				c1.104,1.945,2.258,3.868,3.439,5.775c2.355,3.771,7.474,4.673,10.986,1.93l2.924-2.286c4.646-3.631,11.316-3.639,15.665,0.333
				c5.604,5.125,5.048,13.886-0.686,18.361l-2.603,2.039c-3.607,2.809-3.902,8.174-0.619,11.344c1.61,1.555,3.258,3.078,4.938,4.568
				c3.326,2.957,8.49,2.38,11.088-1.246l2.215-3.087c3.393-4.729,9.688-6.612,14.939-4.134c6.949,3.275,8.938,11.915,4.664,17.877
				l-1.918,2.681c-2.669,3.716-1.441,8.947,2.605,11.056c1.982,1.025,3.988,2.02,6.021,2.975c4.023,1.896,8.811-0.117,10.286-4.325
				l1.347-3.839c2.185-6.227,9.056-9.538,15.265-7.36c6.214,2.18,9.508,9.057,7.323,15.284l-1.088,3.102
				c-1.514,4.314,1.134,8.979,5.609,9.869c2.199,0.438,4.408,0.83,6.61,1.173c4.401,0.693,8.435-2.597,8.669-7.05l0.193-3.732
				c0.311-5.888,4.682-10.953,10.529-11.646c7.541-0.889,13.783,5.257,13.4,12.522l-0.174,3.313
				c-0.238,4.575,3.62,8.302,8.169,7.878c2.236-0.206,4.462-0.457,6.685-0.754c4.413-0.595,7.348-4.879,6.322-9.209l-0.865-3.646
				c-1.361-5.74,1.415-11.824,6.831-14.14c6.992-2.986,14.708,1.146,16.386,8.226l0.756,3.187c1.055,4.448,5.807,6.941,10.051,5.25
				c2.08-0.823,4.149-1.696,6.193-2.605c4.072-1.806,5.692-6.747,3.485-10.619l-1.835-3.216c-2.918-5.12-1.964-11.741,2.584-15.486
				c5.871-4.836,14.441-3.049,18.039,3.263l1.631,2.854c2.26,3.965,7.518,5.015,11.115,2.204c1.768-1.38,3.508-2.79,5.223-4.241
				c3.404-2.888,3.57-8.083,0.365-11.177l-2.927-2.823c-4.749-4.567-4.892-12.199-0.322-16.963
				c2.043-5.822,9.409-7.584,13.845-3.309l5.463,5.262c3.288,3.164,8.633,2.685,11.299-1.033c1.305-1.819,2.576-3.673,3.818-5.553
				c2.443-3.728,1.143-8.757-2.797-10.815l-3.618-1.884c-6.44-3.36-8.555-11.865-3.964-17.935
				c3.555-4.702,10.129-5.911,15.344-3.194l2.604,1.357c4.031,2.102,9.023,0.17,10.529-4.125c0.01-0.025,0.019-0.052,0.031-0.086
				c0.746-2.129,1.449-4.269,2.1-6.41C-149.232,264.576-151.918,260.149-156.27,259.297z M-264.851,115.081
				c24.31,10.414,43.325,28.492,55.204,50.39l-34.983,16.864c-7.481-12.979-18.81-23.808-33.104-30.526L-264.851,115.081z
				 M-279.505,109.941l-12.882,36.727c-15.363-3.683-30.971-2.302-44.916,3.161l-16.787-35.025
				C-331.139,105.124-304.994,102.887-279.505,109.941z M-367.971,121.805l16.837,35.144c-12.181,7.962-22.163,19.477-28.213,33.719
				l-36.573-12.828C-406.225,153.538-389.025,134.271-367.971,121.805z M-415.25,264.603c-9.275-22.148-11.645-47.284-5.459-71.951
				l36.758,12.892c-2.9,14.487-1.416,29.076,3.686,42.191L-415.25,264.603z M-355.068,325.367
				c-22.998-9.85-41.253-26.558-53.209-46.867l35.101-16.921c7.433,11.438,17.979,20.949,30.99,27.062L-355.068,325.367z
				 M-331.367,281.26c-33.633-11.798-51.301-48.682-39.475-82.395c11.82-33.698,48.657-51.469,82.29-39.67
				c33.624,11.793,51.298,48.683,39.478,82.382C-260.899,275.289-297.744,293.053-331.367,281.26z M-340.415,330.507l12.882-36.727
				c13.979,3.355,28.156,2.517,41.105-1.772l16.842,35.142C-291.608,335.54-316.304,337.183-340.415,330.507z M-255.463,320.65
				l-16.781-35.025c12.176-7.056,22.448-17.521,29.227-30.647l36.769,12.898C-216.832,290.999-234.384,309.149-255.463,320.65z
				 M-237.313,240.487c4.171-14.9,3.572-30.129-0.966-43.953l35.099-16.926c8.657,22.888,10.053,48.675,2.44,73.708
				L-237.313,240.487z"/>
		</g>
		<g>
			<path fill="#141414" d="M1235.396,341.308l-3.642-0.718c-5.773-1.138-10.144-6.186-9.984-12.08
				c0.204-7.607,7.171-12.933,14.299-11.531l3.245,0.641c4.476,0.884,8.711-2.413,8.953-6.977c0.128-2.25,0.203-4.498,0.229-6.74
				c0.06-4.462-3.753-7.985-8.186-7.575l-3.74,0.345c-5.86,0.538-11.475-3.07-12.986-8.768c-1.939-7.347,3.254-14.428,10.49-15.092
				l3.275-0.305c4.546-0.415,7.693-4.782,6.633-9.235c-0.52-2.185-1.087-4.358-1.691-6.514c-1.203-4.288-5.851-6.586-9.987-4.942
				l-3.779,1.499c-6.122,2.434-13.114-0.596-15.532-6.73c-5.956-2.089-6.11-10.468-0.239-12.797l10.024-3.983
				c4.245-1.682,6.035-6.751,3.778-10.717c-1.112-1.947-2.256-3.871-3.442-5.771c-2.356-3.78-7.472-4.681-10.984-1.935l-3.195,2.499
				c-5.194,4.06-12.759,3.127-16.804-2.067c-4.043-5.203-3.102-12.779,2.091-16.84l2.611-2.039
				c3.597-2.811,3.892-8.178,0.608-11.342c-1.611-1.554-3.252-3.078-4.935-4.573c-3.324-2.954-8.487-2.38-11.083,1.247l-2.391,3.328
				c-3.844,5.36-11.368,6.602-16.705,2.756l0.001-0.003c-5.35-3.845-6.572-11.375-2.73-16.737l1.92-2.677
				c2.668-3.713,1.443-8.945-2.605-11.053c-1.979-1.034-3.982-2.026-6.021-2.983c-4.027-1.892-8.809,0.118-10.285,4.327
				l-1.348,3.841c-2.186,6.231-9.055,9.545-15.266,7.365l0,0c-6.213-2.178-9.509-9.057-7.323-15.288l1.089-3.103
				c1.515-4.317-1.132-8.979-5.607-9.866c-2.2-0.438-4.406-0.831-6.611-1.174c-4.398-0.695-8.432,2.596-8.665,7.045l-0.201,3.738
				c-0.304,5.887-4.681,10.95-10.527,11.637c-7.536,0.896-13.78-5.248-13.398-12.52l0.171-3.312
				c0.239-4.573-3.617-8.299-8.167-7.878c-2.235,0.208-4.464,0.459-6.686,0.755c-4.407,0.591-7.351,4.88-6.321,9.208l0.945,3.987
				c1.521,6.415-2.474,12.923-8.881,14.45l0,0c-6.41,1.535-12.892-2.459-14.418-8.873l-0.752-3.187
				c-1.056-4.457-5.809-6.941-10.056-5.254c-2.08,0.826-4.146,1.697-6.191,2.606c-4.068,1.808-5.689,6.751-3.48,10.613l2.002,3.524
				c3.268,5.725,1.253,13.092-4.457,16.37c-5.725,3.28-13.075,1.278-16.34-4.451l-1.624-2.85c-2.264-3.971-7.515-5.018-11.118-2.207
				c-1.768,1.376-3.511,2.793-5.224,4.246c-3.401,2.877-3.574,8.077-0.369,11.175l2.935,2.824
				c4.745,4.567,4.889,12.195,0.318,16.954l0,0c-4.563,4.757-12.184,4.915-16.926,0.348l-2.385-2.293
				c-3.284-3.165-8.628-2.692-11.298,1.028c-1.303,1.821-2.576,3.671-3.813,5.557c-2.449,3.723-1.15,8.758,2.797,10.812l3.615,1.886
				c5.838,3.043,8.123,10.32,5.082,16.178c-3.053,5.853-10.318,8.151-16.154,5.11l-2.914-1.517c-4.024-2.101-9.02-0.17-10.525,4.123
				c-0.009,0.024-0.02,0.059-0.029,0.083c-0.748,2.135-1.449,4.271-2.107,6.416c-1.296,4.246,1.392,8.678,5.735,9.531l3.978,0.782
				c6.46,1.272,10.701,7.608,9.422,14.083c-1.278,6.472-7.61,10.729-14.068,9.459l-3.246-0.638
				c-4.477-0.883-8.711,2.415-8.956,6.978c-0.122,2.252-0.202,4.502-0.229,6.739c-0.06,4.462,3.756,7.984,8.188,7.578l4.082-0.376
				c6.559-0.606,12.406,4.273,12.998,10.844c0.597,6.568-4.283,12.439-10.843,13.048l-3.275,0.298
				c-4.551,0.42-7.696,4.786-6.632,9.239c0.52,2.183,1.08,4.354,1.689,6.508c1.199,4.289,5.852,6.588,9.987,4.944l3.778-1.499
				c6.123-2.429,13.11,0.602,15.53,6.73c5.954,2.088,6.111,10.473,0.241,12.802l-10.023,3.981c-4.248,1.684-6.04,6.751-3.779,10.717
				c1.111,1.947,2.261,3.868,3.442,5.772c2.36,3.777,7.473,4.678,10.987,1.93l2.923-2.283c4.646-3.631,11.315-3.64,15.666,0.333
				c5.604,5.123,5.046,13.885-0.686,18.36l-2.604,2.038c-3.606,2.813-3.903,8.174-0.618,11.346c1.611,1.554,3.258,3.078,4.938,4.568
				c3.324,2.957,8.488,2.382,11.088-1.247l2.216-3.086c3.394-4.729,9.688-6.61,14.936-4.134c6.952,3.275,8.943,11.917,4.669,17.877
				l-1.921,2.681c-2.668,3.716-1.442,8.947,2.609,11.056c1.979,1.023,3.985,2.021,6.019,2.977c4.023,1.894,8.811-0.118,10.287-4.327
				l1.346-3.837c2.186-6.229,9.057-9.54,15.266-7.362c6.213,2.18,9.507,9.055,7.323,15.285l-1.089,3.101
				c-1.512,4.313,1.133,8.981,5.608,9.869c2.199,0.435,4.408,0.83,6.61,1.171c4.4,0.692,8.434-2.593,8.673-7.05l0.191-3.731
				c0.311-5.887,4.682-10.95,10.526-11.644c7.543-0.893,13.784,5.253,13.403,12.521l-0.172,3.312
				c-0.243,4.574,3.615,8.305,8.165,7.876c2.238-0.203,4.466-0.456,6.686-0.75c4.412-0.594,7.347-4.879,6.319-9.209l-0.866-3.647
				c-1.357-5.74,1.419-11.821,6.834-14.139c6.994-2.984,14.708,1.147,16.386,8.226l0.759,3.185c1.054,4.45,5.805,6.943,10.049,5.254
				c2.08-0.828,4.147-1.696,6.192-2.61c4.071-1.803,5.692-6.745,3.488-10.616l-1.837-3.219c-2.915-5.115-1.965-11.741,2.583-15.483
				c5.871-4.837,14.441-3.049,18.039,3.263l1.631,2.854c2.264,3.967,7.517,5.015,11.116,2.204c1.767-1.379,3.507-2.792,5.221-4.24
				c3.404-2.887,3.573-8.081,0.368-11.176l-2.929-2.826c-4.744-4.564-4.89-12.199-0.318-16.961c2.042-5.82,9.406-7.584,13.844-3.311
				l5.465,5.263c3.285,3.167,8.627,2.686,11.293-1.032c1.306-1.818,2.579-3.673,3.819-5.553c2.442-3.727,1.144-8.757-2.798-10.816
				l-3.615-1.882c-6.442-3.362-8.555-11.866-3.965-17.936c3.558-4.7,10.125-5.911,15.345-3.192l2.601,1.355
				c4.028,2.102,9.024,0.17,10.532-4.126c0.008-0.024,0.019-0.053,0.028-0.084c0.747-2.131,1.453-4.268,2.101-6.411
				C1242.429,346.586,1239.745,342.163,1235.396,341.308z M1126.811,197.093c24.31,10.413,43.328,28.491,55.201,50.388
				l-34.98,16.867c-7.479-12.98-18.808-23.807-33.104-30.527L1126.811,197.093z M1112.156,191.951l-12.883,36.729
				c-15.361-3.683-30.969-2.305-44.916,3.161l-16.786-35.023C1060.524,187.135,1086.667,184.898,1112.156,191.951z
				 M1023.691,203.818l16.838,35.14c-12.182,7.961-22.163,19.478-28.213,33.721l-36.573-12.828
				C985.439,235.548,1002.637,216.282,1023.691,203.818z M976.414,346.615c-9.278-22.152-11.645-47.286-5.461-71.954l36.756,12.894
				c-2.899,14.486-1.414,29.074,3.688,42.19L976.414,346.615z M1036.592,407.378c-22.996-9.849-41.25-26.555-53.207-46.864
				l35.102-16.923c7.43,11.439,17.981,20.953,30.988,27.059L1036.592,407.378z M1071.319,331.845
				c-16.317-5.723-24.888-23.614-19.149-39.97c5.734-16.348,23.603-24.966,39.92-19.243c16.309,5.722,24.884,23.614,19.148,39.963
				C1105.501,328.949,1087.628,337.566,1071.319,331.845z M1051.246,412.518l12.883-36.729c13.979,3.359,28.154,2.521,41.104-1.771
				l16.842,35.144C1100.054,417.554,1075.359,419.194,1051.246,412.518z M1136.199,402.663l-16.78-35.027
				c12.175-7.055,22.446-17.521,29.226-30.646l36.769,12.897C1174.832,373.013,1157.277,391.158,1136.199,402.663z
				 M1154.348,322.499c4.176-14.902,3.574-30.13-0.963-43.954l35.096-16.925c8.66,22.886,10.057,48.674,2.439,73.707
				L1154.348,322.499z"/>
		</g>
		<g>
			<path fill="#141414" d="M-31.187-123.688l-1.033-0.204c-1.631-0.321-2.869-1.749-2.825-3.416
				c0.061-2.153,2.029-3.661,4.048-3.267l0.917,0.183c1.268,0.249,2.465-0.683,2.534-1.973c0.036-0.637,0.058-1.271,0.065-1.907
				c0.016-1.262-1.063-2.26-2.317-2.144l-1.058,0.099c-1.66,0.152-3.246-0.87-3.672-2.479c-0.553-2.08,0.918-4.082,2.966-4.271
				l0.928-0.088c1.284-0.116,2.175-1.352,1.875-2.612c-0.147-0.618-0.307-1.23-0.479-1.843c-0.34-1.214-1.655-1.861-2.824-1.397
				l-1.071,0.424c-1.733,0.686-3.708-0.17-4.392-1.905c-1.685-0.591-1.73-2.961-0.07-3.62l2.84-1.127
				c1.199-0.478,1.705-1.908,1.067-3.03c-0.315-0.553-0.638-1.098-0.974-1.635c-0.667-1.068-2.115-1.322-3.107-0.548l-0.904,0.709
				c-1.468,1.147-3.61,0.885-4.755-0.585c-1.146-1.473-0.877-3.618,0.591-4.765l0.742-0.577c1.015-0.796,1.1-2.314,0.171-3.21
				c-0.458-0.44-0.922-0.871-1.397-1.295c-0.941-0.836-2.402-0.672-3.135,0.355l-0.678,0.939c-1.087,1.517-3.216,1.867-4.729,0.782
				l0.001-0.003c-1.513-1.089-1.858-3.218-0.771-4.734l0.541-0.758c0.757-1.052,0.41-2.53-0.735-3.128
				c-0.562-0.291-1.126-0.574-1.704-0.842c-1.139-0.538-2.492,0.031-2.912,1.224l-0.381,1.087c-0.617,1.761-2.563,2.698-4.318,2.083
				l0,0c-1.756-0.616-2.688-2.563-2.07-4.325l0.307-0.877c0.431-1.226-0.317-2.544-1.584-2.792
				c-0.625-0.125-1.248-0.235-1.873-0.334c-1.243-0.194-2.383,0.736-2.448,1.993l-0.06,1.06c-0.088,1.663-1.322,3.098-2.979,3.291
				c-2.132,0.255-3.898-1.485-3.789-3.542l0.047-0.938c0.069-1.293-1.023-2.348-2.311-2.229c-0.633,0.061-1.262,0.131-1.893,0.215
				c-1.248,0.167-2.08,1.381-1.789,2.604l0.269,1.129c0.432,1.814-0.698,3.658-2.513,4.086l0,0c-1.813,0.436-3.646-0.694-4.076-2.51
				l-0.216-0.901c-0.298-1.26-1.642-1.963-2.842-1.483c-0.591,0.231-1.173,0.479-1.756,0.734c-1.149,0.513-1.606,1.91-0.985,3.004
				l0.57,0.997c0.923,1.62,0.354,3.704-1.262,4.631c-1.619,0.927-3.702,0.361-4.625-1.257l-0.461-0.809
				c-0.639-1.12-2.125-1.417-3.145-0.624c-0.498,0.39-0.992,0.791-1.476,1.203c-0.964,0.813-1.011,2.285-0.103,3.159l0.826,0.8
				c1.344,1.291,1.385,3.452,0.09,4.796l0,0c-1.291,1.347-3.446,1.392-4.787,0.098l-0.674-0.648
				c-0.933-0.895-2.442-0.763-3.197,0.291c-0.369,0.516-0.73,1.04-1.076,1.571c-0.694,1.058-0.328,2.481,0.786,3.06l1.024,0.534
				c1.651,0.862,2.299,2.922,1.438,4.578s-2.917,2.306-4.57,1.445l-0.824-0.429c-1.141-0.596-2.553-0.049-2.979,1.166
				c-0.002,0.008-0.006,0.018-0.008,0.024c-0.213,0.605-0.41,1.208-0.596,1.815c-0.366,1.2,0.393,2.454,1.621,2.695l1.128,0.221
				c1.825,0.359,3.026,2.153,2.666,3.987c-0.361,1.829-2.153,3.035-3.982,2.676l-0.916-0.183c-1.269-0.248-2.466,0.683-2.536,1.978
				c-0.031,0.636-0.057,1.27-0.063,1.902c-0.017,1.265,1.061,2.263,2.316,2.146l1.154-0.107c1.854-0.171,3.508,1.209,3.677,3.069
				c0.169,1.857-1.212,3.521-3.069,3.691l-0.926,0.083c-1.287,0.121-2.178,1.353-1.875,2.612c0.146,0.618,0.306,1.235,0.477,1.843
				c0.339,1.213,1.656,1.867,2.827,1.399l1.069-0.424c1.733-0.686,3.709,0.17,4.393,1.904c1.685,0.591,1.729,2.961,0.069,3.622
				l-2.835,1.125c-1.203,0.479-1.707,1.912-1.068,3.032c0.312,0.552,0.635,1.093,0.971,1.635c0.666,1.068,2.114,1.322,3.107,0.545
				l0.829-0.643c1.315-1.028,3.2-1.031,4.434,0.09c1.583,1.45,1.427,3.931-0.195,5.197l-0.738,0.576
				c-1.02,0.795-1.103,2.312-0.175,3.207c0.459,0.442,0.922,0.874,1.398,1.295c0.941,0.837,2.401,0.675,3.139-0.354l0.625-0.872
				c0.961-1.338,2.74-1.869,4.225-1.17c1.967,0.926,2.532,3.372,1.322,5.059l-0.543,0.76c-0.756,1.05-0.406,2.529,0.736,3.128
				c0.563,0.288,1.13,0.568,1.704,0.842c1.14,0.534,2.493-0.035,2.911-1.225l0.381-1.086c0.619-1.764,2.563-2.699,4.318-2.082
				c1.757,0.615,2.689,2.56,2.071,4.324l-0.308,0.877c-0.428,1.22,0.322,2.541,1.586,2.792c0.623,0.125,1.248,0.237,1.871,0.33
				c1.244,0.196,2.388-0.732,2.45-1.992l0.059-1.057c0.089-1.667,1.323-3.098,2.979-3.294c2.133-0.252,3.9,1.485,3.79,3.54
				l-0.047,0.938c-0.069,1.294,1.024,2.352,2.309,2.231c0.635-0.061,1.265-0.131,1.893-0.216c1.25-0.168,2.08-1.379,1.789-2.606
				l-0.244-1.031c-0.385-1.623,0.396-3.343,1.931-4.001c1.979-0.842,4.161,0.326,4.636,2.329l0.217,0.898
				c0.297,1.26,1.643,1.966,2.841,1.489c0.591-0.235,1.175-0.481,1.755-0.739c1.15-0.51,1.609-1.907,0.987-3.003l-0.522-0.91
				c-0.824-1.45-0.555-3.322,0.731-4.381c1.661-1.37,4.086-0.865,5.105,0.923l0.46,0.807c0.64,1.122,2.125,1.419,3.144,0.623
				c0.501-0.392,0.991-0.788,1.478-1.198c0.964-0.817,1.011-2.287,0.104-3.162l-0.829-0.801c-1.342-1.292-1.385-3.452-0.088-4.8
				c0.578-1.646,2.66-2.145,3.917-0.936l1.544,1.492c0.932,0.894,2.441,0.758,3.197-0.297c0.369-0.513,0.729-1.034,1.081-1.57
				c0.688-1.053,0.322-2.475-0.792-3.059l-1.024-0.532c-1.821-0.952-2.422-3.358-1.123-5.077c1.009-1.325,2.866-1.67,4.342-0.9
				l0.738,0.383c1.142,0.594,2.552,0.049,2.979-1.169c0.002-0.005,0.004-0.013,0.008-0.021c0.211-0.604,0.409-1.21,0.594-1.816
				C-29.196-122.196-29.959-123.45-31.187-123.688z M-61.909-164.49c6.876,2.946,12.257,8.059,15.616,14.253l-9.895,4.772
				c-2.117-3.672-5.321-6.733-9.366-8.636L-61.909-164.49z M-66.055-165.944l-3.645,10.39c-4.348-1.04-8.764-0.651-12.709,0.895
				l-4.748-9.909C-80.662-167.31-73.27-167.94-66.055-165.944z M-91.085-162.589l4.765,9.944c-3.447,2.25-6.272,5.512-7.984,9.537
				l-10.348-3.629C-101.908-153.61-97.042-159.063-91.085-162.589z M-104.462-122.188c-2.626-6.268-3.294-13.38-1.545-20.356
				l10.399,3.646c-0.819,4.1-0.4,8.229,1.043,11.938L-104.462-122.188z M-87.433-104.997c-6.507-2.785-11.673-7.512-15.056-13.256
				l9.932-4.79c2.1,3.236,5.087,5.93,8.77,7.655L-87.433-104.997z M-77.607-126.365c-4.618-1.62-7.045-6.68-5.42-11.309
				c1.621-4.624,6.679-7.065,11.295-5.446c4.613,1.618,7.039,6.683,5.416,11.309C-67.939-127.185-72.996-124.749-77.607-126.365z
				 M-83.287-103.543l3.645-10.391c3.951,0.952,7.965,0.713,11.629-0.499l4.762,9.942
				C-69.479-102.117-76.469-101.654-83.287-103.543z M-59.254-106.33l-4.748-9.91c3.444-1.995,6.353-4.958,8.271-8.67l10.4,3.647
				C-48.324-114.721-53.289-109.584-59.254-106.33z M-54.117-129.011c1.178-4.215,1.011-8.523-0.274-12.435l9.929-4.789
				c2.45,6.475,2.846,13.771,0.692,20.853L-54.117-129.011z"/>
		</g>
		<g>
			<path fill="#141414" d="M496.176,36.167l-3.641-0.715c-5.775-1.14-10.144-6.189-9.982-12.082
				c0.201-7.606,7.166-12.933,14.295-11.53l3.246,0.64c4.479,0.885,8.71-2.412,8.955-6.975c0.124-2.252,0.199-4.502,0.227-6.743
				c0.059-4.46-3.752-7.985-8.188-7.574l-3.737,0.347c-5.862,0.536-11.474-3.07-12.987-8.767
				c-1.939-7.349,3.255-14.428,10.489-15.096l3.275-0.303c4.549-0.415,7.695-4.781,6.634-9.235c-0.52-2.185-1.084-4.359-1.692-6.512
				c-1.204-4.29-5.85-6.588-9.986-4.943l-3.78,1.498c-6.122,2.436-13.113-0.599-15.53-6.73c-5.954-2.087-6.108-10.468-0.237-12.799
				l10.025-3.982c4.245-1.681,6.033-6.748,3.774-10.714c-1.109-1.949-2.257-3.873-3.444-5.772c-2.357-3.782-7.47-4.682-10.984-1.937
				l-3.191,2.501c-5.193,4.06-12.759,3.126-16.806-2.069c-4.044-5.202-3.103-12.777,2.095-16.84l2.609-2.037
				c3.598-2.812,3.892-8.176,0.609-11.343c-1.613-1.553-3.256-3.077-4.937-4.575c-3.324-2.953-8.486-2.377-11.085,1.25l-2.387,3.329
				c-3.846,5.359-11.367,6.599-16.708,2.756l0.001-0.004c-5.346-3.843-6.576-11.377-2.729-16.736l1.923-2.678
				c2.662-3.715,1.442-8.946-2.608-11.053c-1.979-1.034-3.983-2.026-6.019-2.984c-4.028-1.889-8.811,0.116-10.288,4.33l-1.347,3.839
				c-2.186,6.232-9.055,9.547-15.268,7.367l0,0c-6.211-2.18-9.508-9.059-7.322-15.291l1.09-3.104
				c1.514-4.316-1.129-8.979-5.605-9.864c-2.203-0.439-4.412-0.83-6.615-1.174c-4.397-0.692-8.431,2.597-8.663,7.047l-0.202,3.737
				c-0.305,5.884-4.682,10.948-10.523,11.636c-7.543,0.897-13.783-5.247-13.404-12.521l0.172-3.309
				c0.243-4.572-3.613-8.3-8.164-7.88c-2.236,0.208-4.464,0.462-6.688,0.758c-4.408,0.589-7.348,4.878-6.322,9.206l0.947,3.984
				c1.523,6.416-2.475,12.925-8.883,14.455l0,0c-6.41,1.534-12.891-2.46-14.416-8.877l-0.755-3.186
				c-1.052-4.457-5.805-6.941-10.052-5.252c-2.08,0.827-4.145,1.697-6.193,2.606c-4.066,1.807-5.689,6.747-3.482,10.61l2.008,3.525
				c3.26,5.725,1.252,13.091-4.462,16.371c-5.724,3.28-13.071,1.28-16.337-4.449l-1.627-2.85c-2.264-3.971-7.516-5.018-11.119-2.209
				c-1.768,1.376-3.51,2.795-5.222,4.244c-3.401,2.881-3.57,8.079-0.366,11.175l2.93,2.824c4.746,4.567,4.89,12.197,0.322,16.955
				l0,0c-4.563,4.757-12.188,4.916-16.929,0.349l-2.383-2.296c-3.286-3.164-8.628-2.692-11.298,1.033
				c-1.306,1.818-2.574,3.67-3.811,5.553c-2.451,3.726-1.153,8.762,2.796,10.813l3.614,1.884c5.835,3.046,8.123,10.324,5.079,16.181
				c-3.051,5.853-10.315,8.152-16.153,5.109l-2.914-1.516c-4.024-2.1-9.018-0.17-10.526,4.123c-0.009,0.025-0.021,0.059-0.029,0.083
				c-0.749,2.136-1.446,4.271-2.103,6.415c-1.298,4.246,1.387,8.677,5.733,9.534l3.978,0.779c6.461,1.273,10.699,7.61,9.42,14.083
				c-1.275,6.473-7.611,10.731-14.064,9.457l-3.25-0.635c-4.478-0.882-8.709,2.417-8.955,6.979c-0.123,2.251-0.2,4.498-0.229,6.735
				c-0.061,4.465,3.754,7.987,8.188,7.582l4.082-0.377c6.558-0.606,12.406,4.271,13,10.845c0.595,6.567-4.284,12.438-10.848,13.045
				l-3.273,0.299c-4.552,0.421-7.695,4.786-6.633,9.237c0.521,2.184,1.082,4.359,1.689,6.511c1.203,4.287,5.852,6.587,9.987,4.942
				l3.78-1.5c6.123-2.426,13.109,0.606,15.529,6.731c5.954,2.09,6.111,10.473,0.242,12.803l-10.022,3.982
				c-4.245,1.682-6.038,6.75-3.778,10.719c1.105,1.942,2.257,3.866,3.441,5.771c2.357,3.772,7.471,4.678,10.986,1.932l2.924-2.284
				c4.646-3.632,11.316-3.643,15.666,0.331c5.604,5.123,5.045,13.886-0.686,18.361l-2.606,2.04
				c-3.604,2.811-3.901,8.174-0.616,11.345c1.611,1.553,3.258,3.077,4.937,4.569c3.325,2.955,8.487,2.38,11.089-1.247l2.215-3.091
				c3.395-4.728,9.686-6.607,14.935-4.131c6.954,3.276,8.942,11.917,4.671,17.876l-1.92,2.683
				c-2.671,3.714-1.441,8.947,2.605,11.055c1.984,1.022,3.988,2.021,6.021,2.979c4.024,1.894,8.81-0.119,10.286-4.329l1.346-3.839
				c2.187-6.229,9.059-9.538,15.264-7.36c6.214,2.18,9.512,9.054,7.326,15.285l-1.088,3.103c-1.512,4.313,1.133,8.979,5.607,9.869
				c2.201,0.435,4.406,0.826,6.611,1.166c4.4,0.695,8.432-2.59,8.671-7.047l0.191-3.733c0.313-5.887,4.681-10.948,10.53-11.642
				c7.541-0.894,13.783,5.253,13.398,12.522l-0.17,3.311c-0.24,4.571,3.619,8.304,8.164,7.876c2.237-0.206,4.468-0.457,6.686-0.75
				c4.411-0.595,7.35-4.878,6.324-9.211l-0.867-3.647c-1.358-5.736,1.413-11.821,6.832-14.137c6.99-2.986,14.709,1.145,16.389,8.224
				l0.753,3.185c1.055,4.452,5.808,6.947,10.052,5.257c2.081-0.828,4.15-1.698,6.193-2.611c4.072-1.801,5.693-6.746,3.486-10.614
				l-1.836-3.221c-2.916-5.118-1.967-11.742,2.583-15.485c5.869-4.836,14.44-3.049,18.042,3.264l1.629,2.856
				c2.26,3.964,7.517,5.011,11.113,2.2c1.769-1.377,3.51-2.79,5.225-4.239c3.404-2.887,3.571-8.083,0.366-11.175l-2.927-2.824
				c-4.75-4.567-4.889-12.202-0.324-16.962c2.043-5.823,9.408-7.585,13.846-3.313l5.463,5.264c3.285,3.165,8.63,2.687,11.297-1.03
				c1.309-1.821,2.579-3.677,3.818-5.558c2.443-3.727,1.146-8.75-2.796-10.813l-3.62-1.884c-6.439-3.359-8.553-11.865-3.964-17.938
				c3.558-4.697,10.126-5.911,15.345-3.191l2.606,1.359c4.026,2.102,9.02,0.168,10.526-4.128c0.009-0.024,0.02-0.054,0.03-0.084
				c0.747-2.131,1.45-4.268,2.103-6.409C503.209,41.449,500.526,37.021,496.176,36.167z M387.591-108.049
				c24.309,10.416,43.329,28.494,55.202,50.391l-34.982,16.864c-7.477-12.98-18.807-23.806-33.104-30.527L387.591-108.049z
				 M372.941-113.187L360.059-76.46c-15.367-3.683-30.977-2.307-44.92,3.161l-16.783-35.022
				C321.305-118.004,347.447-120.24,372.941-113.187z M284.473-101.321l16.835,35.141c-12.179,7.96-22.163,19.475-28.216,33.72
				l-36.569-12.828C246.22-69.592,263.416-88.857,284.473-101.321z M237.191,41.477c-9.276-22.152-11.643-47.288-5.459-71.955
				l36.761,12.894c-2.903,14.484-1.419,29.074,3.683,42.189L237.191,41.477z M297.377,102.24c-23-9.853-41.254-26.558-53.213-46.865
				l35.102-16.926c7.433,11.439,17.982,20.953,30.994,27.063L297.377,102.24z M332.1,26.703
				c-16.316-5.723-24.887-23.614-19.15-39.967c5.733-16.348,23.604-24.966,39.919-19.243c16.31,5.72,24.884,23.616,19.15,39.963
				C366.282,23.809,348.408,32.425,332.1,26.703z M312.025,107.381l12.884-36.73c13.98,3.358,28.155,2.518,41.106-1.772
				l16.837,35.145C360.832,112.413,336.139,114.051,312.025,107.381z M396.979,97.523l-16.782-35.026
				c12.18-7.057,22.449-17.522,29.229-30.646l36.766,12.896C435.612,67.871,418.059,86.02,396.979,97.523z M415.129,17.36
				c4.174-14.905,3.572-30.133-0.967-43.956L449.26-43.52c8.659,22.886,10.057,48.674,2.442,73.71L415.129,17.36z"/>
		</g>
		<path fill="#141414" d="M210.155,410.087c0.487-1.604-0.53-3.285-2.189-3.604l-1.381-0.272c-2.197-0.436-3.851-2.343-3.8-4.574
			c0.078-2.867,2.715-4.866,5.418-4.337l1.238,0.248c1.69,0.329,3.302-0.904,3.392-2.629c0.036-0.846,0.063-1.705,0.083-2.549
			c0.012-1.679-1.441-3.011-3.119-2.867l-1.417,0.135c-2.226,0.193-4.363-1.177-4.936-3.323c-0.748-2.774,1.222-5.44,3.957-5.683
			l1.245-0.116c1.735-0.156,2.92-1.796,2.513-3.475c-0.2-0.823-0.411-1.65-0.65-2.465c-0.446-1.619-2.216-2.486-3.79-1.87
			l-1.43,0.555c-2.326,0.921-4.979-0.229-5.904-2.551l0,0c-2.253-0.791-2.319-3.948-0.102-4.824l3.801-1.495
			c1.607-0.634,2.289-2.549,1.432-4.044c-0.422-0.734-0.863-1.46-1.316-2.186c-0.898-1.429-2.841-1.764-4.176-0.736l-1.207,0.942
			c-1.968,1.521-4.84,1.163-6.375-0.793c-1.545-1.984-1.189-4.833,0.781-6.354l0.986-0.771c1.363-1.061,1.473-3.084,0.216-4.282
			c-0.605-0.591-1.234-1.152-1.857-1.725c-1.273-1.124-3.235-0.906-4.224,0.452l-0.892,1.253c-1.461,2.02-4.313,2.491-6.349,1.031
			l0,0c-2.027-1.462-2.497-4.297-1.047-6.321l0.721-1.006c1.012-1.403,0.541-3.377-0.996-4.183c-0.75-0.382-1.507-0.754-2.289-1.118
			c-1.523-0.713-3.34,0.026-3.898,1.621l-0.504,1.438c-0.828,2.36-3.419,3.603-5.791,2.771l0,0
			c-2.365-0.829-3.621-3.422-2.793-5.782l0.406-1.16c0.569-1.623-0.435-3.389-2.125-3.731c-0.838-0.167-1.677-0.31-2.516-0.439
			c-1.659-0.272-3.194,0.969-3.277,2.657l-0.072,1.403c-0.109,2.213-1.777,4.131-3.979,4.384c-2.869,0.335-5.242-1.991-5.11-4.737
			l0.065-1.249c0.09-1.732-1.381-3.133-3.099-2.983c-0.853,0.078-1.701,0.177-2.543,0.286c-1.672,0.216-2.78,1.821-2.394,3.463
			l0.36,1.506c0.582,2.42-0.932,4.877-3.353,5.447l0,0c-2.436,0.577-4.905-0.939-5.476-3.359l-0.302-1.2
			c-0.4-1.691-2.209-2.627-3.815-2.004c-0.788,0.317-1.568,0.639-2.352,0.986c-1.534,0.672-2.149,2.537-1.307,4.01l0.765,1.324
			c1.242,2.167,0.49,4.939-1.68,6.178c-2.168,1.225-4.963,0.468-6.198-1.694l-0.621-1.079c-0.861-1.502-2.856-1.898-4.227-0.842
			c-0.675,0.516-1.327,1.056-1.982,1.598c-1.282,1.087-1.347,3.043-0.132,4.212l1.131,1.071c1.791,1.736,1.85,4.604,0.126,6.401l0,0
			c-1.736,1.797-4.62,1.845-6.424,0.113l-0.902-0.858c-1.258-1.202-3.274-1.022-4.295,0.378c-0.488,0.688-0.97,1.379-1.44,2.089
			c-0.921,1.407-0.428,3.31,1.064,4.089l1.378,0.708c2.219,1.153,3.096,3.905,1.952,6.11c-1.162,2.209-3.92,3.078-6.131,1.92
			l-1.11-0.576c-1.531-0.789-3.421-0.079-3.991,1.55c-0.004,0.007-0.009,0.022-0.011,0.028c-0.28,0.8-0.552,1.61-0.796,2.414
			c-0.482,1.612,0.537,3.289,2.188,3.612l1.507,0.291c2.459,0.494,4.063,2.89,3.586,5.328c-0.479,2.449-2.874,4.036-5.331,3.551
			l-1.232-0.232c-1.691-0.348-3.305,0.907-3.394,2.62c-0.04,0.855-0.074,1.693-0.074,2.544c-0.022,1.686,1.431,3.021,3.104,2.87
			l1.553-0.14c2.486-0.225,4.711,1.629,4.945,4.103c0.229,2.475-1.614,4.692-4.106,4.911l-1.238,0.116
			c-1.733,0.152-2.917,1.796-2.512,3.479c0.199,0.831,0.413,1.64,0.642,2.464c0.461,1.618,2.229,2.484,3.793,1.874l1.441-0.566
			c2.32-0.908,4.976,0.24,5.895,2.544l0,0c2.262,0.793,2.335,3.961,0.099,4.843l-3.796,1.492c-1.611,0.631-2.281,2.546-1.421,4.049
			c0.42,0.729,0.856,1.458,1.3,2.177c0.906,1.429,2.851,1.769,4.182,0.74l1.107-0.863c1.753-1.365,4.289-1.362,5.942,0.146
			c2.126,1.934,1.93,5.239-0.243,6.917l-0.99,0.77c-1.365,1.052-1.479,3.094-0.215,4.281c0.605,0.593,1.236,1.17,1.871,1.727
			c1.262,1.131,3.221,0.906,4.21-0.458l0.833-1.171c1.284-1.775,3.67-2.478,5.673-1.535c2.638,1.24,3.397,4.499,1.776,6.744
			l-0.717,1.011c-1.018,1.401-0.551,3.373,0.997,4.169c0.749,0.396,1.515,0.777,2.278,1.138c1.531,0.718,3.351-0.037,3.906-1.623
			l0.51-1.454c0.826-2.353,3.428-3.591,5.791-2.761l0,0c2.355,0.826,3.614,3.418,2.789,5.771l-0.412,1.175
			c-0.569,1.623,0.441,3.394,2.131,3.729c0.842,0.17,1.679,0.318,2.516,0.447c1.67,0.275,3.193-0.975,3.281-2.647l0.072-1.423
			c0.109-2.213,1.773-4.117,3.979-4.377c2.863-0.323,5.243,2,5.104,4.737l-0.06,1.241c-0.087,1.738,1.381,3.153,3.099,2.998
			c0.855-0.081,1.691-0.181,2.547-0.292c1.67-0.219,2.783-1.832,2.391-3.464l-0.34-1.387c-0.516-2.158,0.529-4.455,2.586-5.325
			c2.648-1.125,5.576,0.45,6.225,3.123l0.295,1.196c0.403,1.686,2.201,2.625,3.811,1.998c0.787-0.314,1.568-0.639,2.352-0.984
			c1.541-0.682,2.152-2.538,1.314-4.003l-0.701-1.221c-1.107-1.932-0.758-4.424,0.969-5.841c2.222-1.815,5.476-1.135,6.848,1.252
			l0.619,1.075c0.86,1.504,2.859,1.9,4.217,0.846c0.674-0.521,1.336-1.057,1.988-1.603c1.281-1.082,1.346-3.056,0.127-4.21
			l-1.117-1.071c-1.797-1.728-1.859-4.606-0.134-6.403c0.771-2.198,3.565-2.859,5.249-1.24l2.08,1.994
			c1.256,1.192,3.277,1.015,4.285-0.387c0.5-0.686,0.979-1.38,1.447-2.091c0.926-1.402,0.433-3.296-1.065-4.086l-1.376-0.71
			c-2.449-1.271-3.259-4.481-1.524-6.77c1.351-1.775,3.842-2.228,5.821-1.195l0.991,0.514c1.53,0.789,3.429,0.064,3.993-1.546
			c0.004-0.014,0.008-0.022,0.012-0.035C209.643,411.698,209.907,410.899,210.155,410.087z M153.715,416.159l-1.401-20.441
			l15.421,13.434C163.921,412.894,158.999,415.361,153.715,416.159z M175.059,387.244l-20.414,1.459l13.428-15.495
			C171.818,377.033,174.266,381.96,175.059,387.244z M154.924,392.686l20.405-1.443c-0.031,2.72-0.485,5.464-1.436,8.175
			c-0.866,2.469-2.058,4.721-3.538,6.698L154.924,392.686z M186.553,404.23c-0.736,2.102-3.045,3.219-5.154,2.479
			c-2.107-0.739-3.213-3.055-2.476-5.154c0.74-2.111,3.052-3.236,5.159-2.497C186.19,399.798,187.293,402.121,186.553,404.23z
			 M179.277,372.746c2.016-0.982,4.442-0.132,5.396,1.894c0.969,2.019,0.121,4.438-1.894,5.398
			c-2.006,0.974-4.433,0.122-5.396-1.892C176.418,376.138,177.266,373.72,179.277,372.746z M162.46,355.083
			c2.112,0.74,3.215,3.043,2.474,5.155c-0.74,2.108-3.04,3.22-5.152,2.479c-2.103-0.738-3.214-3.045-2.474-5.155
			C158.049,355.45,160.356,354.345,162.46,355.083z M158.38,367.052c2.468,0.865,4.698,2.056,6.673,3.541l-13.426,15.483
			l-1.42-20.447C152.928,365.644,155.684,366.106,158.38,367.052z M124.896,394.816l20.395-1.433l-13.418,15.465
			C128.131,405.039,125.685,400.116,124.896,394.816z M118.531,376.799c2.104,0.738,3.2,3.057,2.463,5.161
			c-0.74,2.106-3.044,3.234-5.148,2.495c-2.105-0.737-3.211-3.063-2.473-5.167C114.111,377.182,116.426,376.062,118.531,376.799z
			 M126.065,382.642c0.859-2.452,2.066-4.699,3.526-6.685l15.427,13.43l-20.397,1.448
			C124.643,388.113,125.115,385.349,126.065,382.642z M146.234,365.909l1.428,20.466l-15.444-13.45
			C136.036,369.161,140.947,366.709,146.234,365.909z M132.926,357.001c2.02-0.96,4.425-0.115,5.393,1.892
			c0.967,2.023,0.121,4.436-1.895,5.404c-2.015,0.977-4.421,0.132-5.394-1.892C130.067,360.393,130.914,357.98,132.926,357.001z
			 M120.645,410.772c-2.02,0.971-4.426,0.127-5.402-1.895c-0.967-2.022-0.121-4.433,1.897-5.412c2.024-0.965,4.431-0.12,5.403,1.896
			C123.498,407.384,122.653,409.795,120.645,410.772z M137.453,428.44c-2.104-0.737-3.204-3.048-2.462-5.164
			c0.739-2.107,3.04-3.221,5.144-2.482c2.111,0.74,3.228,3.052,2.488,5.159C141.881,428.068,139.564,429.182,137.453,428.44z
			 M141.562,415c-2.435-0.854-4.688-2.035-6.668-3.521l13.421-15.486l1.43,20.452C147.013,416.427,144.275,415.952,141.562,415z
			 M166.992,426.517c-2.008,0.969-4.43,0.119-5.39-1.892c-0.964-2.025-0.114-4.445,1.896-5.403c2.011-0.982,4.432-0.133,5.391,1.891
			C169.863,423.118,169.016,425.537,166.992,426.517z"/>
		<path fill="#141414" d="M999.011,589.148c0.488-1.603-0.533-3.283-2.189-3.604l-1.382-0.271c-2.196-0.437-3.851-2.344-3.797-4.575
			c0.076-2.868,2.712-4.866,5.415-4.336l1.238,0.246c1.689,0.332,3.303-0.901,3.392-2.627c0.041-0.846,0.064-1.708,0.084-2.553
			c0.011-1.678-1.441-3.009-3.119-2.862l-1.418,0.132c-2.225,0.192-4.363-1.176-4.935-3.321c-0.748-2.775,1.222-5.443,3.956-5.682
			l1.245-0.118c1.734-0.156,2.921-1.795,2.514-3.476c-0.199-0.822-0.412-1.65-0.652-2.46c-0.442-1.622-2.215-2.492-3.788-1.875
			l-1.432,0.556c-2.323,0.923-4.979-0.229-5.901-2.553l0,0c-2.253-0.79-2.32-3.946-0.1-4.82l3.798-1.498
			c1.611-0.633,2.289-2.551,1.431-4.041c-0.421-0.739-0.86-1.465-1.316-2.188c-0.898-1.427-2.841-1.765-4.176-0.736l-1.206,0.943
			c-1.965,1.52-4.841,1.163-6.376-0.793c-1.542-1.985-1.188-4.835,0.783-6.356l0.984-0.771c1.364-1.059,1.476-3.084,0.216-4.281
			c-0.604-0.591-1.233-1.152-1.855-1.728c-1.276-1.119-3.237-0.905-4.226,0.454l-0.891,1.252c-1.46,2.023-4.311,2.494-6.35,1.032
			l0,0c-2.026-1.464-2.496-4.295-1.042-6.321l0.717-1.005c1.012-1.404,0.54-3.376-0.995-4.185c-0.752-0.379-1.51-0.753-2.29-1.117
			c-1.521-0.709-3.342,0.029-3.9,1.624l-0.502,1.433c-0.829,2.362-3.419,3.609-5.791,2.776l0,0
			c-2.367-0.829-3.619-3.424-2.789-5.785l0.405-1.157c0.569-1.624-0.438-3.391-2.128-3.733c-0.838-0.168-1.678-0.31-2.516-0.439
			c-1.659-0.272-3.197,0.969-3.28,2.659l-0.07,1.401c-0.107,2.214-1.777,4.133-3.979,4.384c-2.868,0.336-5.242-1.992-5.11-4.737
			l0.063-1.25c0.092-1.729-1.379-3.132-3.095-2.981c-0.853,0.076-1.7,0.174-2.542,0.284c-1.672,0.218-2.783,1.824-2.395,3.466
			l0.359,1.504c0.584,2.417-0.932,4.877-3.354,5.448l0,0c-2.434,0.573-4.906-0.941-5.475-3.36l-0.303-1.203
			c-0.399-1.688-2.206-2.625-3.813-2c-0.785,0.318-1.569,0.638-2.354,0.982c-1.531,0.677-2.148,2.541-1.307,4.014l0.769,1.323
			c1.239,2.166,0.483,4.939-1.683,6.177c-2.168,1.226-4.963,0.473-6.199-1.693l-0.619-1.079c-0.865-1.503-2.857-1.899-4.23-0.84
			c-0.672,0.516-1.326,1.053-1.979,1.596c-1.282,1.087-1.347,3.045-0.132,4.214l1.131,1.067c1.791,1.737,1.85,4.605,0.123,6.404l0,0
			c-1.734,1.797-4.619,1.844-6.421,0.112l-0.901-0.859c-1.26-1.199-3.279-1.024-4.295,0.376c-0.488,0.689-0.969,1.383-1.442,2.096
			c-0.919,1.4-0.427,3.306,1.063,4.084l1.38,0.71c2.22,1.15,3.095,3.906,1.951,6.11c-1.161,2.207-3.918,3.076-6.13,1.921
			l-1.111-0.58c-1.531-0.788-3.42-0.074-3.99,1.55c-0.003,0.01-0.008,0.024-0.01,0.029c-0.281,0.801-0.554,1.612-0.797,2.415
			c-0.482,1.613,0.535,3.285,2.188,3.614l1.503,0.288c2.461,0.494,4.066,2.89,3.591,5.328c-0.484,2.45-2.875,4.037-5.333,3.554
			l-1.23-0.232c-1.694-0.351-3.305,0.907-3.396,2.62c-0.037,0.855-0.076,1.693-0.072,2.539c-0.023,1.69,1.43,3.027,3.104,2.87
			l1.555-0.135c2.484-0.229,4.709,1.626,4.944,4.098c0.229,2.481-1.616,4.696-4.108,4.913l-1.238,0.118
			c-1.732,0.148-2.917,1.797-2.515,3.479c0.202,0.831,0.415,1.638,0.645,2.465c0.462,1.617,2.229,2.484,3.794,1.875l1.44-0.569
			c2.321-0.908,4.977,0.238,5.895,2.545l0,0c2.263,0.795,2.336,3.96,0.101,4.845l-3.797,1.492c-1.61,0.629-2.282,2.546-1.42,4.049
			c0.419,0.729,0.855,1.457,1.299,2.173c0.903,1.433,2.849,1.774,4.18,0.741l1.109-0.863c1.752-1.364,4.288-1.359,5.943,0.144
			c2.129,1.935,1.928,5.242-0.244,6.919l-0.99,0.77c-1.367,1.055-1.477,3.097-0.217,4.284c0.609,0.591,1.238,1.168,1.871,1.724
			c1.266,1.133,3.226,0.909,4.211-0.458l0.836-1.168c1.281-1.776,3.669-2.478,5.672-1.539c2.637,1.242,3.396,4.501,1.775,6.745
			l-0.719,1.01c-1.017,1.405-0.548,3.374,0.996,4.171c0.75,0.396,1.518,0.779,2.284,1.136c1.532,0.718,3.347-0.036,3.903-1.62
			l0.51-1.456c0.826-2.353,3.43-3.589,5.791-2.761l0,0c2.355,0.826,3.615,3.419,2.789,5.771l-0.41,1.173
			c-0.57,1.627,0.439,3.396,2.129,3.729c0.842,0.172,1.68,0.318,2.517,0.448c1.668,0.277,3.191-0.975,3.283-2.649l0.069-1.42
			c0.109-2.215,1.773-4.119,3.979-4.378c2.864-0.324,5.241,2.001,5.102,4.736l-0.059,1.241c-0.086,1.74,1.381,3.154,3.099,2.997
			c0.857-0.078,1.693-0.177,2.547-0.29c1.67-0.217,2.783-1.832,2.392-3.465l-0.34-1.387c-0.516-2.16,0.532-4.453,2.588-5.323
			c2.645-1.124,5.576,0.449,6.222,3.122l0.296,1.195c0.402,1.684,2.203,2.628,3.811,1.998c0.787-0.313,1.567-0.638,2.352-0.986
			c1.543-0.678,2.152-2.536,1.314-3.999l-0.701-1.224c-1.107-1.929-0.759-4.42,0.969-5.839c2.222-1.817,5.474-1.133,6.847,1.25
			l0.622,1.079c0.858,1.502,2.855,1.898,4.215,0.842c0.674-0.52,1.335-1.053,1.988-1.603c1.281-1.08,1.346-3.052,0.127-4.209
			l-1.117-1.068c-1.797-1.73-1.859-4.608-0.135-6.407c0.771-2.196,3.566-2.86,5.25-1.239l2.078,1.996
			c1.256,1.193,3.277,1.016,4.288-0.391c0.499-0.685,0.977-1.376,1.447-2.086c0.925-1.404,0.431-3.299-1.066-4.087l-1.376-0.712
			c-2.451-1.268-3.261-4.481-1.526-6.767c1.352-1.777,3.844-2.229,5.821-1.195l0.993,0.513c1.529,0.789,3.429,0.063,3.993-1.549
			c0.003-0.011,0.008-0.021,0.011-0.034C998.498,590.761,998.763,589.962,999.011,589.148z M942.572,595.223l-1.405-20.441
			l15.423,13.43C952.775,591.954,947.854,594.423,942.572,595.223z M963.916,566.306l-20.416,1.459l13.428-15.496
			C960.673,556.094,963.122,561.02,963.916,566.306z M943.778,571.749l20.406-1.446c-0.032,2.72-0.485,5.464-1.437,8.176
			c-0.865,2.468-2.055,4.723-3.538,6.697L943.778,571.749z M975.408,583.291c-0.737,2.104-3.046,3.219-5.153,2.479
			c-2.109-0.739-3.214-3.052-2.477-5.155c0.741-2.11,3.051-3.232,5.159-2.493S976.149,581.182,975.408,583.291z M968.132,551.81
			c2.016-0.984,4.44-0.133,5.396,1.892c0.971,2.019,0.122,4.438-1.895,5.4c-2.004,0.969-4.43,0.119-5.395-1.893
			C965.271,555.201,966.121,552.781,968.132,551.81z M951.314,534.145c2.114,0.742,3.217,3.043,2.477,5.153
			c-0.74,2.111-3.039,3.223-5.154,2.479c-2.101-0.735-3.211-3.042-2.473-5.153C946.905,534.512,949.215,533.408,951.314,534.145z
			 M947.234,546.114c2.467,0.864,4.699,2.056,6.675,3.538l-13.427,15.484l-1.422-20.447
			C941.782,544.706,944.539,545.168,947.234,546.114z M913.75,573.878l20.396-1.432L920.73,587.91
			C916.984,584.103,914.541,579.179,913.75,573.878z M907.387,555.859c2.104,0.739,3.201,3.059,2.464,5.163
			c-0.741,2.107-3.046,3.232-5.149,2.493c-2.105-0.737-3.209-3.059-2.47-5.166C902.969,556.245,905.28,555.122,907.387,555.859z
			 M914.92,561.703c0.859-2.45,2.068-4.7,3.526-6.683l15.427,13.427l-20.396,1.449C913.498,567.172,913.971,564.411,914.92,561.703z
			 M935.089,544.971l1.429,20.461l-15.446-13.444C924.891,548.224,929.804,545.77,935.089,544.971z M921.78,536.063
			c2.018-0.96,4.423-0.116,5.394,1.892c0.966,2.023,0.119,4.436-1.896,5.406c-2.014,0.972-4.422,0.129-5.393-1.892
			C918.923,539.454,919.77,537.042,921.78,536.063z M909.5,589.835c-2.019,0.969-4.426,0.123-5.402-1.896
			c-0.967-2.022-0.121-4.433,1.898-5.413c2.022-0.962,4.43-0.117,5.403,1.896C912.354,586.444,911.508,588.854,909.5,589.835z
			 M926.308,607.501c-2.103-0.738-3.205-3.046-2.462-5.163c0.738-2.105,3.041-3.221,5.144-2.482c2.11,0.741,3.227,3.052,2.487,5.159
			C930.734,607.132,928.418,608.241,926.308,607.501z M930.416,594.063c-2.434-0.853-4.688-2.033-6.668-3.521l13.421-15.485
			l1.431,20.45C935.869,595.49,933.13,595.014,930.416,594.063z M955.849,605.575c-2.01,0.969-4.43,0.121-5.393-1.891
			c-0.962-2.026-0.114-4.443,1.896-5.404c2.011-0.981,4.433-0.132,5.392,1.892C958.721,602.181,957.872,604.599,955.849,605.575z"/>
		<path fill="#141414" d="M-452.553,109.277c0.994-3.261-1.078-6.679-4.447-7.334l-2.814-0.551
			c-4.468-0.885-7.834-4.765-7.727-9.302c0.159-5.836,5.521-9.899,11.02-8.822l2.52,0.501c3.438,0.677,6.713-1.834,6.9-5.342
			c0.074-1.719,0.129-3.472,0.17-5.189c0.02-3.414-2.936-6.125-6.348-5.823l-2.883,0.269c-4.525,0.394-8.876-2.395-10.038-6.757
			c-1.52-5.644,2.489-11.068,8.05-11.56l2.531-0.24c3.528-0.313,5.938-3.65,5.111-7.063c-0.406-1.678-0.841-3.358-1.324-5.01
			c-0.906-3.296-4.507-5.063-7.707-3.807l-2.912,1.129c-4.725,1.874-10.125-0.471-12.008-5.194l0,0
			c-4.576-1.605-4.719-8.031-0.202-9.802l7.728-3.053c3.273-1.281,4.656-5.183,2.909-8.216c-0.855-1.503-1.751-2.976-2.674-4.446
			c-1.833-2.907-5.777-3.591-8.494-1.497l-2.456,1.916c-3.998,3.094-9.846,2.365-12.966-1.616c-3.145-4.035-2.418-9.828,1.59-12.925
			l2.003-1.565c2.773-2.158,2.998-6.275,0.444-8.709c-1.233-1.202-2.511-2.346-3.781-3.515c-2.593-2.282-6.583-1.84-8.593,0.922
			l-1.813,2.551c-2.968,4.11-8.769,5.068-12.911,2.094l0,0c-4.124-2.971-5.077-8.731-2.126-12.854l1.464-2.044
			c2.056-2.857,1.101-6.869-2.026-8.512c-1.528-0.771-3.07-1.532-4.66-2.272c-3.088-1.448-6.787,0.06-7.926,3.303l-1.023,2.918
			c-1.684,4.801-6.955,7.331-11.777,5.64l0,0c-4.814-1.688-7.367-6.963-5.683-11.764l0.827-2.359
			c1.157-3.298-0.887-6.891-4.322-7.589c-1.705-0.338-3.412-0.629-5.119-0.895c-3.376-0.553-6.498,1.974-6.67,5.407l-0.14,2.854
			c-0.226,4.503-3.619,8.405-8.095,8.914c-5.836,0.683-10.664-4.049-10.394-9.634l0.128-2.544c0.187-3.518-2.809-6.367-6.298-6.063
			c-1.739,0.157-3.461,0.354-5.171,0.58c-3.399,0.439-5.66,3.707-4.869,7.047l0.729,3.058c1.189,4.918-1.894,9.919-6.814,11.083l0,0
			c-4.954,1.168-9.984-1.917-11.139-6.834l-0.614-2.445c-0.811-3.435-4.492-5.339-7.758-4.071c-1.599,0.648-3.194,1.298-4.78,2.003
			c-3.123,1.373-4.377,5.163-2.662,8.163l1.563,2.689c2.519,4.403,0.988,10.044-3.421,12.563c-4.412,2.489-10.097,0.957-12.61-3.446
			l-1.264-2.195c-1.754-3.054-5.805-3.858-8.599-1.711c-1.367,1.049-2.703,2.146-4.028,3.253c-2.61,2.207-2.736,6.189-0.271,8.568
			l2.305,2.172c3.643,3.53,3.762,9.368,0.248,13.025l0,0c-3.529,3.651-9.396,3.748-13.059,0.228l-1.836-1.749
			c-2.557-2.441-6.665-2.079-8.737,0.77c-0.991,1.403-1.97,2.805-2.931,4.254c-1.873,2.859-0.871,6.729,2.169,8.315l2.803,1.44
			c4.511,2.345,6.29,7.944,3.97,12.429c-2.364,4.487-7.975,6.257-12.469,3.904l-2.262-1.175c-3.115-1.607-6.955-0.156-8.117,3.154
			c-0.006,0.017-0.016,0.047-0.02,0.055c-0.571,1.631-1.127,3.279-1.619,4.915c-0.983,3.278,1.09,6.686,4.453,7.346l3.053,0.589
			c5,1.007,8.271,5.879,7.3,10.835c-0.981,4.985-5.841,8.214-10.843,7.229l-2.501-0.475c-3.45-0.71-6.729,1.845-6.908,5.33
			c-0.077,1.74-0.153,3.442-0.153,5.169c-0.045,3.433,2.91,6.149,6.316,5.839l3.164-0.275c5.05-0.469,9.577,3.31,10.059,8.337
			c0.465,5.037-3.289,9.545-8.357,9.992l-2.52,0.234c-3.524,0.306-5.936,3.651-5.111,7.077c0.408,1.691,0.844,3.334,1.307,5.012
			c0.941,3.29,4.533,5.054,7.721,3.813l2.929-1.16c4.717-1.843,10.12,0.493,11.985,5.18l0,0c4.604,1.615,4.75,8.052,0.205,9.852
			l-7.723,3.036c-3.277,1.283-4.643,5.177-2.889,8.235c0.854,1.481,1.74,2.962,2.642,4.423c1.843,2.913,5.795,3.604,8.505,1.505
			l2.254-1.756c3.566-2.773,8.725-2.763,12.083,0.297c4.33,3.931,3.927,10.659-0.493,14.066l-2.014,1.57
			c-2.775,2.142-3.002,6.293-0.441,8.711c1.24,1.2,2.52,2.374,3.813,3.51c2.568,2.301,6.553,1.846,8.561-0.934l1.695-2.379
			c2.613-3.608,7.467-5.043,11.541-3.127c5.359,2.525,6.907,9.151,3.612,13.719l-1.46,2.055c-2.069,2.854-1.117,6.861,2.027,8.482
			c1.526,0.802,3.083,1.586,4.641,2.307c3.115,1.468,6.807-0.07,7.938-3.297l1.036-2.956c1.678-4.783,6.979-7.301,11.779-5.617l0,0
			c4.792,1.681,7.354,6.957,5.676,11.74l-0.836,2.385c-1.16,3.306,0.893,6.904,4.328,7.589c1.716,0.344,3.416,0.645,5.123,0.909
			c3.393,0.562,6.488-1.985,6.674-5.388l0.141-2.889c0.225-4.508,3.606-8.379,8.1-8.906c5.823-0.655,10.654,4.069,10.377,9.632
			l-0.123,2.523c-0.178,3.542,2.808,6.414,6.303,6.102c1.74-0.162,3.441-0.364,5.178-0.593c3.401-0.443,5.665-3.726,4.866-7.048
			l-0.691-2.816c-1.053-4.396,1.076-9.062,5.262-10.834c5.382-2.28,11.339,0.915,12.653,6.355l0.602,2.434
			c0.818,3.424,4.484,5.339,7.754,4.056c1.602-0.629,3.188-1.295,4.781-1.997c3.138-1.382,4.375-5.16,2.675-8.142l-1.425-2.48
			c-2.255-3.93-1.543-9,1.973-11.886c4.515-3.69,11.131-2.304,13.924,2.547l1.262,2.19c1.747,3.06,5.811,3.866,8.575,1.721
			c1.372-1.061,2.714-2.146,4.046-3.262c2.604-2.2,2.732-6.215,0.255-8.561l-2.271-2.176c-3.658-3.519-3.786-9.376-0.273-13.03
			c1.566-4.468,7.253-5.817,10.676-2.523l4.229,4.058c2.555,2.428,6.669,2.071,8.718-0.788c1.016-1.394,1.987-2.8,2.946-4.249
			c1.882-2.851,0.88-6.706-2.168-8.312l-2.799-1.444c-4.984-2.579-6.63-9.117-3.103-13.767c2.748-3.614,7.815-4.534,11.837-2.431
			l2.021,1.044c3.113,1.605,6.973,0.127,8.122-3.148c0.007-0.021,0.017-0.048,0.024-0.069
			C-453.592,112.554-453.052,110.935-452.553,109.277z M-567.346,121.631l-2.855-41.578l31.371,27.321
			C-546.59,114.987-556.598,120.005-567.346,121.631z M-523.934,62.815l-41.523,2.966l27.313-31.512
			C-530.529,42.046-525.543,52.064-523.934,62.815z M-564.889,73.885l41.502-2.939c-0.064,5.532-0.984,11.116-2.919,16.632
			c-1.761,5.02-4.183,9.602-7.196,13.62L-564.889,73.885z M-500.559,97.365c-1.498,4.272-6.193,6.55-10.48,5.047
			c-4.291-1.506-6.536-6.219-5.037-10.489c1.508-4.297,6.206-6.58,10.496-5.075C-501.293,88.352-499.052,93.069-500.559,97.365z
			 M-515.354,33.329c4.096-1.999,9.028-0.27,10.973,3.849c1.975,4.104,0.248,9.025-3.852,10.983
			c-4.082,1.976-9.014,0.245-10.973-3.85C-521.174,40.227-519.447,35.306-515.354,33.329z M-549.564-2.601
			c4.301,1.51,6.544,6.193,5.037,10.488c-1.506,4.292-6.183,6.548-10.483,5.039c-4.271-1.497-6.533-6.188-5.028-10.48
			C-558.532-1.849-553.836-4.097-549.564-2.601z M-557.859,21.744c5.017,1.761,9.556,4.184,13.574,7.206l-27.307,31.489
			l-2.892-41.59C-568.95,18.884-563.346,19.82-557.859,21.744z M-625.964,78.218l41.482-2.913l-27.29,31.457
			C-619.387,99.015-624.363,88.998-625.964,78.218z M-638.913,41.57c4.284,1.503,6.517,6.221,5.015,10.503
			c-1.504,4.283-6.193,6.575-10.477,5.072c-4.285-1.503-6.525-6.227-5.023-10.509C-647.896,42.354-643.197,40.068-638.913,41.57z
			 M-623.588,53.454c1.748-4.983,4.205-9.558,7.174-13.592l31.376,27.309l-41.485,2.948
			C-626.479,64.581-625.52,58.96-623.588,53.454z M-582.561,19.424l2.903,41.619l-31.419-27.353
			C-603.306,26.037-593.318,21.045-582.561,19.424z M-609.63,1.303c4.103-1.953,8.999-0.235,10.97,3.848
			c1.963,4.116,0.241,9.023-3.856,10.995c-4.099,1.98-8.995,0.263-10.97-3.849C-615.449,8.201-613.727,3.293-609.63,1.303z
			 M-634.609,110.67c-4.109,1.978-9.009,0.259-10.988-3.854c-1.968-4.112-0.25-9.012,3.861-11.007
			c4.111-1.962,9.01-0.243,10.988,3.854C-628.809,103.78-630.527,108.679-634.609,110.67z M-600.422,146.605
			c-4.283-1.501-6.52-6.197-5.01-10.5c1.502-4.285,6.182-6.553,10.465-5.051c4.291,1.506,6.556,6.21,5.053,10.494
			C-591.424,145.851-596.13,148.111-600.422,146.605z M-592.07,119.273c-4.949-1.735-9.533-4.141-13.561-7.163l27.297-31.497
			l2.911,41.598C-580.978,122.176-586.55,121.21-592.07,119.273z M-540.342,142.695c-4.086,1.968-9.009,0.241-10.967-3.849
			c-1.957-4.123-0.232-9.041,3.855-10.994c4.094-1.996,9.016-0.27,10.969,3.848C-534.5,135.782-536.226,140.7-540.342,142.695z"/>
		<path fill="#141414" d="M567.595,486.749l20.312,0.25l3.925-14.271l-17.595-10.146c0.574-4.069,0.883-8.212,0.928-12.402
			l19.166-7.462l-1.734-14.689l-20.364-2.721c-1.122-4.48-2.552-8.821-4.256-13.003l14.556-14.218l-7.301-12.851l-19.622,5.299
			c-2.5-3.31-5.204-6.447-8.093-9.396l8.16-18.673l-11.596-9.146l-16.208,12.324c-3.899-2.329-7.972-4.395-12.176-6.164
			l0.276-20.356l-14.238-3.902l-10.148,17.638c-4.067-0.561-8.197-0.868-12.387-0.907l-7.416-19.187l-14.66,1.757l-2.744,20.412
			c-4.474,1.133-8.812,2.571-12.992,4.281l-14.158-14.563l-12.842,7.334l5.266,19.655c-3.313,2.512-6.445,5.223-9.396,8.119
			l-18.623-8.145l-9.146,11.633l12.274,16.22c-2.331,3.907-4.399,7.993-6.171,12.21l-20.314-0.242l-3.92,14.27l17.594,10.143
			c-0.568,4.072-0.885,8.215-0.928,12.408l-19.164,7.459l1.73,14.69l20.374,2.719c1.122,4.477,2.547,8.82,4.249,13.007
			l-14.555,14.215l7.297,12.85l19.629-5.304c2.499,3.311,5.201,6.447,8.087,9.402l-8.161,18.671l11.602,9.146l16.205-12.327
			c3.896,2.333,7.967,4.396,12.177,6.165l-0.278,20.357l14.24,3.904l10.149-17.644c4.065,0.563,8.197,0.873,12.378,0.913
			l7.42,19.188l14.667-1.761l2.741-20.407c4.473-1.133,8.807-2.57,12.99-4.287l14.16,14.563l12.838-7.33l-5.262-19.656
			c3.313-2.509,6.449-5.224,9.392-8.123l18.629,8.146l9.142-11.632l-12.274-16.221C563.754,495.053,565.82,490.977,567.595,486.749z
			 M496.464,475.917c5.064-3.306,9.304-8.34,11.789-14.113l39.605,13.893c-6.722,17.575-18.407,30.127-33.041,38.402
			L496.464,475.917z M474.579,462.878c-7.266-2.549-11.102-10.557-8.546-17.843c2.557-7.287,10.553-11.14,17.818-8.591
			c7.271,2.55,11.106,10.554,8.551,17.841C489.848,461.57,481.85,465.428,474.579,462.878z M549.844,469.749L510.078,455.8
			c1.709-7.705,0.49-12.805-1.933-18.48l38.161-18.364C553.165,434.464,555.047,451.642,549.844,469.749z M542.332,412.407
			l-38.972,18.369c-2.878-4.058-4.707-6.742-11.876-9.981l14.355-40.926C523.189,387.229,534.594,398.457,542.332,412.407z
			 M499.984,377.623l-14.357,40.93c-6.086-1.59-11.396-0.985-17,0.872l-19.479-39.993
			C464.959,373.041,485.082,372.755,499.984,377.623z M444.115,382.744l19.067,39.871c-4.942,2.919-8.483,5.455-11.902,12.562
			l-42.041-14.747C416.497,403.043,428.908,390.546,444.115,382.744z M407.078,426.316l41.879,14.688
			c-1.692,6.051-1.531,11.734,0,17.136l-39.92,19.185C402.645,461.634,401.352,444.238,407.078,426.316z M411.021,483.431
			l39.269-19.258c3.204,6.006,8.78,11.15,14.501,13.783l-14.326,40.841C435.793,513.274,419.256,499.367,411.021,483.431z
			 M456.439,520.703l14.326-40.839c7.662,1.831,13.118,1.046,18.614-1.053l17.809,38.051
			C491.848,523.796,474.608,525.729,456.439,520.703z"/>
		<path fill="#141414" d="M-650.438,246.223l11.079,0.135l2.145-7.785l-9.604-5.534c0.316-2.22,0.484-4.48,0.509-6.768l10.455-4.069
			l-0.945-8.012l-11.108-1.484c-0.612-2.444-1.393-4.81-2.324-7.095l7.939-7.754l-3.98-7.012l-10.705,2.895
			c-1.363-1.806-2.838-3.521-4.412-5.129l4.449-10.184l-6.326-4.989l-8.838,6.722c-2.127-1.271-4.348-2.396-6.643-3.36l0.152-11.106
			l-7.769-2.128l-5.535,9.622c-2.219-0.307-4.472-0.474-6.758-0.495l-4.045-10.466l-7.998,0.958l-1.499,11.134
			c-2.438,0.618-4.801,1.402-7.083,2.336l-7.723-7.944l-7.01,4.001l2.876,10.722c-1.807,1.37-3.518,2.851-5.126,4.429l-10.16-4.443
			l-4.989,6.348l6.695,8.847c-1.27,2.131-2.398,4.357-3.363,6.659l-11.082-0.131l-2.14,7.784l9.597,5.533
			c-0.308,2.221-0.483,4.48-0.504,6.769l-10.455,4.066l0.943,8.015l11.113,1.483c0.614,2.444,1.387,4.811,2.32,7.096l-7.942,7.753
			l3.979,7.01l10.71-2.892c1.364,1.807,2.834,3.518,4.412,5.126l-4.452,10.188l6.329,4.986l8.838-6.724
			c2.126,1.271,4.347,2.396,6.641,3.364l-0.149,11.103l7.768,2.131l5.537-9.624c2.217,0.306,4.469,0.478,6.752,0.499l4.048,10.466
			l7.999-0.96l1.498-11.132c2.438-0.618,4.802-1.402,7.086-2.34l7.723,7.945l7.003-4l-2.868-10.722
			c1.804-1.371,3.515-2.851,5.121-4.432l10.162,4.443l4.984-6.344l-6.693-8.849C-652.533,250.75-651.407,248.526-650.438,246.223z
			 M-689.359,240.648c2.765-1.801,5.57-5.959,6.313-7.359l21.605,7.578c-3.902,10.258-9.981,16.266-17.965,20.777L-689.359,240.648z
			 M-701.177,233.197c-3.963-1.39-6.056-5.756-4.661-9.732c1.395-3.972,5.755-6.074,9.719-4.684
			c3.967,1.392,6.059,5.757,4.666,9.729C-692.848,232.486-697.209,234.588-701.177,233.197z M-659.932,236.414l-21.694-7.61
			c0.036-1.648,0.175-6.719-1.147-9.813l20.861-10.151C-658.171,217.297-657.378,227.344-659.932,236.414z M-664.988,205.399
			l-21.639,9.887c-1.57-2.217-2.549-3.673-6.862-5.581l7.831-22.325C-674.043,192.15-669.209,197.789-664.988,205.399z
			 M-687.105,186.769l-7.832,22.329c-4.529-1.294-6.323-0.577-9.38,0.435l-10.575-21.796
			C-706.268,184.248-696.04,183.83-687.105,186.769z M-717.701,189.22l10.446,21.615c-2.692,1.592-5.476,5.398-6.444,6.719
			l-22.933-8.045C-732.956,200.834-725.996,193.478-717.701,189.22z M-738.234,213.931l22.842,8.014
			c-0.31,1.552-0.717,6.061,0.119,9.007l-21.834,10.635C-740.596,233.027-741.596,224.379-738.234,213.931z M-735.742,244.447
			l21.473-10.483c1.75,3.273,3.637,5.674,7.967,7.533l-7.814,22.281C-722.927,260.481-731.248,253.141-735.742,244.447z
			 M-712.606,264.206l7.814-22.278c4.583,1.139,7.925,0.839,10.921-0.305l9.33,20.62
			C-692.906,266.024-700.545,267.7-712.606,264.206z"/>
		<path fill="#141414" d="M67.039,343.554l20.313,0.252l3.921-14.273L73.68,319.386c0.573-4.07,0.883-8.212,0.927-12.404
			l19.167-7.46l-1.732-14.69l-20.364-2.719c-1.124-4.481-2.557-8.821-4.259-13.006l14.557-14.218l-7.301-12.848l-19.621,5.302
			c-2.502-3.311-5.205-6.45-8.094-9.401l8.16-18.672l-11.596-9.144l-16.206,12.323c-3.897-2.33-7.969-4.395-12.177-6.164
			l0.276-20.357l-14.239-3.901l-10.15,17.641c-4.062-0.562-8.193-0.871-12.383-0.911l-7.415-19.185l-14.663,1.754l-2.742,20.414
			c-4.473,1.134-8.813,2.57-12.994,4.282l-14.158-14.563l-12.843,7.332l5.267,19.656c-3.309,2.513-6.445,5.222-9.396,8.119
			l-18.624-8.144l-9.143,11.631l12.273,16.225c-2.332,3.904-4.399,7.988-6.173,12.208l-20.313-0.243l-3.918,14.271l17.59,10.139
			c-0.568,4.074-0.879,8.216-0.927,12.41l-19.166,7.457l1.734,14.692l20.37,2.72c1.121,4.479,2.548,8.821,4.25,13.006
			l-14.553,14.215l7.297,12.851l19.629-5.305c2.495,3.313,5.199,6.447,8.085,9.404l-8.157,18.667l11.595,9.146l16.208-12.323
			c3.899,2.331,7.969,4.395,12.177,6.164l-0.278,20.355l14.24,3.904l10.15-17.64c4.065,0.562,8.197,0.87,12.377,0.91l7.42,19.188
			l14.668-1.759l2.74-20.409c4.475-1.133,8.809-2.573,12.992-4.288l14.16,14.565l12.837-7.33l-5.26-19.659
			c3.308-2.509,6.444-5.224,9.392-8.121l18.625,8.146l9.145-11.631l-12.274-16.217C63.2,351.856,65.264,347.777,67.039,343.554z
			 M3.029,233.356c13.598,4.77,20.744,19.687,15.961,33.324c-4.781,13.632-19.682,20.816-33.278,16.047
			c-13.604-4.772-20.754-19.689-15.973-33.321C-25.477,235.767-10.574,228.584,3.029,233.356z M-15.283,308.538
			c-1.395,3.977-5.738,6.07-9.701,4.681c-3.969-1.392-6.053-5.741-4.657-9.716c1.395-3.977,5.738-6.07,9.706-4.68
			C-15.973,300.215-13.889,304.563-15.283,308.538z M-78.979,313.92c-13.604-4.771-20.751-19.688-15.968-33.326
			c4.782-13.632,19.682-20.816,33.286-16.045c13.597,4.77,20.743,19.688,15.962,33.319
			C-50.482,311.506-65.382,318.689-78.979,313.92z M-47.947,378.689c-13.605-4.772-20.755-19.691-15.973-33.323
			c4.783-13.636,19.686-20.82,33.289-16.048c13.598,4.769,20.744,19.688,15.961,33.324
			C-19.452,376.274-34.352,383.459-47.947,378.689z M16.743,347.497C3.137,342.725-4.01,327.808,0.773,314.17
			c4.781-13.632,19.682-20.816,33.287-16.044c13.596,4.768,20.744,19.687,15.962,33.318
			C45.239,345.082,30.339,352.265,16.743,347.497z"/>
		<path fill="#141414" d="M815.491,189.126l13.476,0.165l2.602-9.471l-11.67-6.732c0.379-2.698,0.583-5.447,0.613-8.229
			l12.721-4.953l-1.154-9.745l-13.514-1.805c-0.744-2.971-1.692-5.853-2.824-8.628l9.658-9.434l-4.84-8.528l-13.023,3.518
			c-1.658-2.196-3.45-4.278-5.369-6.234l5.414-12.392l-7.693-6.067l-10.752,8.177c-2.588-1.543-5.287-2.915-8.084-4.089
			l0.186-13.508l-9.447-2.59l-6.736,11.707c-2.694-0.375-5.437-0.58-8.215-0.605l-4.919-12.729l-9.732,1.164l-1.818,13.544
			c-2.966,0.752-5.847,1.705-8.62,2.841l-9.396-9.663l-8.521,4.868l3.493,13.039c-2.195,1.668-4.277,3.468-6.234,5.388
			l-12.358-5.403l-6.066,7.719l8.144,10.764c-1.545,2.591-2.92,5.302-4.094,8.102l-13.478-0.161l-2.602,9.469l11.672,6.729
			c-0.375,2.703-0.584,5.449-0.614,8.234l-12.717,4.945l1.152,9.75l13.514,1.807c0.746,2.971,1.692,5.852,2.821,8.626l-9.659,9.434
			l4.844,8.528l13.021-3.521c1.658,2.201,3.453,4.279,5.367,6.241l-5.411,12.39l7.695,6.063l10.75-8.178
			c2.588,1.548,5.287,2.919,8.082,4.092l-0.185,13.509l9.447,2.588l6.736-11.704c2.697,0.372,5.438,0.58,8.211,0.606l4.926,12.731
			l9.729-1.17l1.819-13.543c2.969-0.75,5.846-1.703,8.621-2.844l9.396,9.664l8.516-4.86l-3.488-13.048
			c2.193-1.662,4.277-3.463,6.23-5.389l12.361,5.404l6.065-7.716l-8.145-10.763C812.941,194.633,814.312,191.93,815.491,189.126z
			 M773.02,116.004c9.021,3.164,13.762,13.065,10.588,22.114c-3.172,9.043-13.059,13.811-22.08,10.647
			c-9.029-3.169-13.77-13.065-10.598-22.11C754.104,117.606,763.989,112.836,773.02,116.004z M760.867,165.893
			c-0.925,2.638-3.81,4.025-6.437,3.104c-2.633-0.923-4.02-3.81-3.095-6.447c0.926-2.639,3.812-4.028,6.445-3.104
			C760.408,160.367,761.793,163.256,760.867,165.893z M718.602,169.462c-9.025-3.165-13.771-13.063-10.598-22.114
			c3.172-9.044,13.063-13.813,22.09-10.646c9.021,3.164,13.764,13.064,10.592,22.11
			C737.511,167.861,727.623,172.628,718.602,169.462z M739.191,212.441c-9.029-3.168-13.77-13.068-10.596-22.112
			c3.174-9.049,13.059-13.818,22.089-10.651c9.021,3.165,13.763,13.065,10.589,22.114
			C758.1,210.835,748.213,215.605,739.191,212.441z M782.115,191.742c-9.025-3.167-13.769-13.064-10.594-22.114
			c3.172-9.045,13.059-13.813,22.085-10.647c9.024,3.165,13.767,13.065,10.595,22.109
			C801.027,190.141,791.139,194.907,782.115,191.742z"/>
		<g>
			<g>
				<g>
					<g>
						<g>
							<path fill="#141414" d="M-282.247,232.958l-18.492-37.01c-0.354-0.72-0.99-1.311-1.837-1.607
								c-0.831-0.305-1.7-0.248-2.437,0.087l-37.704,17.03c-0.358,0.157-0.682,0.405-0.975,0.715
								c-0.281,0.308-0.488,0.67-0.625,1.023l-9.93,27.897c-0.245,0.765-0.221,1.611,0.16,2.385c0.387,0.772,1.061,1.345,1.846,1.62
								l14.133,5.025c0.782,0.277,1.656,0.262,2.445-0.1c0.787-0.355,1.359-0.992,1.617-1.734l7.391-20.803
								c0.275-0.748,0.832-1.388,1.632-1.746c0.785-0.361,1.669-0.362,2.438-0.087l15.779,5.611c0.766,0.27,1.438,0.834,1.824,1.605
								c0.39,0.782,0.414,1.641,0.158,2.371l-7.399,20.807c-0.269,0.747-0.239,1.595,0.154,2.373
								c0.378,0.774,1.048,1.331,1.847,1.611l14.135,5.034c0.768,0.274,1.65,0.267,2.45-0.095c0.78-0.358,1.347-0.99,1.608-1.739
								l9.912-27.906c0.141-0.371,0.203-0.771,0.177-1.196C-281.967,233.718-282.094,233.308-282.247,232.958z"/>
							<path fill="#141414" d="M-270.928,229.663l-23.852-47.76c-0.547-1.09-1.471-1.877-2.563-2.26
								c-1.076-0.389-2.3-0.37-3.41,0.132l-48.655,21.971c-2.227,1.001-3.135,3.594-2.047,5.763
								c0.531,1.087,1.484,1.878,2.563,2.256c1.092,0.396,2.309,0.369,3.414-0.118l42.82-19.123c0.448-0.203,0.969-0.235,1.46-0.049
								c0.505,0.173,0.889,0.531,1.099,0.958l21.143,41.856c0.545,1.102,1.481,1.872,2.561,2.265
								c1.072,0.382,2.32,0.368,3.424-0.124C-270.754,234.425-269.846,231.838-270.928,229.663z"/>
							<path fill="#141414" d="M-318.924,177.832l-8.262-2.935c-0.297-0.113-0.681-0.055-1.055,0.175
								c-0.322,0.232-0.594,0.618-0.754,1.033l-5.874,16.501l14.411-6.567l2.18-6.123c0.15-0.429,0.178-0.878,0.051-1.292
								C-318.348,178.227-318.612,177.952-318.924,177.832z"/>
						</g>
					</g>
				</g>
			</g>
		</g>
	</g>
</g>
</svg>
