<?xml version="1.0" encoding="utf-8"?>
<?xml-stylesheet type="text/css" href="../../css/main.css"?>
<!-- Generator: Adobe Illustrator 16.0.0, SVG Export Plug-In . SVG Version: 6.00 Build 0)  -->
<!DOCTYPE svg PUBLIC "-//W3C//DTD SVG 1.1//EN" "http://www.w3.org/Graphics/SVG/1.1/DTD/svg11.dtd">
<svg  class="highlight" version="1.1" id="Calque_1" xmlns="http://www.w3.org/2000/svg" xmlns:xlink="http://www.w3.org/1999/xlink" x="0px" y="0px"
	 width="21px" height="21px" viewBox="0 0 21 21" enable-background="new 0 0 21 21" xml:space="preserve">
<g class="highlight">
<path d="M10.501,5.799c-2.663,0-4.82,2.156-4.82,4.822c0,2.129,1.379,3.935,3.295,4.572c0.241,0.044,0.328-0.105,0.328-0.232
	c0-0.114-0.003-0.418-0.005-0.82c-1.341,0.292-1.625-0.647-1.625-0.647c-0.217-0.555-0.534-0.701-0.534-0.701
	c-0.438-0.302,0.033-0.297,0.033-0.297c0.484,0.033,0.738,0.5,0.738,0.5c0.429,0.736,1.127,0.524,1.402,0.4
	c0.043-0.311,0.167-0.525,0.308-0.646c-1.073-0.123-2.197-0.536-2.197-2.382c0-0.528,0.19-0.959,0.496-1.295
	C7.871,8.951,7.706,8.46,7.968,7.798c0,0,0.404-0.13,1.323,0.493c0.387-0.106,0.8-0.161,1.21-0.163
	c0.408,0.002,0.819,0.056,1.206,0.163c0.92-0.623,1.322-0.493,1.322-0.493c0.263,0.662,0.1,1.154,0.048,1.274
	c0.31,0.337,0.497,0.768,0.497,1.294c0,1.851-1.128,2.259-2.201,2.38c0.175,0.147,0.328,0.442,0.328,0.893
	c0,0.643-0.006,1.164-0.006,1.321c0,0.128,0.085,0.278,0.332,0.231c1.912-0.64,3.29-2.444,3.29-4.573
	C15.317,7.955,13.16,5.799,10.501,5.799z"/>
</g>
</svg>
