<?xml version="1.0" encoding="utf-8"?>
<?xml-stylesheet type="text/css" href="../../css/main.css"?>
<!-- Generator: Adobe Illustrator 16.0.0, SVG Export Plug-In . SVG Version: 6.00 Build 0)  -->
<!DOCTYPE svg PUBLIC "-//W3C//DTD SVG 1.1//EN" "http://www.w3.org/Graphics/SVG/1.1/DTD/svg11.dtd">
<svg  class="highlight" version="1.1" id="Calque_1" xmlns="http://www.w3.org/2000/svg" xmlns:xlink="http://www.w3.org/1999/xlink" x="0px" y="0px"
	 width="21px" height="21px" viewBox="0 0 21 21" enable-background="new 0 0 21 21" xml:space="preserve">
<g class="highlight">
	<path d="M7.751,6.546c-0.665,0-1.201,0.536-1.201,1.199v5.552c0,0.663,0.538,1.203,1.201,1.203h5.55c0.664,0,1.2-0.54,1.2-1.203
		V7.745c0-0.663-0.536-1.199-1.2-1.199H7.751z M8.723,7.534c0.41,0,0.663,0.269,0.671,0.621c0,0.346-0.261,0.623-0.678,0.623H8.708
		c-0.402,0-0.662-0.276-0.662-0.623C8.046,7.803,8.313,7.534,8.723,7.534L8.723,7.534z M12.247,9.184
		c0.784,0,1.374,0.515,1.374,1.617v2.067h-1.194V10.94c0-0.483-0.174-0.814-0.604-0.814c-0.33,0-0.525,0.222-0.609,0.437
		c-0.033,0.077-0.043,0.186-0.043,0.293v2.012H9.976c0,0,0.013-3.263,0-3.599h1.194v0.508C11.328,9.534,11.613,9.184,12.247,9.184
		L12.247,9.184z M8.116,9.268h1.197v3.598H8.116V9.268z"/>
</g>
</svg>
