<?xml version="1.0" encoding="utf-8"?>
<?xml-stylesheet type="text/css" href="../../css/main.css"?>
<!-- Generator: Adobe Illustrator 16.0.0, SVG Export Plug-In . SVG Version: 6.00 Build 0)  -->
<!DOCTYPE svg PUBLIC "-//W3C//DTD SVG 1.1//EN" "http://www.w3.org/Graphics/SVG/1.1/DTD/svg11.dtd">
<svg class="highlight" version="1.1" id="Calque_1" xmlns="http://www.w3.org/2000/svg" xmlns:xlink="http://www.w3.org/1999/xlink" x="0px" y="0px"
	 width="21px" height="21px" viewBox="0 0 21 21" enable-background="new 0 0 21 21" xml:space="preserve">
<g class="highlight" fill="purple">
	<path d="M10.486,10.34c0.08,0.083,0.222,0.093,0.302,0.012l2.992-3.026H7.495L10.486,10.34z"/>
	<path d="M14.439,7.365l-3.281,3.319c-0.137,0.137-0.323,0.214-0.517,0.214c-0.193,0-0.378-0.078-0.515-0.214L6.828,7.353
		C6.775,7.401,6.724,7.467,6.724,7.542v5.692c0,0.145,0.147,0.391,0.294,0.391h7.402c0.145,0,0.298-0.246,0.298-0.391V7.802
		C14.718,7.613,14.594,7.455,14.439,7.365z"/>
</g>
</svg>
