<?xml version="1.0" encoding="utf-8"?>
<?xml-stylesheet type="text/css" href="../../../css/main.css"?>
<!-- Generator: Adobe Illustrator 16.0.0, SVG Export Plug-In . SVG Version: 6.00 Build 0)  -->
<!DOCTYPE svg PUBLIC "-//W3C//DTD SVG 1.1//EN" "http://www.w3.org/Graphics/SVG/1.1/DTD/svg11.dtd">
<svg version="1.1" id="Calque_1" xmlns="http://www.w3.org/2000/svg" xmlns:xlink="http://www.w3.org/1999/xlink" x="0px" y="0px"
	 width="500px" height="500px" viewBox="0 0 500 500" enable-background="new 0 0 500 500" xml:space="preserve">
<g>
	<path class="logoS" d="M478.555,33.927H20.806v445.265h457.749h0.001L478.555,33.927L478.555,33.927z M262.372,353.313h-34.331
		c-1.664,0-2.705-0.624-3.121-2.08l-17.062-62.42h-66.789v-0.001l-16.437,62.212c-0.416,1.664-1.04,2.289-3.121,2.289H90.925
		c-2.081,0-2.498-0.624-2.081-3.121l59.091-206.612c1.04-3.744,1.664-6.658,2.081-17.061c0-1.456,0.624-2.08,1.664-2.08h43.694
		c1.456,0,2.08,0.416,2.497,2.08l66.165,224.089C264.452,352.271,264.036,353.313,262.372,353.313z M403.029,272.583
		c-0.416,1.664-1.041,2.289-2.706,2.705c-4.161,0.625-16.437,1.456-34.747,1.456h-54.502c0.542,27.857,13.877,46.606,45.345,46.606
		c12.276,0,22.888-1.664,33.916-6.449c1.456-0.625,2.497-0.417,2.497,1.456v26.008c0,2.081-0.624,3.122-2.08,4.162
		c-11.027,5.409-24.761,7.906-41.821,7.906c-54.93,0-75.529-40.573-75.529-85.724c0-49.104,25.385-89.261,70.12-89.261
		c45.357,0,61.172,38.076,61.172,69.079C404.693,260.516,404.069,268.63,403.029,272.583z"/>
	<path class="logoS" d="M173.944,157.312c-4.369,24.344-15.813,65.54-24.344,97.792h49.937
		c-5.826-23.096-19.975-73.448-25.177-97.792H173.944z"/>
	<path class="logoS" d="M342.063,211.825c-19.976,0-28.505,17.477-30.586,35.996h41.821c10.611,0,14.356,0,15.397-0.416
		c0-1.456,0.416-2.497,0.416-3.537C369.111,232.632,363.701,211.825,342.063,211.825z"/>
</g>
</svg>
