<?xml version="1.0" encoding="utf-8"?>
<?xml-stylesheet type="text/css" href="../../../css/main.css"?>
<!-- Generator: Adobe Illustrator 16.0.0, SVG Export Plug-In . SVG Version: 6.00 Build 0)  -->
<!DOCTYPE svg PUBLIC "-//W3C//DTD SVG 1.1//EN" "http://www.w3.org/Graphics/SVG/1.1/DTD/svg11.dtd">
<svg version="1.1" id="Layer_1" xmlns="http://www.w3.org/2000/svg" xmlns:xlink="http://www.w3.org/1999/xlink" x="0px" y="0px"
	 width="500px" height="500px" viewBox="0 0 500 500" enable-background="new 0 0 500 500" xml:space="preserve">
<g>
	<path class="logoS" d="M21.4,25.941v445.3h457.7v-445.3H21.4z M295.4,345.342h-34.5c-1.699,0-2.699-0.4-3.1-1.9l-17.1-62.6H174
		l-16.4,62.399c-0.399,1.7-1,2.101-3.1,2.101H123.9c-2.1,0-2.5-0.601-2.1-3.101l59.1-206.8c1-3.7,1.7-7.1,2.101-17.3
		c0-1.5,0.6-2.101,1.7-2.101H228.4c1.5,0,2.101,0.4,2.5,2.101l66.2,224.5C297.5,344.342,297.1,345.342,295.4,345.342z
		 M365.4,342.941c0,1.7-0.399,2.5-2.5,2.5h-32.3c-2.1,0-2.7-1-2.7-2.7v-164H327.7c0-1.7,0.6-2.5,2.5-2.5H362.9
		c1.7,0,2.5,0.601,2.5,2.5V342.941z M346.2,152.642c-12,0.1-20.801-7.4-20.801-21.2c0-13.3,9.4-21.2,21.2-21.2
		c12.7,0,21.2,8.5,21.2,21.2C367.8,145.142,358.9,152.642,346.2,152.642z"/>
	<path class="logoS" d="M206.6,149.342c-4.399,24.3-15.399,65.5-24.1,97.8h49.3c-5.8-23.101-19.6-73.4-24.8-97.8H206.6z"/>
</g>
</svg>
