<?xml version="1.0" encoding="utf-8"?>
<?xml-stylesheet type="text/css" href="../../../css/main.css"?>
<!-- Generator: Adobe Illustrator 16.0.0, SVG Export Plug-In . SVG Version: 6.00 Build 0)  -->
<!DOCTYPE svg PUBLIC "-//W3C//DTD SVG 1.1//EN" "http://www.w3.org/Graphics/SVG/1.1/DTD/svg11.dtd">
<svg version="1.1" id="Calque_1" xmlns="http://www.w3.org/2000/svg" xmlns:xlink="http://www.w3.org/1999/xlink" x="0px" y="0px"
	 width="256px" height="361px" viewBox="0 0 256 361" enable-background="new 0 0 256 361" xml:space="preserve">
<g>
	<path class="logoS" d="M4.696,74.407L27.139,326.13l100.71,27.958l100.988-27.998l22.467-251.683H4.696z M50.586,125.862h77.308
		v30.874H53.393L50.586,125.862z M56.146,188.351h71.748v30.871H58.913L56.146,188.351z M199.656,188.351l-0.753,8.289
		l-7.255,81.278l-0.465,5.216L128,300.646v0.004l-0.142,0.039l-63.241-17.556l-4.325-48.475h30.991l2.198,24.623l34.383,9.283
		l0.029-0.008v32.118l0.106-0.029v-32.117v-0.002l34.326-9.266l3.584-40.04H128v-30.871h40.587l2.81-31.615H128v-30.874h77.23
		L199.656,188.351z"/>
	<polygon class="logoS" points="100.126,37.273 78.37,37.273 78.37,21.637 100.126,21.637 100.126,6 62.733,6 62.733,52.91 
		100.126,52.91 	"/>
	<polygon class="logoS" points="144.996,22.316 123.241,22.316 123.241,19.597 144.996,19.597 144.996,6 107.604,6 107.604,36.594 
		129.359,36.594 129.359,39.313 107.604,39.313 107.604,53.59 144.996,53.59 	"/>
	<polygon class="logoS" points="189.867,22.316 168.111,22.316 168.111,19.597 189.867,19.597 189.867,6 152.475,6 152.475,36.594 
		174.23,36.594 174.23,39.313 152.475,39.313 152.475,53.59 189.867,53.59 	"/>
</g>
</svg>
