<?xml version="1.0" encoding="utf-8"?>
<?xml-stylesheet type="text/css" href="../../../css/main.css"?>
<!-- Generator: Adobe Illustrator 16.0.0, SVG Export Plug-In . SVG Version: 6.00 Build 0)  -->
<!DOCTYPE svg PUBLIC "-//W3C//DTD SVG 1.1//EN" "http://www.w3.org/Graphics/SVG/1.1/DTD/svg11.dtd">
<svg version="1.1" id="Laag_1" xmlns="http://www.w3.org/2000/svg" xmlns:xlink="http://www.w3.org/1999/xlink" x="0px" y="0px"
	 width="100px" height="100px" viewBox="0 0 100 100" enable-background="new 0 0 100 100" xml:space="preserve">
<path fill-rule="evenodd" clip-rule="evenodd" class="logoS" d="M100.486,10.598c0-3.533,0-7.065,0-10.598
	c-3.532,0-7.065,0-10.599,0c-0.261,5.821-10.104,5.751-10.401,0c-2.094,0-4.187,0-6.28,0c-0.232,5.85-10.125,5.731-10.402,0
	c-2.224,0-4.448,0-6.673,0c-0.807,5.852-11.13,5.71-11.972,0C42,0,39.841,0,37.683,0C37.42,5.88,27.603,5.686,27.28,0
	C25.187,0,23.094,0,21,0c-0.297,5.751-10.141,5.821-10.402,0C7.065,0,3.533,0,0,0c0,3.533,0,7.065,0,10.598
	C5.818,10.838,5.768,20.733,0,21c0,2.094,0,4.187,0,6.28c5.673,0.31,5.898,10.158,0,10.402C0,39.841,0,42,0,44.159
	c5.901,0.911,5.639,11.173,0,12.168c0,2.159,0,4.318,0,6.477c5.771,0.193,5.872,10.239,0,10.402c0,2.094,0,4.187,0,6.28
	c5.806,0.219,5.819,10.192,0,10.401c0,3.533,0,7.065,0,10.599c3.533,0,7.065,0,10.598,0c0.209-5.819,10.184-5.806,10.402,0
	c2.094,0,4.187,0,6.28,0c0.24-5.71,10.213-5.919,10.402,0c2.159,0,4.317,0,6.477,0c0.898-5.894,11.208-5.671,12.168,0
	c2.159,0,4.318,0,6.477,0c0.182-5.768,10.253-5.879,10.402,0c2.094,0,4.187,0,6.28,0c0.219-5.806,10.192-5.819,10.401,0
	c3.533,0,7.065,0,10.599,0c0-3.532,0-7.065,0-10.599c-5.819-0.209-5.806-10.183,0-10.401c0-2.094,0-4.187,0-6.28
	c-5.872-0.163-5.771-10.209,0-10.402c0-2.158,0-4.317,0-6.477c-5.64-0.995-5.901-11.257,0-12.168c0-2.159,0-4.318,0-6.477
	c-5.898-0.244-5.673-10.093,0-10.402c0-2.093,0-4.187,0-6.28C94.718,20.733,94.669,10.838,100.486,10.598z M83.019,47.496
	c-0.449,1.948-5.042,5.239-6.673,6.869c-6.61,6.611-13.892,13.66-20.019,20.02c8.154,0.302,17.413,0.718,22.767-2.355
	c-0.37,3.294-0.629,6.698-0.785,10.206c-4.638,1.833-9.141,3.037-14.916,3.14c-7.522,0.133-15.75-3.944-21.196,0
	c-1.557-2.564-3.284-4.959-4.906-7.458c8.151-9.055,17.09-17.321,25.514-26.103C52.7,51.784,42.995,52.154,32.776,52.01
	c-1.81,8.657-3.297,17.637-5.103,26.299c-4.514,0-9.028,0-13.542,0c4.544-20.577,8.711-41.531,13.542-61.823
	c13.949-0.015,27.532,0.337,41.607,0.196c-0.412,4.167-0.968,8.191-1.569,12.168c-9.879,0-19.757,0-29.636,0
	c-0.957,3.688-1.457,7.833-2.159,11.776c15.264,0.438,30.998,0.404,46.71,0.393C82.39,42.62,83.42,45.757,83.019,47.496z"/>
</svg>
