<?xml version="1.0" encoding="utf-8"?>
<?xml-stylesheet type="text/css" href="../../../css/main.css"?>
<!-- Generator: Adobe Illustrator 16.0.0, SVG Export Plug-In . SVG Version: 6.00 Build 0)  -->
<!DOCTYPE svg PUBLIC "-//W3C//DTD SVG 1.1//EN" "http://www.w3.org/Graphics/SVG/1.1/DTD/svg11.dtd">
<svg version="1.1" id="Calque_1" xmlns="http://www.w3.org/2000/svg" xmlns:xlink="http://www.w3.org/1999/xlink" x="0px" y="0px"
	 width="500px" height="500px" viewBox="0 0 500 500" enable-background="new 0 0 500 500" xml:space="preserve">
<path class="logoS" d="M295.856,219.218c-10.123,0-17.662,4.971-17.662,16.935c0,9.014,4.968,15.271,17.117,15.271
	c10.296,0,17.289-6.067,17.289-15.643C312.6,224.928,306.342,219.219,295.856,219.218L295.856,219.218z M275.609,303.688
	c-2.395,2.939-4.782,6.063-4.782,9.75c0,7.354,9.38,9.568,22.263,9.568c10.673,0,25.211-0.748,25.211-10.671
	c0-5.897-6.995-6.264-15.832-6.817L275.609,303.688L275.609,303.688z M330.075,219.774c3.307,4.234,6.807,10.123,6.807,18.587
	c0,20.424-16.009,32.385-39.188,32.385c-5.895,0-11.231-0.734-14.54-1.653l-6.075,9.751l18.031,1.102
	c31.836,2.028,50.599,2.95,50.599,27.415c0,21.166-18.58,33.119-50.6,33.119c-33.303,0-46-8.466-46-23
	c0-8.283,3.681-12.689,10.122-18.771c-6.074-2.568-8.096-7.165-8.096-12.136c0-4.052,2.021-7.73,5.339-11.229
	c3.311-3.492,6.989-6.993,11.406-11.04c-9.015-4.416-15.825-13.985-15.825-27.603c0-21.158,13.986-35.689,42.134-35.689
	c7.913,0,12.7,0.729,16.933,1.839h35.884v15.637l-16.931,1.289"/>
<path class="logoS" d="M379.396,186.336c-10.491,0-16.562-6.078-16.562-16.57c0-10.479,6.07-16.188,16.562-16.188
	c10.673,0,16.745,5.708,16.745,16.188C396.141,180.258,390.069,186.336,379.396,186.336z M355.655,296.915v-14.528l9.388-1.285
	c2.577-0.373,2.942-0.92,2.942-3.688v-54.097c0-2.02-0.549-3.313-2.396-3.861l-9.935-3.5l2.023-14.899h38.092v76.358
	c0,2.949,0.178,3.313,2.945,3.688l9.386,1.284v14.528L355.655,296.915"/>
<path class="logoS" d="M480.865,289.784c-7.916,3.859-19.506,7.356-29.999,7.356c-21.896,0-30.174-8.823-30.174-29.625v-48.207
	c0-1.102,0-1.841-1.478-1.841h-12.878v-16.375c16.197-1.845,22.633-9.943,24.657-30h17.483v26.138c0,1.284,0,1.839,1.473,1.839
	h25.943v18.397h-27.416v43.976c0,10.858,2.579,15.086,12.51,15.086c5.158,0,10.489-1.284,14.905-2.941L480.865,289.784"/>
<path class="logoS" d="M208.222,241.496l-84.14-84.13c-4.841-4.845-12.7-4.845-17.547,0l-17.471,17.473l22.161,22.161
	c5.152-1.739,11.057-0.573,15.162,3.533c4.126,4.131,5.284,10.086,3.501,15.256l21.358,21.359c5.168-1.781,11.13-0.63,15.257,3.503
	c5.769,5.767,5.769,15.112,0,20.881c-5.77,5.77-15.115,5.77-20.888,0c-4.337-4.342-5.41-10.714-3.214-16.059l-19.919-19.92
	l-0.002,52.42c1.407,0.696,2.734,1.626,3.906,2.792c5.768,5.767,5.768,15.11,0,20.886c-5.769,5.767-15.118,5.767-20.881,0
	c-5.768-5.775-5.768-15.118,0-20.886c1.426-1.423,3.075-2.499,4.835-3.222v-52.907c-1.761-0.719-3.409-1.788-4.836-3.222
	c-4.369-4.366-5.421-10.778-3.181-16.143l-21.846-21.85l-57.688,57.687c-4.847,4.849-4.847,12.708,0,17.553l84.136,84.131
	c4.844,4.846,12.7,4.846,17.55,0l83.747-83.732c4.846-4.849,4.846-12.709,0-17.556"/>
</svg>
