<?xml version="1.0" encoding="utf-8"?>
<?xml-stylesheet type="text/css" href="../../../css/main.css"?>
<!-- Generator: Adobe Illustrator 16.0.0, SVG Export Plug-In . SVG Version: 6.00 Build 0)  -->
<!DOCTYPE svg PUBLIC "-//W3C//DTD SVG 1.1//EN" "http://www.w3.org/Graphics/SVG/1.1/DTD/svg11.dtd">
<svg version="1.1" id="Layer_1" xmlns="http://www.w3.org/2000/svg" xmlns:xlink="http://www.w3.org/1999/xlink" x="0px" y="0px"
	 width="512px" height="512px" viewBox="0 0 512 512" enable-background="new 0 0 512 512" xml:space="preserve">
<g>
	<path class="logoS" d="M87.031,111.242l30.754,344.947L255.793,494.5l138.389-38.365l30.786-344.893H87.031z M150.928,193.103
		l-1.012-11.35h105.938v26.276v15.927v0.104h-59.702l3.866,43.322h55.836v42.306h-94.527L150.928,193.103z M353.161,278.742
		l-9.941,111.379l-0.637,7.147L256,421.265v0.008l-0.195,0.054l-86.662-24.058l-5.926-66.427h19.573h22.896l3.011,33.741
		l47.117,12.723l0.039-0.012v44.012l0.146-0.041v-44.01v-0.002l47.038-12.696l4.911-54.869H256v-42.306h86.793h11.4L353.161,278.742
		z M360.82,193.103l-1.928,21.447l-0.849,9.509h-0.136H256v-42.307h105.831L360.82,193.103z"/>
	<polygon class="logoS" points="139.974,60.285 159.64,60.285 159.64,81.824 181.139,81.824 181.139,17.5 159.639,17.5 
		159.639,38.741 139.973,38.741 139.973,17.5 118.474,17.5 118.474,81.824 139.974,81.824 	"/>
	<polygon class="logoS" points="209.414,38.831 209.414,81.824 230.914,81.824 230.914,38.831 249.849,38.831 249.849,17.5 
		190.485,17.5 190.485,38.831 209.413,38.831 	"/>
	<polygon class="logoS" points="280.308,49.942 295.109,72.813 295.479,72.813 310.271,49.942 310.271,81.824 331.682,81.824 
		331.682,17.5 309.255,17.5 295.479,40.102 281.689,17.5 259.271,17.5 259.271,81.824 280.308,81.824 	"/>
	<polygon class="logoS" points="394.122,60.563 363.888,60.563 363.888,17.5 342.382,17.5 342.382,81.824 394.122,81.824 	"/>
</g>
</svg>
