<?xml version="1.0" encoding="utf-8"?>
<?xml-stylesheet type="text/css" href="../../../css/main.css"?>
<!-- Generator: Adobe Illustrator 16.0.0, SVG Export Plug-In . SVG Version: 6.00 Build 0)  -->
<!DOCTYPE svg PUBLIC "-//W3C//DTD SVG 1.1//EN" "http://www.w3.org/Graphics/SVG/1.1/DTD/svg11.dtd">
<svg version="1.1" id="Calque_1" xmlns="http://www.w3.org/2000/svg" xmlns:xlink="http://www.w3.org/1999/xlink" x="0px" y="0px"
	 width="512px" height="116px" viewBox="0 0 512 116" enable-background="new 0 0 512 116" xml:space="preserve">
<g>
	<g>
		<path class="logoS" d="M475.61,11.629l20.128,0.11c0,0-37.421,50.706-40.477,54.839c-0.992,1.338-2.5,2.781-3.264,4.57
			c-1.934,4.497-3.917,14.362-3.917,14.362l-18.416,0.092c0,0,2.865-10.283,2.747-15.761c-0.104-4.784-2.546-9.563-3.916-14.362
			c-1.385-4.857-3.265-14.362-3.265-14.362h18.933l2.611,10.445L475.61,11.629"/>
		<path class="logoS" d="M437.498,22.322c3.714,2.239,5.993,14.591,5.993,14.591S424.057,37.2,413.48,37.2h-9.14l-11.099,48.311
			h-16.974c0,0,10.563-52.501,13.058-62.02c0.809-3.081,5.536-2.553,13.52-2.553h12.75C423.828,20.938,433.45,19.888,437.498,22.322
			"/>
		<path class="logoS" d="M358.479,45.851c0,0,0.528-3.102-1.796-6.692c-1.983-3.062-3.818-3.773-9.041-3.936
			c-14.748-0.464-14.461,10.464-14.461,10.464L358.479,45.851L358.479,45.851z M374.473,33.336
			c2.161,7.795-1.958,26.113-1.958,26.113s-21.512-0.36-33.295,0c-3.663,0.111-8.049-0.398-9.14,1.306
			c-1.535,2.389,0.561,6.065,2.337,7.618c2.044,1.789,6.025,1.991,7.455,2.174c9.564,1.215,29.581,0.313,29.581,0.313l-3.467,15.354
			c0,0-28.287,1.417-42.435-1.959c-2.794-0.665-5.412-2.01-7.181-3.917c-0.484-0.521-0.902-1.233-1.359-1.846
			c-0.365-0.49-1.429-2.104-1.906-3.377c-3.23-8.611,0.379-25.107,3.918-33.947c0.41-1.025,0.927-2.323,1.47-3.427
			c0.678-1.377,1.252-2.931,1.794-3.754c0.365-0.568,0.816-0.934,1.195-1.469c0.437-0.633,0.945-1.247,1.417-1.794
			c1.305-1.515,2.787-2.586,4.568-3.917c5.895-4.414,16.563-7.841,29.378-6.529c4.825,0.496,12.111,2.219,15.669,7.181
			C373.467,28.786,373.938,31.416,374.473,33.336L374.473,33.336L374.473,33.336z"/>
		<path class="logoS" d="M296.622,20.879l16.458-0.098c0,0-9.172,43.512-13.847,64.729h-18.933c-13.232,0-25.017,1.639-30.03-7.835
			c-4.863-9.197-0.222-24.324,1.959-34.601c1.541-7.272,4.786-22.137,4.786-22.137l17.052-0.157c0,0-4.818,23.143-6.823,34.698
			c-0.718,4.139-2.198,8.036-0.652,11.099c1.469,2.912,3.525,3.12,9.793,3.264c1.984,0.046,8.486,0,8.486,0L296.622,20.879"/>
		<path class="logoS" d="M219.588,52.215c1.723-6.123,4.236-12.762,3.916-18.279c-0.345-5.902-5.293-11.274-8.486-12.403
			c-9.616-3.396-18.619,1.351-22.197,5.222c-4.629,5.015-6.195,10.87-7.834,18.933c-1.22,5.986-2.22,12.306,0,16.973
			c3.93,8.253,16.184,6.451,29.378,6.53C216.323,63.941,217.943,58.045,219.588,52.215L219.588,52.215L219.588,52.215z
			 M242.437,28.061c1.88,13.67-5.333,28.758-10.302,41.879c5.066,0.457,9.506-0.07,9.826,0.308c0.333,0.49-3.395,15.662-4.694,15.7
			c-4.021,0.104-17.345,0.216-22.901,0.216c-18.13,0-35.09,1.182-43.739-7.834c-3.513-3.663-5.941-9.942-6.529-14.362
			c-0.98-7.377,0.248-15.499,1.958-22.196c1.547-6.046,3.532-11.752,6.528-16.975c7.618-13.298,20.871-23.168,43.087-20.89
			c4.308,0.444,10.498,2.331,14.362,4.569c0.268,0.158,1.202,0.902,1.417,1.033C236.673,12.831,241.431,20.762,242.437,28.061
			L242.437,28.061L242.437,28.061z"/>
		<path class="logoS" d="M162.223,20.958c-1.097,4.995-2.194,10.655-3.349,15.59h-18.28c1.417-5.471,2.5-10.909,3.917-15.668
			C150.361,20.879,155.799,20.958,162.223,20.958"/>
		<path class="logoS" d="M139.942,41.117h17.626c-2.304,12.757-6.868,33.334-10.445,47.656c-2.24,8.964-3.734,15.506-9.793,20.238
			c-0.542,0.425-0.854,0.224-1.305,0.653c-1.117,1.064-6.281,2.299-9.14,2.612c-4.648,0.502-9.903,0.063-15.616-0.053
			c1.496-5.464,3.187-12.025,4.518-16.922c13.924,1.686,14.278-11.477,16.974-24.154C134.321,63.823,139.049,44.055,139.942,41.117"
			/>
		<g transform="translate(0.000000, 8.827586)">
			<path class="logoS" d="M98.813,65.585l-0.378,0.979c-6.437,12.534-17.842,20.225-34.111,20.563
				c-7.605,0.157-14.852-1.794-19.585-3.917c-10.216-4.59-18.808-13.102-23.501-22.196c-6.731-13.037-7.945-31.173,6.051-44.718
				c0.216,0-1.697,2.937-1.481,2.937l-0.386,1.253C15.335,52.064,46.409,79.124,76.617,76.03
				C83.876,75.287,93.134,71.309,98.813,65.585"/>
			<path class="logoS" d="M80.533,52.527c7.6,0.053,15.538-3.499,20.238-8.486c-4.112,10.44-16.02,17.149-31.988,15.015
				c-13.37-1.79-26.106-15.244-27.419-28.726c-0.96-9.811,2.461-15.667,8.095-22.771c-1.958,3.715-2.689,6.581-2.872,8.408
				C44.446,37.192,63.54,52.417,80.533,52.527"/>
			<path class="logoS" d="M100.008,26.167c-1.182,2.709-7.984,7.827-10.987,8.466c-11.895,2.534-19.513-3.107-23.502-9.525
				c-0.593-0.959-1.69-3.577-1.886-4.243c-1.548-5.261-0.836-13.22,3.78-17.339c-1.391,3.917-1.594,8.467-0.861,11.425
				c0.443,1.789,1.793,4.91,3.146,6.874c2.46,3.578,4.021,4.447,7.181,6.346c1.423,0.855,2.95,1.541,3.61,1.73
				C83.484,30.781,89.81,33.106,100.008,26.167"/>
		</g>
	</g>
</g>
</svg>
