<?xml version="1.0" encoding="utf-8"?>
<?xml-stylesheet type="text/css" href="../../../css/main.css"?>
<!-- Generator: Adobe Illustrator 16.0.0, SVG Export Plug-In . SVG Version: 6.00 Build 0)  -->
<!DOCTYPE svg PUBLIC "-//W3C//DTD SVG 1.1//EN" "http://www.w3.org/Graphics/SVG/1.1/DTD/svg11.dtd">
<svg version="1.1" id="Calque_1" xmlns="http://www.w3.org/2000/svg" xmlns:xlink="http://www.w3.org/1999/xlink" x="0px" y="0px"
	 width="256px" height="256px" viewBox="0 0 256 256" enable-background="new 0 0 256 256" xml:space="preserve">
<path class="logoS" d="M0,0v256h256V0H0z M139.313,199.667c0,24.917-14.606,36.259-35.915,36.259
	c-19.244,0-30.416-9.966-36.086-21.994h-0.001v-0.002c0,0,0,0.001,0.001,0.002l19.59-11.855c3.779,6.701,7.217,12.371,15.464,12.371
	c7.905,0,12.889-3.092,12.889-15.12v-81.798h24.058V199.667z M196.201,235.928c-22.34,0-36.775-10.653-43.82-24.573l19.588-11.342
	c5.157,8.421,11.859,14.606,23.716,14.606c9.968,0,16.325-4.983,16.325-11.857c0-8.248-6.53-11.17-17.529-15.979l-6.012-2.579
	c-17.357-7.389-28.871-16.668-28.871-36.258c0-18.044,13.747-31.792,35.229-31.792c15.294,0,26.291,5.328,34.195,19.247
	l-18.73,12.028c-4.125-7.389-8.592-10.31-15.465-10.31c-7.046,0-11.514,4.468-11.514,10.31c0,7.218,4.468,10.14,14.777,14.608
	l6.014,2.577c20.449,8.765,31.964,17.699,31.964,37.804C236.067,224.072,219.055,235.928,196.201,235.928z"/>
</svg>
