<?xml version="1.0" encoding="utf-8"?>
<?xml-stylesheet type="text/css" href="../../../css/main.css"?>
<!-- Generator: Adobe Illustrator 16.0.0, SVG Export Plug-In . SVG Version: 6.00 Build 0)  -->
<!DOCTYPE svg PUBLIC "-//W3C//DTD SVG 1.1//EN" "http://www.w3.org/Graphics/SVG/1.1/DTD/svg11.dtd">
<svg version="1.1" id="Calque_1" xmlns="http://www.w3.org/2000/svg" xmlns:xlink="http://www.w3.org/1999/xlink" x="0px" y="0px"
	 width="256px" height="256px" viewBox="0 0 256 256" enable-background="new 0 0 256 256" xml:space="preserve">
<path fill="#CCCCCC" d="M200.883,142.334c0.042,0.054,0.086,0.106,0.128,0.16C200.969,142.44,200.925,142.388,200.883,142.334
	 M132.619,140.837c0.094,0.013,0.186,0.032,0.28,0.042C132.805,140.869,132.713,140.848,132.619,140.837 M207.444,136.832
	c-0.041,0.039-0.083,0.077-0.126,0.112C207.361,136.909,207.403,136.871,207.444,136.832 M208.361,135.809
	c-0.044,0.06-0.088,0.116-0.133,0.175C208.273,135.926,208.317,135.868,208.361,135.809 M209.095,134.55
	c-0.074,0.154-0.151,0.305-0.231,0.451C208.944,134.854,209.021,134.704,209.095,134.55 M209.81,132.588l-0.018,0.021v-0.001
	c-0.114,0.441-0.247,0.862-0.399,1.262C209.55,133.462,209.693,133.04,209.81,132.588 M54.144,129.852
	c-0.282,0.514-0.549,1.032-0.821,1.551C53.595,130.886,53.862,130.365,54.144,129.852 M210.22,129.141L210.22,129.141
	c0,0.111-0.019,0.217-0.02,0.329c-0.012,0.495-0.032,0.986-0.091,1.456l-0.014,0.073l0.014-0.065v-0.008
	c0.059-0.47,0.079-0.961,0.091-1.456c0.001-0.099,0.018-0.192,0.02-0.292V129.141v0.037l0,0V129.141 M210.201,128.833
	c0.002,0.104,0.019,0.203,0.019,0.308v-0.035v0.035l0,0v-0.035C210.22,129.014,210.203,128.927,210.201,128.833 M189.653,128.69
	c0.121,0.137,0.239,0.276,0.358,0.415l-0.006-0.007h0.03c-0.052-0.059-0.188-0.204-0.381-0.406L189.653,128.69 M210.079,127.185
	l0.029,0.163v-0.008l-0.012-0.059L210.079,127.185 M184.933,123.41c0.409,0.447,0.819,0.897,1.226,1.347
	C185.752,124.307,185.342,123.857,184.933,123.41 M208.351,122.466c0.035,0.05,0.071,0.1,0.105,0.151
	c0.479,0.72,0.884,1.585,1.181,2.566l0,0c-0.297-0.98-0.702-1.846-1.181-2.566C208.422,122.565,208.386,122.515,208.351,122.466
	 M207.597,121.569c0.088,0.084,0.172,0.172,0.256,0.264c0.141,0.155,0.274,0.327,0.406,0.505l0,0l0,0
	c-0.132-0.178-0.266-0.35-0.406-0.505C207.77,121.741,207.685,121.653,207.597,121.569 M202.911,121.412
	c-0.146,0.129-0.288,0.27-0.427,0.421c-0.141,0.155-0.273,0.327-0.403,0.503l0,0l0,0c0.13-0.176,0.263-0.348,0.403-0.503
	C202.623,121.683,202.765,121.541,202.911,121.412 M206.642,120.884c0.1,0.054,0.199,0.114,0.298,0.177l0.265,0.168l0,0l0,0
	l-0.265-0.168C206.841,120.997,206.741,120.938,206.642,120.884 M203.759,120.853c-0.122,0.062-0.242,0.131-0.36,0.208l-0.265,0.167
	l0,0l0,0l0.265-0.167C203.518,120.985,203.637,120.915,203.759,120.853 M205.169,120.486c-0.308,0-0.607,0.063-0.899,0.155
	c-0.09,0.028-0.18,0.064-0.268,0.1l0,0l0,0c0.088-0.036,0.178-0.072,0.268-0.1C204.563,120.55,204.861,120.486,205.169,120.486
	s0.606,0.064,0.899,0.155c0.09,0.028,0.18,0.064,0.268,0.099l0,0l0,0c-0.088-0.035-0.178-0.07-0.268-0.099
	C205.775,120.548,205.477,120.486,205.169,120.486 M180.576,118.798c0.47,0.481,0.938,0.964,1.403,1.451
	C181.516,119.761,181.047,119.279,180.576,118.798 M134.127,117.295c-0.763,0-1.506,0.079-2.229,0.216l-0.076,0.012
	c-0.719,0.144-1.412,0.353-2.078,0.62l-0.053,0.02c-0.675,0.275-1.319,0.609-1.924,0.999l-0.007,0.003
	c-0.611,0.394-1.185,0.842-1.712,1.337l0,0l-0.013,0.04l-0.044,0.01c-0.843,0.801-1.567,1.725-2.146,2.74l-0.021,0.036
	c-0.176,0.311-0.336,0.634-0.483,0.963l-0.05,0.104c-0.134,0.305-0.25,0.621-0.357,0.938l-0.068,0.183
	c-0.094,0.297-0.171,0.603-0.243,0.907l-0.066,0.26c-0.063,0.301-0.106,0.611-0.146,0.92c-0.012,0.095-0.032,0.186-0.042,0.281
	c-0.042,0.405-0.066,0.816-0.066,1.234l0,0c0-0.418,0.024-0.829,0.066-1.234c0.01-0.095,0.03-0.187,0.042-0.281
	c0.04-0.31,0.083-0.619,0.146-0.92l0.066-0.26c0.072-0.305,0.149-0.61,0.243-0.907l0.068-0.183c0.107-0.318,0.224-0.634,0.357-0.938
	l0.05-0.104c0.147-0.329,0.307-0.653,0.483-0.963l0.021-0.036c0.58-1.015,1.304-1.938,2.146-2.74l0.044-0.01l0.013-0.04
	c0.527-0.495,1.101-0.943,1.712-1.337l0.007-0.003c0.605-0.39,1.249-0.724,1.924-0.999l0.053-0.02
	c0.666-0.267,1.359-0.477,2.078-0.62l0.076-0.012C132.621,117.374,133.364,117.295,134.127,117.295c0.776,0,1.533,0.079,2.269,0.223
	l0.055,0.007c0.732,0.147,1.438,0.363,2.114,0.638l0.035,0.013c1.372,0.565,2.615,1.38,3.675,2.386
	c0.833,0.794,1.549,1.708,2.124,2.714c0.188,0.329,0.36,0.669,0.517,1.018l0.01,0.021c0.156,0.347,0.293,0.703,0.413,1.067
	l0.01,0.024c0.121,0.364,0.224,0.734,0.308,1.112l0.009,0.029c0.084,0.382,0.149,0.771,0.196,1.165l0.003,0.017
	c0.046,0.4,0.072,0.807,0.078,1.219l0.006,0.089l0.004,0.082l0,0l-0.004-0.082l0.004-0.002v-0.02v-0.001h0.021l-0.03-0.066
	c-0.006-0.412-0.032-0.819-0.078-1.219l-0.003-0.017c-0.047-0.394-0.112-0.783-0.196-1.165l-0.009-0.029
	c-0.084-0.377-0.187-0.748-0.308-1.112l-0.01-0.024c-0.12-0.364-0.257-0.72-0.413-1.067l-0.01-0.021
	c-0.156-0.348-0.328-0.688-0.517-1.018v-0.001c-0.575-1.006-1.291-1.919-2.124-2.713l0,0c-1.06-1.006-2.303-1.821-3.675-2.386
	l-0.035-0.013c-0.676-0.275-1.382-0.491-2.114-0.638l-0.055-0.007C135.66,117.374,134.903,117.295,134.127,117.295 M172.491,110.902
	c1.671,1.528,3.305,3.098,4.919,4.687C175.797,113.999,174.162,112.43,172.491,110.902 M68.531,110.524L68.531,110.524
	c-1.263,1.273-2.484,2.587-3.664,3.94c-0.257,0.296-0.508,0.596-0.761,0.895c-1.186,1.399-2.338,2.825-3.434,4.297
	c-0.091,0.124-0.177,0.253-0.267,0.376c-1.044,1.421-2.039,2.879-2.997,4.361c-0.187,0.289-0.379,0.574-0.563,0.867
	c-0.775,1.229-1.496,2.49-2.211,3.755l0,0c0.716-1.265,1.437-2.526,2.211-3.755c0.183-0.292,0.375-0.578,0.563-0.867
	c0.958-1.482,1.952-2.94,2.997-4.361c0.09-0.124,0.175-0.253,0.267-0.376c1.095-1.473,2.248-2.898,3.434-4.297
	c0.252-0.298,0.505-0.599,0.761-0.895C66.047,113.111,67.268,111.797,68.531,110.524L68.531,110.524 M171.459,109.969
	c0.345,0.309,0.689,0.619,1.032,0.933C172.148,110.588,171.804,110.277,171.459,109.969 M170.237,108.93L170.237,108.93
	l-0.018,0.035L170.237,108.93L170.237,108.93l0.011,0.032l0.016,0.046l-0.016-0.046c0,0,0.001,0.001,0.001,0.001
	C170.245,108.952,170.241,108.941,170.237,108.93 M157.129,98.866L157.129,98.866l0.117,0.067l0.084,0.048L157.34,99l0.022,0.015
	c0.161,2.641,0.264,5.28,0.291,7.915c0.003,0.296-0.004,0.591-0.004,0.886c0-0.295,0.008-0.59,0.004-0.886
	c-0.027-2.635-0.13-5.274-0.291-7.915c3.181,1.959,6.214,4.18,9.1,6.613c-2.885-2.434-5.919-4.654-9.1-6.613L157.34,99l-0.01-0.019
	l0,0l-0.084-0.048L157.129,98.866L157.129,98.866 M154.316,97.259L154.316,97.259l0.069,0.04c0.692,0.393,1.435,0.817,2.005,1.143
	c-0.565-0.323-1.309-0.749-2.005-1.143L154.316,97.259L154.316,97.259 M152.898,96.46L152.898,96.46l0.104,0.059
	c0.158,0.088,0.328,0.184,0.532,0.298l0.015,0.008l0,0l0,0l-0.015-0.008c-0.202-0.114-0.374-0.209-0.532-0.298L152.898,96.46
	L152.898,96.46 M208.227,95.886l0.041,0.124l0.001,0.001l0.008,0.012l-0.009-0.014L208.227,95.886 M207.983,95.189
	c0.077,0.215,0.152,0.433,0.229,0.65C208.136,95.621,208.061,95.403,207.983,95.189 M205.169,93.05v-0.006V93.05 M193.532,88.343
	c-5.146,0-9.942,2.842-13.53,6.351c-3.926,3.84-6.96,8.672-9.413,13.548l-0.029,0.025l0,0c-0.105,0.209-0.208,0.427-0.312,0.639
	c0,0,0.001,0,0.001,0.001c0.112-0.226,0.228-0.441,0.34-0.666c2.453-4.876,5.487-9.708,9.413-13.548
	C183.59,91.185,188.387,88.343,193.532,88.343c4.072,0,7.983,1.649,11.636,4.666l0.001,11.67l-4.471,20.468l-0.036,0.159
	c-0.131,0.451-0.232,0.926-0.318,1.413c-0.026,0.149-0.059,0.292-0.08,0.445c-0.078,0.545-0.119,1.114-0.128,1.696l-0.018,0.238
	h0.004l0.014-0.238c0.009-0.582,0.05-1.15,0.128-1.696c0.021-0.153,0.055-0.296,0.08-0.445c0.086-0.487,0.188-0.961,0.318-1.413
	l0.038-0.118c0.296-0.982,0.701-1.85,1.182-2.571c0.035-0.052,0.071-0.104,0.106-0.154c-0.035,0.05-0.071,0.102-0.106,0.154
	c-0.48,0.721-0.886,1.588-1.182,2.571h-0.002l4.471-20.468l4.468,20.462c0,0.002,0.001,0.003,0.001,0.005l0,0
	c0.05,0.163,0.109,0.313,0.153,0.481l-0.001-0.007c-0.044-0.165-0.103-0.314-0.15-0.473v0.001l-4.471-20.47V93.044l0,0l-0.001-0.036
	C201.516,89.992,197.604,88.343,193.532,88.343 M120.22,88.26c-1.593,0-3.173,0.068-4.744,0.175
	c-0.229,0.016-0.458,0.029-0.688,0.047c-8.174,0.621-16.224,2.751-23.677,6.154c-6.392,2.919-12.331,6.763-17.669,11.321l0,0
	l-0.009,0.009c-1.434,1.218-2.807,2.503-4.148,3.821l0,0l0,0c1.341-1.317,2.715-2.603,4.148-3.821l0.009-0.008v-0.001
	c5.338-4.558,11.277-8.402,17.669-11.321c7.454-3.402,15.503-5.533,23.677-6.154c0.229-0.018,0.459-0.031,0.688-0.047
	C117.046,88.328,118.626,88.26,120.22,88.26c4.773,0,9.437,0.511,13.972,1.441l0.002,0.066v5.829v-5.895
	c3.2,0.754,8.883,2.316,13.102,4.098c1.77,0.747,3.511,1.565,5.216,2.45l0,0l0,0c-1.705-0.885-3.446-1.703-5.216-2.45
	c-4.219-1.782-9.901-3.343-13.102-4.098h-0.002C129.656,88.771,124.993,88.26,120.22,88.26 M128,2.5C58.689,2.5,2.5,58.689,2.5,128
	c0,37.974,16.891,71.982,43.54,94.996l0,0l0,0c8.642-9.908,18.825-17.968,29.971-24.039c-14.574-10.748-25.722-25.879-31.483-43.453
	l0,0l-0.012,0.051c-2.843-8.585-4.375-17.812-4.375-27.395c0-48.611,39.407-88.019,88.019-88.019
	c38.756,0,71.661,25.047,83.412,59.836l0.147,0.595v0.001l0,0v-0.001c2.873,8.692,4.46,17.969,4.46,27.624v0.005
	c0,0.301-0.018,0.597-0.021,0.896l0.021,0.001c-0.101,9.521-1.72,18.675-4.615,27.242l-0.036-0.047
	c7.477,10.036,12.443,17.338,12.443,17.338l0,0l0,0l0,0l0,0c0,0-16.882,17.243-37.045,26.992c-0.589,0.285-1.17,0.588-1.766,0.857
	c-0.149,0.068-0.299,0.136-0.448,0.202c9.305,5.688,17.843,12.821,25.248,21.313l0,0l0,0c26.65-23.013,43.54-57.022,43.54-94.996
	C253.5,58.689,197.311,2.5,128,2.5"/>
<path fill="#535353" d="M184.712,201.684c-1.803,0.807-3.634,1.519-5.471,2.18c-1.341,0.482-2.687,0.924-4.036,1.316l4.987,16.456
	h2.279c1.435,0,2.596,1.163,2.596,2.598c0,2.38,0.141,4.736,0.367,7.072c1.923,1.635,3.827,3.408,5.603,5.197l0,0l0,0
	c6.733-3.92,13.063-8.446,18.923-13.507l0,0C202.555,214.505,194.017,207.372,184.712,201.684"/>
<path fill="#535353" d="M161.383,209.571c-0.116,0.049-0.232,0.097-0.35,0.144c-3.352,1.352-6.805,2.505-10.346,3.443
	c4.548,1.2,8.952,2.756,13.185,4.629l0.058,0.188l0,0l-0.058-0.188L161.383,209.571 M157.752,206.859
	c0.957,0.133,1.92,0.22,2.89,0.266l0,0C159.673,207.079,158.709,206.992,157.752,206.859 M157.644,206.846
	c0.02,0.003,0.04,0.005,0.059,0.008C157.684,206.851,157.663,206.849,157.644,206.846 M157.565,206.834
	c0.022,0.003,0.046,0.007,0.069,0.01C157.611,206.841,157.588,206.837,157.565,206.834"/>
<path d="M70.563,231.316c-1.941,1.647-3.808,3.381-5.6,5.187l0,0c1.457,0.848,2.928,1.677,4.425,2.468l0,0l0,0
	C69.911,236.457,70.311,233.904,70.563,231.316"/>
<path d="M105.428,213.098c-4.312,1.097-8.308,2.466-12.531,4.334l-0.739,0.308l-1.178,3.896h74.059l-1.109-3.66l-0.058-0.188
	c-4.232-1.873-8.637-3.429-13.185-4.629c-7.188,1.906-14.736,2.928-22.527,2.928C120.295,216.086,112.678,215.041,105.428,213.098"
	/>
<path fill="#535353" d="M76.011,198.957c-11.146,6.071-21.33,14.131-29.971,24.039l0,0c5.861,5.061,12.189,9.587,18.923,13.507l0,0
	c1.792-1.806,3.659-3.539,5.6-5.187l0,0c0.229-2.34,0.369-4.699,0.369-7.083c0-1.435,1.163-2.598,2.597-2.598h2.298l5.728-18.941
	c-1.255-0.792-2.489-1.613-3.703-2.462c-0.437-0.306-0.893-0.584-1.324-0.897C76.355,199.209,76.183,199.083,76.011,198.957"/>
<path d="M185.435,231.306c0,0.004,0.001,0.007,0.001,0.011c0.254,2.588,0.653,5.141,1.176,7.654l0,0l0,0
	c1.498-0.791,2.969-1.62,4.426-2.468l0,0C189.262,234.714,187.357,232.94,185.435,231.306"/>
<path fill="#999999" d="M162.343,207.165c-0.001,0-0.001,0-0.003,0l0,0C162.342,207.165,162.342,207.165,162.343,207.165
	 M160.642,207.125L160.642,207.125c0.563,0.026,1.127,0.04,1.693,0.04C161.769,207.165,161.204,207.151,160.642,207.125
	 M166.643,206.93c-0.03,0.003-0.059,0.006-0.088,0.009C166.584,206.936,166.612,206.933,166.643,206.93 M175.205,205.18
	c-2.578,0.749-5.167,1.319-7.743,1.641l0,0c-0.747,0.374-1.506,0.724-2.266,1.077c-0.848,0.394-1.704,0.771-2.567,1.139
	c-0.416,0.177-0.828,0.361-1.246,0.535l2.489,8.216l0.058,0.188l1.109,3.66h15.153L175.205,205.18"/>
<path fill="#999999" d="M179.916,226.83h-51.887L128,253.5l0,0c19.265,0,37.509-4.353,53.82-12.11l0,0
	c-1.064-4.679-1.722-9.485-1.895-14.391L179.916,226.83"/>
<path fill="#B8B8B8" d="M128.029,226.83h-0.028H128H76.084l-0.011,0.169c-0.173,4.905-0.83,9.712-1.894,14.391l0,0
	c16.312,7.758,34.557,12.11,53.821,12.11l0,0L128.029,226.83"/>
<polyline fill="#FFFFFF" points="205.169,93.044 205.169,93.05 205.169,93.044 "/>
<polyline fill="#FFFFFF" points="210.22,129.141 210.22,129.178 210.22,129.178 210.22,129.141 "/>
<path fill="#BCBCBC" d="M210.22,129.141L210.22,129.141 M210.22,129.105v0.035l0,0V129.105"/>
<path fill="#696969" d="M209.79,125.663l0.001,0.007l0,0c0.123,0.483,0.218,0.991,0.288,1.516l0,0l0.018,0.096l0.012,0.059v0.008
	c0.06,0.479,0.082,0.98,0.093,1.485l0,0c0.002,0.094,0.019,0.181,0.019,0.272v0.035l0,0l0,0v0.037l0,0l0,0
	c-0.002,0.1-0.019,0.193-0.02,0.292c-0.012,0.495-0.032,0.986-0.091,1.456v0.008l-0.014,0.065l-0.021,0.115
	c-0.07,0.515-0.161,1.013-0.281,1.485l0,0c-0.001,0.003-0.001,0.005-0.002,0.008v0.001l0.018-0.021l0,0l0.006-0.021v0.001
	l3.07-3.435l0.107-0.034h-0.077l-0.03,0.034L209.79,125.663"/>
<path d="M203.456,124.742L203.456,124.742c0-1.791,0.849-3.245,1.894-3.245c1.047,0,1.895,1.454,1.895,3.245l0,0l0,0
	c0,1.792-0.848,3.247-1.895,3.247C204.305,127.988,203.456,126.534,203.456,124.742L203.456,124.742 M205.169,120.486
	c-0.308,0-0.606,0.064-0.899,0.155c-0.09,0.028-0.18,0.064-0.268,0.1l0,0c-0.083,0.034-0.163,0.071-0.243,0.112
	c-0.122,0.062-0.241,0.132-0.36,0.208l-0.265,0.167l0,0c-0.075,0.058-0.149,0.119-0.223,0.184c-0.146,0.129-0.288,0.271-0.427,0.421
	c-0.141,0.155-0.273,0.327-0.403,0.503l0,0c-0.032,0.042-0.063,0.085-0.093,0.128c-0.035,0.051-0.071,0.102-0.106,0.154
	c-0.48,0.721-0.886,1.588-1.182,2.571l-0.038,0.118c-0.131,0.451-0.232,0.926-0.318,1.413c-0.025,0.149-0.059,0.292-0.08,0.445
	c-0.078,0.545-0.119,1.114-0.128,1.696l-0.014,0.238h0.019c0,4.78,2.262,8.655,5.052,8.655c0.481,0,0.942-0.125,1.383-0.34
	l0.209-0.113c0.183-0.104,0.362-0.218,0.534-0.356l0,0c0.043-0.035,0.085-0.073,0.126-0.112c0.05-0.047,0.1-0.097,0.149-0.144
	c0.223-0.207,0.435-0.442,0.635-0.705l0,0c0.045-0.059,0.089-0.115,0.133-0.175c0.093-0.127,0.185-0.257,0.271-0.396
	c0.083-0.132,0.157-0.272,0.231-0.412l0,0c0.08-0.146,0.157-0.297,0.231-0.451c0.057-0.12,0.112-0.243,0.164-0.368
	c0.046-0.104,0.092-0.206,0.134-0.313l0,0c0.152-0.399,0.285-0.82,0.399-1.262c0.001-0.003,0.001-0.005,0.002-0.008l0,0
	c0.12-0.473,0.211-0.971,0.281-1.485l0,0l0.021-0.115l0.014-0.073c0.059-0.47,0.079-0.961,0.091-1.456
	c0.001-0.112,0.02-0.218,0.02-0.329l0,0l0,0l0,0l0,0l0,0l0,0c0-0.104-0.017-0.203-0.019-0.308l0,0
	c-0.011-0.504-0.033-1.005-0.093-1.485l0,0l-0.029-0.163c-0.07-0.524-0.165-1.032-0.288-1.516l0,0
	c-0.044-0.168-0.104-0.319-0.153-0.481v0.002l-0.001-0.007c-0.297-0.98-0.702-1.846-1.181-2.566
	c-0.034-0.051-0.07-0.102-0.105-0.151c-0.03-0.043-0.062-0.085-0.092-0.128l0,0c-0.132-0.178-0.266-0.35-0.406-0.505
	c-0.084-0.091-0.168-0.179-0.256-0.264c-0.127-0.123-0.258-0.237-0.393-0.34l0,0l-0.265-0.168c-0.099-0.063-0.198-0.123-0.298-0.177
	c-0.101-0.053-0.202-0.102-0.306-0.145l0,0c-0.088-0.035-0.178-0.07-0.268-0.099C205.775,120.55,205.477,120.486,205.169,120.486"/>
<path fill="#FFFFFF" d="M205.35,121.497c-1.045,0-1.894,1.454-1.894,3.245l0,0c0,1.792,0.849,3.247,1.894,3.247
	c1.047,0,1.895-1.454,1.895-3.247l0,0C207.244,122.951,206.396,121.497,205.35,121.497"/>
<path fill="#929292" d="M209.637,125.183L209.637,125.183l0.001,0.007v-0.002C209.638,125.187,209.637,125.185,209.637,125.183
	 M205.169,104.721l-4.471,20.468h0.002c0.296-0.982,0.701-1.85,1.182-2.571c0.035-0.053,0.071-0.104,0.106-0.154
	c0.03-0.043,0.061-0.085,0.093-0.128l0,0c0.13-0.176,0.263-0.348,0.403-0.503c0.139-0.151,0.28-0.292,0.427-0.421
	c0.073-0.064,0.147-0.125,0.223-0.184l0,0l0.265-0.167c0.118-0.078,0.238-0.147,0.36-0.208c0.08-0.041,0.16-0.078,0.243-0.112l0,0
	c0.088-0.036,0.178-0.072,0.268-0.1c0.292-0.092,0.592-0.155,0.899-0.155s0.606,0.063,0.899,0.155
	c0.09,0.028,0.18,0.064,0.268,0.099l0,0c0.104,0.043,0.205,0.092,0.306,0.145c0.1,0.054,0.199,0.113,0.298,0.177l0.265,0.168l0,0
	c0.135,0.103,0.266,0.217,0.393,0.34c0.088,0.084,0.173,0.172,0.256,0.264c0.141,0.155,0.274,0.327,0.406,0.505l0,0
	c0.03,0.042,0.062,0.085,0.092,0.128c0.035,0.049,0.071,0.1,0.105,0.151c0.479,0.72,0.884,1.585,1.181,2.566L205.169,104.721"/>
<path d="M129.686,123.121L129.686,123.121c0-2.453,1.988-4.441,4.441-4.441s4.441,1.988,4.441,4.441l0,0l0,0
	c0,2.453-1.988,4.443-4.441,4.443S129.686,125.574,129.686,123.121L129.686,123.121 M134.127,117.295
	c-0.763,0-1.506,0.079-2.229,0.216l-0.076,0.012c-0.719,0.144-1.412,0.353-2.078,0.62l-0.053,0.02
	c-0.675,0.275-1.319,0.609-1.924,0.999l-0.007,0.003c-0.611,0.394-1.185,0.842-1.712,1.337l-0.013,0.04l-0.044,0.01
	c-0.843,0.801-1.567,1.725-2.146,2.74l-0.021,0.036c-0.176,0.311-0.336,0.634-0.483,0.963l-0.05,0.104
	c-0.134,0.305-0.25,0.621-0.357,0.938l-0.068,0.183c-0.094,0.297-0.171,0.603-0.243,0.907l-0.066,0.26
	c-0.063,0.301-0.106,0.611-0.146,0.92c-0.012,0.095-0.032,0.186-0.042,0.281c-0.042,0.405-0.066,0.816-0.066,1.234
	c0,0.781,0.081,1.545,0.227,2.285l0.007,0.046c0.148,0.739,0.365,1.45,0.645,2.131l0.011,0.029c0.568,1.378,1.391,2.627,2.408,3.686
	l0,0c0.804,0.839,1.729,1.558,2.747,2.133l0.015,0.009c0.318,0.178,0.645,0.339,0.981,0.488l0.082,0.039
	c0.311,0.135,0.63,0.252,0.952,0.361l0.163,0.059c0.298,0.096,0.606,0.173,0.915,0.242l0.246,0.064
	c0.3,0.063,0.607,0.104,0.918,0.145l0,0c0.094,0.011,0.186,0.032,0.28,0.042l0,0c0.403,0.043,0.813,0.065,1.228,0.065
	c1.633,0,3.188-0.331,4.603-0.931c0.707-0.298,1.379-0.664,2.008-1.089c1.259-0.851,2.344-1.937,3.194-3.194
	c0.424-0.629,0.792-1.3,1.091-2.009c0.598-1.415,0.929-2.97,0.929-4.602l-0.004-0.082l-0.006-0.089
	c-0.006-0.412-0.032-0.819-0.078-1.219l-0.003-0.017c-0.047-0.394-0.112-0.783-0.196-1.165l-0.009-0.029
	c-0.084-0.377-0.187-0.748-0.308-1.112l-0.01-0.024c-0.12-0.364-0.257-0.72-0.413-1.067l-0.01-0.021
	c-0.156-0.348-0.328-0.688-0.517-1.018c-0.575-1.007-1.291-1.92-2.124-2.714c-1.06-1.006-2.303-1.821-3.675-2.386l-0.035-0.013
	c-0.676-0.275-1.382-0.491-2.114-0.638l-0.055-0.007C135.66,117.374,134.903,117.295,134.127,117.295"/>
<path fill="#FFFFFF" d="M134.127,118.68c-2.453,0-4.441,1.988-4.441,4.441l0,0c0,2.453,1.988,4.443,4.441,4.443
	s4.441-1.99,4.441-4.443l0,0C138.568,120.668,136.58,118.68,134.127,118.68"/>
<path fill="#BCBCBC" d="M120.22,88.26c-1.593,0-3.173,0.068-4.744,0.175c-0.229,0.016-0.458,0.029-0.688,0.047
	c-8.174,0.621-16.224,2.751-23.677,6.154c-6.392,2.919-12.331,6.763-17.669,11.321v0.001l-0.009,0.008
	c-1.434,1.218-2.807,2.503-4.148,3.821l0,0c-0.251,0.245-0.505,0.488-0.754,0.737l0,0c-1.263,1.273-2.484,2.587-3.664,3.94
	c-0.256,0.295-0.508,0.596-0.761,0.895c-1.186,1.399-2.338,2.825-3.434,4.297c-0.091,0.124-0.177,0.253-0.267,0.376
	c-1.044,1.421-2.039,2.879-2.997,4.361c-0.187,0.289-0.379,0.575-0.563,0.867c-0.775,1.229-1.496,2.49-2.211,3.755h37.032h0.066
	l34.258-8.463l0,0l0,0l0.044-0.01l0.013-0.04l0,0l8.145-24.906v-5.829l-0.002-0.066C129.656,88.771,124.993,88.26,120.22,88.26"/>
<path fill="#DFDFDF" d="M134.193,89.702v5.895l8.071,24.946l0.01,0.021l0,0c0.833,0.794,1.549,1.708,2.124,2.713v0.001
	c0.188,0.329,0.36,0.669,0.517,1.018l0.01,0.021c0.156,0.347,0.293,0.703,0.413,1.067l0.01,0.024
	c0.121,0.364,0.224,0.734,0.308,1.112l0.009,0.029c0.084,0.382,0.149,0.771,0.196,1.165l0.003,0.017
	c0.046,0.4,0.072,0.807,0.078,1.219l0.03,0.066h9.885c0.667-3.617,1.133-7.282,1.429-10.962c0.006-0.101,0.018-0.202,0.025-0.303
	c0.077-0.971,0.138-1.942,0.188-2.915c0.067-1.316,0.114-2.633,0.14-3.951c0.012-0.607,0.016-1.214,0.016-1.822
	c0-0.416-0.002-0.832-0.004-1.247l0,0l0,0l0,0c0-0.295,0.007-0.59,0.004-0.886c-0.027-2.635-0.13-5.274-0.291-7.915L157.34,99
	l-0.01-0.019l-0.084-0.048l-0.117-0.067l0,0c-0.165-0.095-0.424-0.244-0.738-0.424c-0.57-0.326-1.313-0.75-2.005-1.143l-0.069-0.04
	l0,0c-0.271-0.153-0.53-0.3-0.767-0.434l0,0l-0.015-0.008c-0.204-0.114-0.374-0.209-0.532-0.298l-0.104-0.059l0,0
	c-0.174-0.095-0.309-0.168-0.388-0.211l0,0c-1.705-0.885-3.446-1.703-5.216-2.45C143.076,92.018,137.394,90.456,134.193,89.702"/>
<polyline fill="#BABABA" points="170.237,108.93 170.22,108.964 170.237,108.931 170.237,108.93 "/>
<path fill="#929292" d="M134.193,95.597L134.193,95.597l-8.145,24.906l0,0c0.527-0.495,1.101-0.943,1.712-1.337l0.007-0.003
	c0.605-0.39,1.249-0.724,1.924-0.999l0.053-0.02c0.666-0.267,1.359-0.477,2.078-0.62l0.076-0.012
	c0.723-0.138,1.466-0.216,2.229-0.216c0.776,0,1.533,0.079,2.269,0.223l0.055,0.007c0.732,0.147,1.438,0.363,2.114,0.638
	l0.035,0.013c1.372,0.565,2.615,1.38,3.675,2.386l0,0l-0.01-0.021L134.193,95.597"/>
<path fill="#696969" d="M125.992,120.552l-34.258,8.463h-0.066l33.933,8.281c-1.017-1.059-1.84-2.308-2.408-3.686l-0.011-0.029
	c-0.28-0.681-0.497-1.392-0.645-2.131l-0.007-0.046c-0.146-0.74-0.227-1.504-0.227-2.285l0,0c0-0.418,0.024-0.829,0.066-1.234
	c0.01-0.095,0.03-0.187,0.042-0.281c0.04-0.31,0.083-0.619,0.146-0.92l0.066-0.26c0.072-0.305,0.149-0.61,0.243-0.907l0.068-0.183
	c0.107-0.318,0.224-0.634,0.357-0.938l0.05-0.104c0.147-0.329,0.307-0.653,0.483-0.963l0.021-0.036
	C124.425,122.277,125.149,121.354,125.992,120.552L125.992,120.552"/>
<path fill="#DFDFDF" d="M193.532,88.343c-5.146,0-9.942,2.842-13.53,6.351c-3.926,3.84-6.96,8.672-9.413,13.548
	c-0.112,0.225-0.228,0.44-0.34,0.666c0.405,0.351,0.809,0.705,1.21,1.062c0.345,0.308,0.689,0.619,1.032,0.933l0,0l0,0
	c1.671,1.528,3.306,3.097,4.919,4.687l0,0c0.751,0.742,1.488,1.499,2.228,2.252c0.313,0.318,0.626,0.637,0.938,0.957
	c0.471,0.481,0.939,0.963,1.403,1.451l0,0c0.994,1.045,1.979,2.098,2.953,3.161l0,0c0.409,0.447,0.819,0.896,1.226,1.347l0,0
	c1.176,1.301,2.346,2.608,3.495,3.933l0,0l0.002,0.002c0.193,0.202,0.329,0.348,0.381,0.406h10.082l0.018-0.238
	c0.009-0.582,0.05-1.15,0.128-1.696c0.021-0.153,0.054-0.296,0.08-0.445c0.086-0.487,0.188-0.961,0.318-1.413l0.036-0.159
	l4.471-20.468l-0.001-11.67C201.516,89.992,197.604,88.343,193.532,88.343"/>
<polyline fill="#DFDFDF" points="170.237,108.931 170.237,108.931 170.22,108.964 170.264,109.007 170.248,108.961 170.237,108.931 
	"/>
<path fill="#535353" d="M128.16,40.141c-48.611,0-88.019,39.407-88.019,88.019c0,9.583,1.532,18.81,4.375,27.395l0.012-0.051l0,0
	l0,0c0.559-2.589,1.229-5.163,2.008-7.709c0.608-1.984,1.284-3.953,2.022-5.898l0.09-0.226c0.649-1.697,1.36-3.372,2.106-5.03
	c0.209-0.463,0.424-0.921,0.64-1.379c0.612-1.303,1.259-2.587,1.93-3.859l0,0c0.272-0.519,0.539-1.037,0.821-1.551l0,0
	c0.156-0.283,0.333-0.553,0.491-0.836l0,0c0.716-1.265,1.437-2.526,2.211-3.755c0.183-0.293,0.375-0.578,0.563-0.867
	c0.958-1.482,1.952-2.94,2.997-4.361c0.09-0.124,0.175-0.253,0.267-0.376c1.095-1.473,2.248-2.898,3.434-4.297
	c0.252-0.298,0.504-0.598,0.761-0.895c1.18-1.353,2.401-2.667,3.664-3.94l0,0c0.249-0.249,0.503-0.492,0.754-0.737l0,0
	c1.341-1.317,2.715-2.603,4.148-3.821l0.009-0.009l0,0l0,0c5.639-18.888,22.89-32.638,43.303-32.638
	c8.217,0,16.389,2.368,23.391,6.651c7.184,4.394,13.037,10.83,16.84,18.333l0.056,0.113c0.097,0.19,0.205,0.373,0.299,0.564l0,0l0,0
	L157.34,99l0.022,0.015c3.181,1.959,6.215,4.18,9.1,6.613l0,0c0.962,0.812,1.907,1.646,2.836,2.504
	c0.305,0.28,0.62,0.547,0.922,0.833l0,0l0.018-0.035l0,0l0.011-0.023l0,0c0.104-0.212,0.206-0.43,0.312-0.639l0,0
	c2.876-18.155,10.886-31.235,20.332-31.235c6.973,0,13.167,7.124,17.092,18.157c0.077,0.214,0.152,0.431,0.229,0.65
	c0.005,0.016,0.011,0.031,0.015,0.046l0,0l0.041,0.123l0.009,0.014c1.104,1.199,2.181,2.521,3.224,3.969l0,0l0,0l-0.002-0.001
	l0.063,0.081v-0.001v0.001v-0.001v0.001c0.056,0.166,0.104,0.336,0.158,0.502v-0.001l-0.147-0.595
	C199.82,65.188,166.916,40.141,128.16,40.141"/>
<path fill="#FFFFFF" d="M216.157,129.098L216.157,129.098l-3.164,0.001l-0.107,0.034l-3.07,3.435v-0.001l-0.006,0.021l0,0
	c-0.116,0.452-0.26,0.874-0.417,1.281l0,0c-0.042,0.106-0.088,0.208-0.134,0.313c-0.052,0.125-0.107,0.248-0.164,0.368
	c-0.074,0.154-0.15,0.305-0.231,0.451l0,0c-0.074,0.14-0.148,0.28-0.231,0.412c-0.086,0.139-0.178,0.269-0.271,0.396
	c-0.044,0.06-0.088,0.117-0.133,0.175l0,0c-0.2,0.263-0.412,0.498-0.635,0.705c-0.05,0.047-0.1,0.097-0.149,0.144
	c-0.041,0.039-0.083,0.077-0.126,0.112l0,0c-0.172,0.139-0.352,0.252-0.534,0.356l-0.209,0.113c-0.44,0.215-0.901,0.34-1.383,0.34
	c-2.79,0-5.052-3.875-5.052-8.655h-0.019h-0.004h-10.082h-0.03l0.006,0.007l0,0c1.883,2.173,3.731,4.375,5.557,6.599l0.064,0.08
	c1.774,2.166,3.522,4.35,5.25,6.55l0,0c0.042,0.054,0.086,0.106,0.128,0.16c0.043,0.054,0.086,0.107,0.128,0.162
	c1.64,2.09,3.26,4.194,4.866,6.304c0.156,0.203,0.313,0.407,0.469,0.612c1.699,2.235,3.382,4.478,5.054,6.722l0,0l0.036,0.047
	c2.896-8.567,4.515-17.721,4.615-27.242L216.157,129.098"/>
<path d="M116.745,73.319c-20.413,0-37.665,13.75-43.303,32.638l0,0c5.338-4.558,11.277-8.402,17.669-11.321
	c7.454-3.402,15.503-5.533,23.677-6.154c0.229-0.018,0.459-0.031,0.688-0.047c1.571-0.107,3.151-0.175,4.744-0.175
	c4.773,0,9.437,0.511,13.972,1.441h0.002c3.2,0.754,8.883,2.316,13.102,4.098c1.77,0.747,3.511,1.565,5.216,2.45l0,0
	c0.079,0.042,0.214,0.116,0.388,0.211l0,0l0.104,0.059c0.158,0.088,0.33,0.184,0.532,0.298l0.015,0.008l0,0
	c0.236,0.134,0.496,0.281,0.767,0.434l0,0l0.069,0.04c0.696,0.394,1.439,0.82,2.005,1.143c0.314,0.18,0.573,0.329,0.738,0.424l0,0
	l0.117,0.067l0.084,0.048c-0.094-0.192-0.202-0.375-0.299-0.564l-0.056-0.113c-3.803-7.503-9.656-13.939-16.84-18.333
	C133.134,75.687,124.962,73.319,116.745,73.319"/>
<path fill="#BCBCBC" d="M205.169,93.044v11.676l4.471,20.47v-0.001c0.048,0.159,0.106,0.308,0.15,0.473l0,0l3.096,3.47l0.03-0.034
	h0.077h3.164v-0.001c0.004-0.3,0.021-0.596,0.021-0.896v-0.005c0-9.655-1.587-18.932-4.46-27.624v0.001l0,0
	c-0.055-0.166-0.103-0.336-0.158-0.502v-0.001v0.001l-0.063-0.081l0.002,0.001c-1.043-1.448-2.119-2.77-3.224-3.969l0,0
	l-0.027-0.034c-0.503-0.543-1.007-1.062-1.521-1.554c-0.192-0.185-0.394-0.347-0.589-0.524
	C205.817,93.616,205.496,93.313,205.169,93.044v0.006V93.044L205.169,93.044"/>
<path d="M190.892,77.032c-9.446,0-17.456,13.08-20.332,31.235l0,0l0.029-0.025c2.453-4.876,5.487-9.708,9.413-13.548
	c3.588-3.509,8.385-6.351,13.53-6.351c4.072,0,7.983,1.649,11.636,4.666l0.001,0.036v0.006v-0.006
	c0.327,0.269,0.648,0.572,0.97,0.865c0.195,0.178,0.396,0.339,0.589,0.524c0.515,0.492,1.019,1.011,1.521,1.554l0.027,0.034
	l-0.008-0.012l-0.001-0.001l-0.041-0.124c-0.004-0.015-0.01-0.03-0.015-0.046c-0.076-0.218-0.151-0.436-0.229-0.65
	C204.059,84.156,197.864,77.032,190.892,77.032"/>
<path d="M174.645,123.396c-0.127,0.136-0.218,0.26-0.228,0.357c-0.083,0.505-0.166,0.953-0.252,1.356l-0.039,0.176
	c-0.083,0.379-0.169,0.717-0.255,0.973c-3.647,10.795-9.713,19.186-17.973,28.152c-1.119,1.215-2.293,2.447-3.492,3.691
	c-2.021,2.093-4.138,4.231-6.379,6.461c-0.895,0.89-1.806,1.793-2.734,2.711c-0.851,0.844-1.971,1.992-3.235,3.32l0,0
	c-0.78,2.187-1.667,4.651-2.418,7.243c-0.339-0.128-0.66-0.243-1.005-0.376c-16.048-6.207-26.793-14.502-26.793-14.502
	s8.268,10.765,22.196,20.869c1.348,0.979,2.678,1.826,3.979,2.578l0,0l0,0c-0.034,0.542-0.053,1.082-0.051,1.62
	c0.004,8.492,4.567,16.36,21.599,18.809l0,0c0.022,0.003,0.046,0.007,0.069,0.01c0.002,0.001,0.006,0.001,0.009,0.002
	c0.02,0.003,0.04,0.005,0.059,0.008c0.017,0.002,0.033,0.004,0.05,0.006c0.957,0.133,1.921,0.22,2.89,0.266
	c0.563,0.026,1.127,0.04,1.693,0.04c0.002,0,0.004,0,0.005,0c0.002,0,0.002,0,0.003,0c1.396,0,2.802-0.079,4.212-0.227
	c0.029-0.003,0.058-0.006,0.088-0.009c0.093-0.011,0.185-0.021,0.277-0.03c-0.03-0.095-0.056-0.172-0.072-0.224l-0.027-0.081
	c0,0-1.272-1.01-2.888-2.867c-0.377-0.436-0.768-0.901-1.173-1.433c-0.306-0.396-0.614-0.821-0.922-1.271
	c-0.207-0.299-0.412-0.61-0.615-0.933c-0.608-0.966-1.202-2.033-1.74-3.193c-0.536-1.162-1.017-2.417-1.398-3.764
	c-0.256-0.896-0.468-1.832-0.626-2.807c-0.235-1.462-0.349-3.008-0.297-4.636c0.027-0.896,0.119-1.822,0.254-2.764l0,0l0,0
	c0.129-0.908,0.31-1.837,0.547-2.785c0.712-2.846,1.941-5.877,3.861-9.078c0.633-1.054,1.25-2.087,1.853-3.103
	c8.396-14.171,13.682-24.942,11.466-41.441C175.004,125.501,174.841,124.461,174.645,123.396"/>
<path fill="#4D4D4D" d="M223.971,173.632L223.971,173.632c-16.85,8.279-33.442,10.832-47.513,10.832
	c-7.084,0-13.529-0.647-19.043-1.536l0,0c-0.135,0.941-0.227,1.867-0.254,2.764c-0.052,1.628,0.062,3.174,0.297,4.636
	c0.158,0.975,0.37,1.911,0.626,2.807c0.382,1.347,0.862,2.602,1.398,3.764c0.538,1.16,1.132,2.228,1.74,3.193
	c0.203,0.322,0.408,0.634,0.615,0.933c0.308,0.45,0.616,0.876,0.922,1.271c0.405,0.531,0.796,0.997,1.173,1.433
	c1.615,1.857,2.888,2.867,2.888,2.867l0.027,0.081c0.017,0.052,0.042,0.129,0.072,0.224l0,0c0.181-0.021,0.362-0.055,0.542-0.079
	l0,0l0,0c2.576-0.321,5.165-0.892,7.743-1.641c1.35-0.393,2.695-0.834,4.036-1.316c1.837-0.661,3.668-1.373,5.471-2.18
	c0.149-0.066,0.299-0.134,0.448-0.202c0.596-0.27,1.177-0.572,1.766-0.857C207.089,190.875,223.971,173.632,223.971,173.632"/>
<path fill="#BABABA" d="M157.362,99.015c0.161,2.641,0.264,5.28,0.291,7.915c0.004,0.296-0.004,0.591-0.004,0.886l0,0l0,0
	c0.002,0.416,0.004,0.832,0.004,1.247c0,0.607-0.004,1.215-0.016,1.822c-0.025,1.317-0.072,2.635-0.14,3.951
	c-0.05,0.972-0.11,1.943-0.188,2.915c-0.008,0.101-0.02,0.202-0.025,0.303c-0.296,3.681-0.762,7.346-1.429,10.962l0,0l-1.162,5.489
	c-2.424,9.831-7.35,18.747-11.397,27.953c-1.074,2.441-2.093,4.91-2.985,7.426c-0.082,0.23-0.17,0.473-0.254,0.709l0,0
	c1.265-1.328,2.385-2.477,3.235-3.32c0.929-0.918,1.84-1.821,2.734-2.711c2.241-2.229,4.358-4.368,6.379-6.461
	c1.199-1.244,2.373-2.477,3.492-3.691c8.26-8.967,14.325-17.357,17.973-28.152c0.086-0.256,0.172-0.593,0.255-0.973l0.039-0.176
	c0.086-0.403,0.169-0.851,0.252-1.356c0.01-0.097,0.101-0.221,0.228-0.357c-0.03-0.166-0.062-0.333-0.094-0.5
	c-0.905-4.755-2.714-9.372-4.302-13.933c0,0-0.001-0.001-0.001-0.001l0.016,0.046l-0.044-0.043
	c-0.302-0.286-0.617-0.552-0.922-0.833c-0.929-0.858-1.874-1.692-2.836-2.504l0,0C163.576,103.194,160.543,100.974,157.362,99.015"
	/>
<path fill="#535353" d="M94.658,209.473l-2.5,8.267l0.739-0.308c4.223-1.868,8.219-3.237,12.531-4.334
	c-2.148-0.576-4.265-1.23-6.346-1.96c-0.816-0.285-1.634-0.563-2.438-0.872C95.978,210.01,95.316,209.746,94.658,209.473"/>
<path fill="#4E4E4E" d="M170.248,108.906l-0.011,0.023l0,0c0.004,0.011,0.008,0.022,0.012,0.033
	c1.588,4.561,3.396,9.177,4.302,13.933c0.032,0.167,0.063,0.334,0.094,0.5c0.196,1.065,0.359,2.105,0.497,3.125
	c2.216,16.499-3.07,27.271-11.466,41.441c-0.603,1.016-1.22,2.049-1.853,3.103c-1.92,3.201-3.149,6.232-3.861,9.078
	c-0.237,0.948-0.418,1.877-0.547,2.785l0,0c5.514,0.889,11.959,1.536,19.043,1.536c14.07,0,30.663-2.553,47.513-10.832l0,0
	c0,0-4.967-7.302-12.443-17.338l0,0c-1.672-2.244-3.354-4.486-5.054-6.722c-0.155-0.205-0.313-0.409-0.469-0.612
	c-1.606-2.109-3.227-4.214-4.866-6.304c-0.042-0.055-0.085-0.108-0.128-0.162c-0.042-0.054-0.086-0.106-0.128-0.16l0,0
	c-1.728-2.2-3.476-4.384-5.25-6.55l-0.064-0.08c-1.825-2.224-3.674-4.426-5.557-6.599l0,0c-0.119-0.139-0.237-0.278-0.358-0.415l0,0
	c-1.149-1.325-2.319-2.632-3.495-3.933l0,0c-0.406-0.45-0.816-0.9-1.226-1.347l0,0c-0.975-1.063-1.959-2.116-2.953-3.161l0,0
	c-0.466-0.487-0.934-0.97-1.403-1.451c-0.313-0.319-0.626-0.638-0.938-0.957c-0.739-0.754-1.477-1.511-2.228-2.252l0,0
	c-1.614-1.589-3.248-3.159-4.919-4.687l0,0l0,0c-0.343-0.313-0.688-0.624-1.032-0.933
	C171.058,109.612,170.654,109.258,170.248,108.906C170.249,108.907,170.248,108.907,170.248,108.906L170.248,108.906"/>
<path fill="#999999" d="M81.555,202.694l-5.728,18.941H90.98l1.178-3.896l2.5-8.267c-3.1-1.283-6.106-2.746-9.018-4.358
	C84.253,204.347,82.892,203.538,81.555,202.694"/>
<path fill="#FFFFFF" d="M155.856,129.016h-9.885h-0.021v0.001v0.02l-0.004,0.002l0.004,0.082l0,0c0,1.632-0.331,3.187-0.929,4.602
	c-0.299,0.709-0.667,1.38-1.091,2.009c-0.851,1.258-1.936,2.344-3.194,3.194c-0.629,0.425-1.301,0.791-2.008,1.089
	c-1.415,0.6-2.97,0.931-4.603,0.931c-0.415,0-0.824-0.022-1.228-0.065l0,0c-0.095-0.01-0.187-0.029-0.28-0.042l0,0
	c-0.311-0.04-0.618-0.082-0.918-0.145l-0.246-0.064c-0.309-0.069-0.617-0.146-0.915-0.242l-0.163-0.059
	c-0.322-0.109-0.642-0.227-0.952-0.361l-0.082-0.039c-0.336-0.149-0.663-0.311-0.981-0.488l-0.015-0.009
	c-1.018-0.575-1.943-1.294-2.747-2.133l0,0l-33.933-8.281H54.635c-0.159,0.283-0.335,0.553-0.491,0.836l0,0
	c-0.282,0.514-0.549,1.034-0.821,1.551l0,0c-0.671,1.272-1.318,2.557-1.93,3.859c-0.216,0.458-0.43,0.916-0.64,1.379
	c-0.746,1.658-1.457,3.333-2.106,5.03l-0.09,0.226c-0.738,1.945-1.414,3.914-2.022,5.898c-0.779,2.546-1.449,5.12-2.008,7.709l0,0
	c5.762,17.574,16.909,32.705,31.483,43.453c0.172,0.126,0.344,0.252,0.517,0.378c0.431,0.313,0.887,0.592,1.324,0.897
	c1.214,0.849,2.448,1.67,3.703,2.462c1.337,0.844,2.698,1.652,4.084,2.42c2.912,1.612,5.918,3.075,9.018,4.358
	c0.658,0.273,1.32,0.537,1.987,0.793c0.804,0.309,1.622,0.587,2.438,0.872c2.081,0.729,4.197,1.384,6.346,1.96
	c7.25,1.943,14.868,2.988,22.733,2.988c7.791,0,15.338-1.021,22.527-2.928c3.541-0.938,6.994-2.092,10.346-3.443
	c0.117-0.047,0.233-0.095,0.35-0.144c0.418-0.174,0.83-0.358,1.246-0.535c0.863-0.368,1.72-0.745,2.567-1.139
	c0.76-0.354,1.519-0.703,2.266-1.077l0,0c-0.18,0.024-0.361,0.059-0.542,0.079l0,0c-0.093,0.01-0.185,0.02-0.277,0.03
	c-0.03,0.003-0.059,0.006-0.088,0.009c-1.41,0.147-2.815,0.227-4.212,0.227c-0.001,0-0.001,0-0.003,0l0,0c-0.001,0-0.003,0-0.005,0
	c-0.566,0-1.131-0.014-1.693-0.04c-0.97-0.046-1.933-0.133-2.89-0.266c-0.017-0.002-0.033-0.004-0.05-0.006
	c-0.019-0.003-0.039-0.005-0.059-0.008c-0.003-0.001-0.007-0.001-0.009-0.002c-0.023-0.003-0.047-0.007-0.069-0.01l0,0
	c-17.031-2.448-21.595-10.316-21.599-18.809c-0.002-0.538,0.017-1.078,0.051-1.62l0,0c-1.302-0.752-2.632-1.6-3.979-2.578
	c-13.929-10.104-22.196-20.869-22.196-20.869l0,0c0,0,10.745,8.295,26.793,14.502c0.345,0.133,0.666,0.248,1.005,0.376
	c0.751-2.592,1.638-5.057,2.418-7.243c0.084-0.236,0.172-0.479,0.254-0.709c0.893-2.516,1.911-4.984,2.985-7.426
	c4.048-9.206,8.974-18.122,11.397-27.953L155.856,129.016"/>
<path fill="#797979" d="M182.472,221.636h-2.279h-15.153H90.98H75.827h-2.298c-1.434,0-2.597,1.163-2.597,2.598
	c0,2.384-0.14,4.743-0.369,7.083l0,0c-0.252,2.588-0.652,5.141-1.175,7.654l0,0c1.58,0.836,3.172,1.649,4.792,2.419l0,0
	c1.064-4.679,1.721-9.485,1.894-14.391l0.011-0.169H128h0.001h0.028h51.887l0.01,0.169c0.173,4.905,0.83,9.712,1.895,14.391l0,0
	c1.62-0.77,3.213-1.583,4.791-2.419l0,0c-0.522-2.514-0.922-5.066-1.176-7.654c0-0.004-0.001-0.007-0.001-0.011
	c-0.227-2.336-0.367-4.692-0.367-7.072C185.067,222.799,183.906,221.636,182.472,221.636"/>
</svg>
