<?xml version="1.0" encoding="utf-8"?>
<?xml-stylesheet type="text/css" href="../../../css/main.css"?>
<!-- Generator: Adobe Illustrator 16.0.0, SVG Export Plug-In . SVG Version: 6.00 Build 0)  -->
<!DOCTYPE svg PUBLIC "-//W3C//DTD SVG 1.1//EN" "http://www.w3.org/Graphics/SVG/1.1/DTD/svg11.dtd">
<svg version="1.1" id="Layer_2" xmlns="http://www.w3.org/2000/svg" xmlns:xlink="http://www.w3.org/1999/xlink" x="0px" y="0px"
	 width="147.5px" height="147.5px" viewBox="0 0 147.5 147.5" enable-background="new 0 0 147.5 147.5" xml:space="preserve">
<g>
	<g class="logoS">
		<path  d="M77.809,58.618c-0.004,0.251-0.001,0.486-0.008,0.746c0.002,0.076,0.004,0.152,0.007,0.229
			c0.004-0.176,0.015-0.351,0.015-0.527C77.822,58.915,77.814,58.766,77.809,58.618z"/>
		<path  d="M44.375,75.69c9.147,0,16.563-6.667,16.563-16.125c0-0.169-0.02-0.335-0.024-0.503
			c-0.258,9.189-7.554,15.628-16.538,15.628l-6.438-0.25v1L44.375,75.69z"/>
		<path  d="M52.938,29.107c13,2,17.333,7.333,20,11.667c2.32,3.77,4.762,7.172,4.876,16.331
			c0.056-9.911-2.474-13.429-4.876-17.331c-2.667-4.333-7-9.667-20-11.667s-34,0-34,0v1C18.938,29.107,39.938,27.107,52.938,29.107z
			"/>
	</g>
	<g class="logoS">
		<linearGradient id="SVGID_1_" gradientUnits="userSpaceOnUse" x1="114.3496" y1="67.2524" x2="113.8346" y2="96.7558">
			<stop  offset="0" style="stop-color:#1D1D1B"/>
			<stop  offset="0.0896" style="stop-color:#1D1D1B;stop-opacity:0.9104"/>
			<stop  offset="1" style="stop-color:#1D1D1B;stop-opacity:0"/>
		</linearGradient>
		<path  d="M107.409,73.818c-5.174-2.217-7.447-4.675-7.75-6.822c-0.351,2.357,1.752,5.253,7.75,7.822
			c5.986,2.564,20.837,8.241,21.14,22.194c0.004-0.191,0.014-0.379,0.014-0.572C128.563,82.17,113.457,76.409,107.409,73.818z"/>
		<linearGradient id="SVGID_2_" gradientUnits="userSpaceOnUse" x1="97.8936" y1="96.1919" x2="97.7567" y2="104.034">
			<stop  offset="0" style="stop-color:#1D1D1B"/>
			<stop  offset="0.0896" style="stop-color:#1D1D1B;stop-opacity:0.9104"/>
			<stop  offset="1" style="stop-color:#1D1D1B;stop-opacity:0"/>
		</linearGradient>
		<path d="M103.813,103.138c-7.69-0.036-20.354-7.198-20.354-7.198v1c0,0,12.664,7.162,20.354,7.198
			c5.677,0.027,8.853-1.883,8.416-4.736C111.851,101.692,108.797,103.162,103.813,103.138z"/>
		<linearGradient id="SVGID_3_" gradientUnits="userSpaceOnUse" x1="104.6436" y1="47.1138" x2="104.2681" y2="68.6217">
			<stop  offset="0" style="stop-color:#1D1D1B"/>
			<stop  offset="0.0896" style="stop-color:#1D1D1B;stop-opacity:0.9104"/>
			<stop  offset="1" style="stop-color:#1D1D1B;stop-opacity:0"/>
		</linearGradient>
		<path d="M108.188,48.19c10.75-0.125,17.25,4.75,17.25,4.75v-1c0,0-6.5-4.875-17.25-4.75
			s-24.801,6.375-24.801,20.625c0,0.154,0.015,0.292,0.018,0.443C83.769,54.406,97.58,48.313,108.188,48.19z"/>
	</g>
</g>
<g>
	<g class="logoS">
		<path  d="M44.375,40.138l-6.438,0.334v1l6.438-0.334c8.984,0,16.28,8.364,16.538,17.623
			c0.005-0.167,0.024-0.328,0.024-0.497C60.938,48.806,53.522,40.138,44.375,40.138z"/>
		<path  d="M77.813,56.804c-0.002,0.415-0.001,0.821-0.013,1.259c0.002,0.085,0.004,0.169,0.008,0.254
			C77.815,57.798,77.82,57.29,77.813,56.804z"/>
		<rect x="18.938" y="115.806"  width="19" height="1"/>
		<path  d="M77.296,63.686c-0.341,1.82-0.849,3.344-1.48,4.634c-4.868,11.249-18.079,19.319-33.623,19.319
			c-1.199,0-2.379-0.064-3.548-0.159c-0.449,0.102-0.707,0.159-0.707,0.159v1c0,0,0.258-0.058,0.707-0.159
			c1.169,0.095,2.349,0.159,3.548,0.159c15.544,0,28.755-8.07,33.623-19.319c0.632-1.29,1.14-2.813,1.48-4.634
			c0.34-1.601,0.526-3.243,0.526-4.922c0-0.159-0.008-0.315-0.015-0.473C77.773,60.787,77.6,62.254,77.296,63.686z"/>
	</g>
	<g class="logoS">
		<path  d="M101.063,89.639c7.338,3.442,10.766,6.848,11.166,9.462c0.445-2.707-2.851-6.561-11.166-10.462
			c-10-4.691-17.476-8.545-17.658-20.682c-0.005,0.186-0.018,0.368-0.018,0.557C83.387,81.014,90.938,84.889,101.063,89.639z"/>
		<path  d="M125.438,66.389c0,0-9.375-5.376-17.125-5.376c-5.216,0-9.103,2.498-8.653,5.682
			c0.4-2.691,3.998-4.682,8.653-4.682c7.75,0,17.125,5.376,17.125,5.376V66.389z"/>
		<path  d="M103.813,117.14c-14.115-0.125-20.354-6.001-20.354-6.001v1c0,0,6.239,5.876,20.354,6.001
			s24.75-7.501,24.75-21.001c0-0.146-0.011-0.284-0.014-0.428C128.25,109.852,117.726,117.263,103.813,117.14z"/>
	</g>
</g>
<g class="logoS">
	<path  d="M44.375,40.86l-6.438,0.334V74.86l6.438,0.25c9.147,0,16.563-6.667,16.563-16.125
		S53.522,40.86,44.375,40.86z"/>
	<path  d="M0,0v147.5h147.5V0H0z M77.296,64.407c-0.341,1.82-0.849,3.344-1.48,4.634
		C70.947,80.29,57.736,88.36,42.192,88.36c-1.199,0-2.379-0.064-3.548-0.159c-0.449,0.102-0.707,0.159-0.707,0.159v28.167h-19v-88
		c0,0,21-2,34,0s17.333,7.333,20,11.667c2.503,4.065,5.151,7.692,4.863,18.59c0.007,0.234,0.021,0.466,0.021,0.701
		C77.822,61.164,77.636,62.806,77.296,64.407z M103.813,117.861c-14.115-0.125-20.354-6.001-20.354-6.001v-15.5
		c0,0,12.664,7.162,20.354,7.198c10.875,0.052,12.601-6.996-2.75-14.198c-10.125-4.75-17.676-8.625-17.676-21.125
		c0-14.25,14.051-20.5,24.801-20.625s17.25,4.75,17.25,4.75v14.75c0,0-9.375-5.376-17.125-5.376c-8.732,0-13.75,7.001-0.903,12.504
		c6.048,2.591,21.153,8.353,21.153,22.622C128.563,110.36,117.928,117.986,103.813,117.861z"/>
</g>
</svg>
