<?xml version="1.0" encoding="utf-8"?>
<?xml-stylesheet type="text/css" href="../../../css/main.css"?>
<!-- Generator: Adobe Illustrator 16.0.0, SVG Export Plug-In . SVG Version: 6.00 Build 0)  -->
<!DOCTYPE svg PUBLIC "-//W3C//DTD SVG 1.1//EN" "http://www.w3.org/Graphics/SVG/1.1/DTD/svg11.dtd">
<svg version="1.1" id="Calque_1" xmlns="http://www.w3.org/2000/svg" xmlns:xlink="http://www.w3.org/1999/xlink" x="0px" y="0px"
	 width="500px" height="500px" viewBox="0 0 500 500" enable-background="new 0 0 500 500" xml:space="preserve">
<path class="logoS" d="M473.4,249.97c0-36.135-29.325-65.425-65.405-65.425c25.506-25.595,25.506-67.03,0-92.62
	c-25.484-25.55-66.965-25.55-92.564,0c0-36.135-29.295-65.43-65.5-65.43c-36.175,0-65.479,29.295-65.479,65.43
	c-25.5-25.55-66.976-25.55-92.485,0c-25.595,25.6-25.595,67.04,0,92.62c-36.17,0-65.515,29.295-65.515,65.425
	c0,0.66,0.03,1.311,0.05,1.966V450c0,16.667,8.333,25,25,25H448.4c16.667,0,25-8.333,25-25V250h-0.001
	C473.399,249.99,473.4,249.98,473.4,249.97z M112.876,336.972c0.85,1.25,1.809,2.422,2.863,3.499
	c4.415,4.369,10.506,7.024,17.115,7.024v0.06c15.921,0,30.287,6.361,40.739,16.625c0.157,0.153,0.321,0.3,0.476,0.455
	c10.591,10.555,17.12,25.17,17.12,41.24c0,7.448-1.405,14.562-3.941,21.109c-8.45,21.823-29.603,37.291-54.394,37.291
	c-32.21,0-58.33-26.11-58.33-58.4h15.387h18.753c0,6.892,2.884,13.087,7.493,17.482c4.349,4.146,10.232,6.692,16.696,6.692
	c4.396,0,8.516-1.177,12.07-3.227c7.229-4.17,12.104-11.969,12.104-20.948c0-4.482-1.244-8.665-3.408-12.266
	c-1.044-1.735-2.298-3.338-3.736-4.77c-4.32-4.4-10.41-7.09-17.03-7.09c-9.997,0-19.382-2.522-27.595-6.942
	c-5.054-2.72-9.667-6.155-13.7-10.173c-6.911-6.925-12.081-15.614-14.823-25.332c-1.43-5.066-2.212-10.406-2.212-15.933
	c0-3.422,0.311-6.769,0.876-10.029c1.841-10.628,6.553-20.266,13.312-28.094c10.696-12.387,26.498-20.237,44.142-20.237
	c12.129,0,23.389,3.702,32.719,10.035c4.695,3.188,8.897,7.043,12.478,11.428c8.21,10.055,13.139,22.898,13.139,36.897h-34.16
	c0-4.56-1.263-8.821-3.453-12.459c-4.232-7.028-11.935-11.726-20.722-11.726c-13.314,0-24.189,10.814-24.189,24.185
	C108.665,328.431,110.238,333.089,112.876,336.972z M281.635,392.175l-8.885,42.945l-6.03,29.149h-34.25l-6.19-29.871l-8.536-41.189
	L204.769,330.6l-13.589-65.574h34.23L249.6,381.71l24.175-116.685h34.165l-13.436,64.943L281.635,392.175z M424.69,379.41v26.475
	c0,32.26-26.13,58.391-58.345,58.391c-24.41,0-45.314-15.018-54.011-36.332c-2.776-6.807-4.319-14.25-4.319-22.059v-62.409V323.38
	h-0.085c0-14.207,5.095-27.227,13.538-37.351c3.504-4.201,7.583-7.904,12.117-10.984c9.334-6.339,20.586-10.045,32.68-10.045
	c17.72,0,33.568,7.876,44.275,20.303c6.771,7.858,11.478,17.536,13.293,28.208c0.547,3.21,0.847,6.503,0.847,9.869h-9.942h-24.303
	c0-13.37-10.76-24.185-24.17-24.185c-8.541,0-16.089,4.507-20.373,11.294c-2.355,3.73-3.728,8.148-3.728,12.891v67.902v14.603
	c0,8.87,4.781,16.608,11.861,20.817c3.596,2.138,7.781,3.368,12.239,3.368c6.293,0,12.003-2.381,16.29-6.286
	c4.85-4.415,7.88-10.777,7.88-17.849v-0.061v-23.481v-0.653h-24.17l0.01-34.176h27.886h30.529V379.41z M443.394,250H56.516
	c0-0.012-0.001-0.023-0.001-0.035c0-19.54,15.885-35.435,35.48-35.435c9.699,0,18.625,3.98,25.074,10.38h72.44l-51.28-51.23
	c-8.984,0-18.16-3.485-25.06-10.355c-13.875-13.86-13.875-36.3,0-50.135c13.865-13.855,36.28-13.855,50.135,0
	c6.875,6.93,10.415,15.975,10.415,25.025l51.175,51.26v-72.44c-6.35-6.435-10.41-15.265-10.41-25.115
	c0-19.54,15.875-35.395,35.48-35.395c19.595,0,35.485,15.84,35.485,35.395c-0.011,9.86-4.08,18.675-10.436,25.105v72.44L326.3,138.2
	c0-9.06,3.455-18.09,10.33-25.025c13.899-13.855,36.375-13.855,50.12,0c13.854,13.83,13.854,36.275,0,50.135
	c-6.886,6.875-15.976,10.36-25.075,10.36l-51.17,51.24h72.444c6.45-6.4,15.271-10.38,25.056-10.38c19.5,0,35.39,15.895,35.39,35.435
	C443.395,249.977,443.394,249.988,443.394,250z"/>
</svg>
