<?xml version="1.0" encoding="utf-8"?>
<?xml-stylesheet type="text/css" href="../../../css/main.css"?>
<!-- Generator: Adobe Illustrator 16.0.0, SVG Export Plug-In . SVG Version: 6.00 Build 0)  -->
<!DOCTYPE svg PUBLIC "-//W3C//DTD SVG 1.1//EN" "http://www.w3.org/Graphics/SVG/1.1/DTD/svg11.dtd">
<svg version="1.1" id="Calque_1" xmlns="http://www.w3.org/2000/svg" xmlns:xlink="http://www.w3.org/1999/xlink" x="0px" y="0px"
	 width="256px" height="258px" viewBox="0 0 256 258" enable-background="new 0 0 256 258" xml:space="preserve">
<g class="logoS">
	<path d="M182.854,129.543c-1.16-0.521-2.38-0.913-3.591-1.371c0.297-1.156,1.193-1.85,1.838-2.706
		c6.967-9.259,10.633-19.603,9.814-31.25c-0.596-8.501-7.588-14.488-16.051-14.171c-8.468,0.317-14.85,6.849-14.969,15.322
		c-0.01,0.693,0.032,1.388-0.012,2.078c-0.582,9.031-5.564,13.978-13.115,14.53c-1.379,0.101-2.762,0.224-4.143,0.228
		c-9.801,0.021-19.6,0.018-29.4,0.009c-4.28-0.003-8.524,0.461-12.601,1.72c-19.027,5.871-30.122,18.882-33.796,38.275
		c-0.728,3.837-1.383,7.818-0.125,11.761c1.805,5.652,5.169,9.856,11.125,11.263c6.173,1.457,11.551-0.155,15.822-5.005
		c2.762-3.135,3.632-6.859,3.838-10.947c0.534-10.516,6.261-15.771,15.81-15.691c14.649,0.121,29.301,0.025,43.951,0.035
		c2.602,0.002,2.625,0.037,2.637,2.608c0.025,4.751-0.121,9.507,0.063,14.253c0.298,7.746,7.114,14.186,15.016,14.412
		c8.148,0.233,15.412-5.793,15.941-13.661c0.459-6.809,0.43-13.661-0.018-20.476C190.545,135.484,187.691,131.726,182.854,129.543z"
		/>
	<path d="M77.952,111.815c3.345,0.563,6.708,0.293,9.48,0.375c3.151,0,5.723-0.029,8.293,0.013
		c1.274,0.02,1.747-0.528,1.735-1.777c-0.042-4.943,0.214-9.902-0.101-14.827c-0.417-6.498-3.872-11.194-9.92-13.563
		c-6.203-2.429-11.878-1.043-16.678,3.538c-4.822,4.603-5.464,10.231-3.777,16.392C68.533,107.627,72.194,110.843,77.952,111.815z"
		/>
	<path d="M255.904,29.349c-0.006-3.464-0.209-6.93-0.924-10.329c-1.801-8.573-6.394-14.794-15.068-17.438
		c-4-1.22-8.132-1.582-12.301-1.582c-33.227,0.002-66.455,0.002-99.683,0.002c-33.127,0-66.256-0.009-99.383,0.018
		c-2.373,0.001-4.757,0.165-7.119,0.416C11.261,1.519,4.403,6.845,1.269,16.604c-1.177,3.661-1.216,7.553-1.218,11.378
		C0.016,93.935,0.011,159.887,0,225.84c0,2.968,0.107,5.92,0.442,8.888c0.932,8.231,5.277,14.314,11.678,19.192
		c0.879,0.67,1.889,1.029,2.89,1.459c5.027,2.153,10.406,2.539,15.697,2.548c65.066,0.104,130.133,0.065,195.199,0.071
		c2.874,0,5.678-0.715,8.561-0.717c1.251,0,2.525-0.43,3.745-0.806c6.753-2.087,11.202-6.831,14.45-12.825
		c2.93-5.404,3.244-11.402,3.258-17.335c0.086-42.384,0.081-84.768,0.079-127.152C255.998,75.892,255.957,52.621,255.904,29.349z
		 M215.102,134.08c5.307,8.225,7.648,17.252,7.348,27.057c-0.627,20.457-15.096,38.801-35.001,43.6
		c-27.791,6.696-49.093-9.924-56.263-30.031c-1.169-3.272-1.723-6.689-2.41-10.592c-0.728,4.454-1.238,8.479-2.838,12.189
		c-7.491,17.385-20.256,27.978-39.394,30.086c-22.622,2.492-43.515-11.469-49.797-33.153c-2.277-7.858-2.049-15.869-1.224-23.867
		c0.882-8.546,3.399-16.651,7.33-24.296c0.563-1.093,0.552-1.918-0.152-2.978c-6.036-9.078-8.378-19.107-7.527-29.932
		c0.454-5.786,1.859-11.321,4.483-16.504c7.688-15.185,24.569-28.071,47.179-25.932c19.879,1.88,38.293,19.029,41.167,38.315
		c0.145,0.968,0.416,1.918,0.735,3.347c0.476-2.586,0.819-4.721,1.265-6.834c3.703-17.521,20.854-35.855,45.164-36.082
		c24.641-0.229,42.887,19.096,46.33,37.044c1.455,7.585,1.201,15.163,0.002,22.738c-1.201,7.567-3.423,14.841-6.672,21.774
		C214.109,131.559,214.184,132.659,215.102,134.08z"/>
</g>
</svg>
